# MagicaVoxel @ Ephtracy

# group
o 

# material
mtllib painting 2.mtl
usemtl palette

# normals
vn -1 0 0
vn 1 0 0
vn 0 0 1
vn 0 0 -1
vn 0 -1 0
vn 0 1 0

# texcoords
vt 0.107422 0.5
vt 0.111328 0.5
vt 0.591797 0.5
vt 0.650391 0.5
vt 0.654297 0.5
vt 0.697266 0.5
vt 0.732422 0.5
vt 0.966797 0.5
vt 0.974609 0.5

# verts
v 0 2 -1.9
v 0 2 -2
v 0 2.1 -1.9
v 0 2.1 -2
v 0 2.9 -1.9
v 0 2.9 -2
v 0 3.2 -1.9
v 0 3.2 -2
v 0 3.3 -1.9
v 0 3.3 -2
v 0 3.4 -1.9
v 0 3.4 -2
v 0 3.7 -1.9
v 0 3.7 -2
v 0 4 -1.9
v 0 4 -2
v 2 2 -1.9
v 2 2 -2
v 2 2.4 -1.9
v 2 2.4 -2
v 2 2.6 -1.9
v 2 2.6 -2
v 2 2.9 -1.9
v 2 2.9 -2
v 2 3 -1.9
v 2 3 -2
v 2 3.3 -1.9
v 2 3.3 -2
v 2 3.4 -1.9
v 2 3.4 -2
v 2 3.5 -1.9
v 2 3.5 -2
v 2 4 -1.9
v 2 4 -2
v 0 2 -1.9
v 0 2.1 -1.9
v 0 2.9 -1.9
v 0 3.2 -1.9
v 0 3.3 -1.9
v 0 3.4 -1.9
v 0 3.7 -1.9
v 0 4 -1.9
v 0.1 2.1 -1.9
v 0.1 2.2 -1.9
v 0.1 2.7 -1.9
v 0.1 2.9 -1.9
v 0.1 3.1 -1.9
v 0.1 3.2 -1.9
v 0.1 3.5 -1.9
v 0.1 3.6 -1.9
v 0.1 3.7 -1.9
v 0.1 3.8 -1.9
v 0.2 2 -1.9
v 0.2 2.1 -1.9
v 0.2 2.6 -1.9
v 0.2 2.7 -1.9
v 0.2 3.2 -1.9
v 0.2 3.3 -1.9
v 0.2 3.4 -1.9
v 0.2 3.5 -1.9
v 0.2 3.6 -1.9
v 0.2 3.8 -1.9
v 0.2 3.9 -1.9
v 0.3 2.1 -1.9
v 0.3 2.2 -1.9
v 0.3 2.5 -1.9
v 0.3 2.6 -1.9
v 0.3 3 -1.9
v 0.3 3.1 -1.9
v 0.3 3.6 -1.9
v 0.3 3.7 -1.9
v 0.4 2.2 -1.9
v 0.4 2.3 -1.9
v 0.4 2.5 -1.9
v 0.4 2.8 -1.9
v 0.4 2.9 -1.9
v 0.4 3 -1.9
v 0.4 3.1 -1.9
v 0.4 3.2 -1.9
v 0.4 3.5 -1.9
v 0.4 3.6 -1.9
v 0.4 3.7 -1.9
v 0.5 2 -1.9
v 0.5 2.1 -1.9
v 0.5 2.7 -1.9
v 0.5 2.8 -1.9
v 0.5 3 -1.9
v 0.5 3.1 -1.9
v 0.5 3.2 -1.9
v 0.5 3.4 -1.9
v 0.5 3.8 -1.9
v 0.5 3.9 -1.9
v 0.6 2 -1.9
v 0.6 2.1 -1.9
v 0.6 2.2 -1.9
v 0.6 2.3 -1.9
v 0.6 2.4 -1.9
v 0.6 2.6 -1.9
v 0.6 2.7 -1.9
v 0.6 2.9 -1.9
v 0.6 3 -1.9
v 0.6 3.1 -1.9
v 0.6 3.2 -1.9
v 0.6 3.3 -1.9
v 0.6 3.4 -1.9
v 0.6 3.5 -1.9
v 0.6 3.7 -1.9
v 0.6 3.8 -1.9
v 0.7 2.1 -1.9
v 0.7 2.2 -1.9
v 0.7 2.6 -1.9
v 0.7 2.7 -1.9
v 0.7 3.1 -1.9
v 0.7 3.2 -1.9
v 0.7 3.3 -1.9
v 0.7 3.4 -1.9
v 0.7 3.6 -1.9
v 0.7 3.7 -1.9
v 0.8 2 -1.9
v 0.8 2.1 -1.9
v 0.8 2.7 -1.9
v 0.8 2.8 -1.9
v 0.8 3.3 -1.9
v 0.8 3.4 -1.9
v 0.9 2 -1.9
v 0.9 2.1 -1.9
v 0.9 2.2 -1.9
v 0.9 2.8 -1.9
v 0.9 3 -1.9
v 0.9 3.2 -1.9
v 0.9 3.3 -1.9
v 0.9 3.5 -1.9
v 0.9 3.6 -1.9
v 1 2.3 -1.9
v 1 2.4 -1.9
v 1 2.5 -1.9
v 1 2.6 -1.9
v 1 3 -1.9
v 1 3.2 -1.9
v 1 3.3 -1.9
v 1 3.4 -1.9
v 1.1 2.1 -1.9
v 1.1 2.2 -1.9
v 1.1 2.3 -1.9
v 1.1 2.6 -1.9
v 1.1 2.7 -1.9
v 1.1 3.3 -1.9
v 1.1 3.4 -1.9
v 1.1 3.5 -1.9
v 1.1 3.6 -1.9
v 1.2 2.7 -1.9
v 1.2 2.8 -1.9
v 1.2 3.4 -1.9
v 1.2 3.5 -1.9
v 1.3 2.2 -1.9
v 1.3 2.3 -1.9
v 1.3 2.4 -1.9
v 1.3 2.8 -1.9
v 1.3 3 -1.9
v 1.3 3.2 -1.9
v 1.3 3.4 -1.9
v 1.4 2.3 -1.9
v 1.4 2.4 -1.9
v 1.4 2.8 -1.9
v 1.4 3 -1.9
v 1.5 2 -1.9
v 1.5 2.2 -1.9
v 1.5 2.8 -1.9
v 1.5 3.1 -1.9
v 1.6 2 -1.9
v 1.6 2.1 -1.9
v 1.6 2.4 -1.9
v 1.6 2.5 -1.9
v 1.6 2.6 -1.9
v 1.6 2.7 -1.9
v 1.6 3.1 -1.9
v 1.7 2.1 -1.9
v 1.7 2.2 -1.9
v 1.7 2.3 -1.9
v 1.7 2.6 -1.9
v 1.7 2.7 -1.9
v 1.7 2.8 -1.9
v 1.7 3.2 -1.9
v 1.7 3.3 -1.9
v 1.7 3.6 -1.9
v 1.7 3.7 -1.9
v 1.8 2.2 -1.9
v 1.8 2.3 -1.9
v 1.8 2.4 -1.9
v 1.8 2.6 -1.9
v 1.8 2.7 -1.9
v 1.8 2.8 -1.9
v 1.8 3 -1.9
v 1.8 3.2 -1.9
v 1.8 3.3 -1.9
v 1.8 3.4 -1.9
v 1.8 3.5 -1.9
v 1.8 3.6 -1.9
v 1.8 3.7 -1.9
v 1.9 2.3 -1.9
v 1.9 2.4 -1.9
v 1.9 2.5 -1.9
v 1.9 2.7 -1.9
v 1.9 2.8 -1.9
v 1.9 2.9 -1.9
v 1.9 3 -1.9
v 1.9 3.3 -1.9
v 1.9 3.4 -1.9
v 1.9 3.5 -1.9
v 1.9 3.6 -1.9
v 2 2 -1.9
v 2 2.4 -1.9
v 2 2.6 -1.9
v 2 2.9 -1.9
v 2 3 -1.9
v 2 3.3 -1.9
v 2 3.4 -1.9
v 2 3.5 -1.9
v 2 4 -1.9
v 0 2 -2
v 0 2.1 -2
v 0 2.9 -2
v 0 3.2 -2
v 0 3.3 -2
v 0 3.4 -2
v 0 3.7 -2
v 0 4 -2
v 0.1 2.1 -2
v 0.1 2.2 -2
v 0.1 2.7 -2
v 0.1 2.9 -2
v 0.1 3.1 -2
v 0.1 3.2 -2
v 0.1 3.5 -2
v 0.1 3.6 -2
v 0.1 3.7 -2
v 0.1 3.8 -2
v 0.2 2 -2
v 0.2 2.1 -2
v 0.2 2.6 -2
v 0.2 2.7 -2
v 0.2 3.2 -2
v 0.2 3.3 -2
v 0.2 3.4 -2
v 0.2 3.5 -2
v 0.2 3.6 -2
v 0.2 3.8 -2
v 0.2 3.9 -2
v 0.3 2.1 -2
v 0.3 2.2 -2
v 0.3 2.5 -2
v 0.3 2.6 -2
v 0.3 3 -2
v 0.3 3.1 -2
v 0.3 3.6 -2
v 0.3 3.7 -2
v 0.4 2.2 -2
v 0.4 2.3 -2
v 0.4 2.5 -2
v 0.4 2.8 -2
v 0.4 2.9 -2
v 0.4 3 -2
v 0.4 3.1 -2
v 0.4 3.2 -2
v 0.4 3.5 -2
v 0.4 3.6 -2
v 0.4 3.7 -2
v 0.5 2 -2
v 0.5 2.1 -2
v 0.5 2.7 -2
v 0.5 2.8 -2
v 0.5 3 -2
v 0.5 3.1 -2
v 0.5 3.2 -2
v 0.5 3.4 -2
v 0.5 3.8 -2
v 0.5 3.9 -2
v 0.6 2 -2
v 0.6 2.1 -2
v 0.6 2.2 -2
v 0.6 2.3 -2
v 0.6 2.4 -2
v 0.6 2.6 -2
v 0.6 2.7 -2
v 0.6 2.9 -2
v 0.6 3 -2
v 0.6 3.1 -2
v 0.6 3.2 -2
v 0.6 3.3 -2
v 0.6 3.4 -2
v 0.6 3.5 -2
v 0.6 3.7 -2
v 0.6 3.8 -2
v 0.7 2.1 -2
v 0.7 2.2 -2
v 0.7 2.6 -2
v 0.7 2.7 -2
v 0.7 3.1 -2
v 0.7 3.2 -2
v 0.7 3.3 -2
v 0.7 3.4 -2
v 0.7 3.6 -2
v 0.7 3.7 -2
v 0.8 2 -2
v 0.8 2.1 -2
v 0.8 2.7 -2
v 0.8 2.8 -2
v 0.8 3.3 -2
v 0.8 3.4 -2
v 0.9 2 -2
v 0.9 2.1 -2
v 0.9 2.2 -2
v 0.9 2.8 -2
v 0.9 3 -2
v 0.9 3.2 -2
v 0.9 3.3 -2
v 0.9 3.5 -2
v 0.9 3.6 -2
v 1 2.3 -2
v 1 2.4 -2
v 1 2.5 -2
v 1 2.6 -2
v 1 3 -2
v 1 3.2 -2
v 1 3.3 -2
v 1 3.4 -2
v 1.1 2.1 -2
v 1.1 2.2 -2
v 1.1 2.3 -2
v 1.1 2.6 -2
v 1.1 2.7 -2
v 1.1 3.3 -2
v 1.1 3.4 -2
v 1.1 3.5 -2
v 1.1 3.6 -2
v 1.2 2.7 -2
v 1.2 2.8 -2
v 1.2 3.4 -2
v 1.2 3.5 -2
v 1.3 2.2 -2
v 1.3 2.3 -2
v 1.3 2.4 -2
v 1.3 2.8 -2
v 1.3 3 -2
v 1.3 3.2 -2
v 1.3 3.4 -2
v 1.4 2.3 -2
v 1.4 2.4 -2
v 1.4 2.8 -2
v 1.4 3 -2
v 1.5 2 -2
v 1.5 2.2 -2
v 1.5 2.8 -2
v 1.5 3.1 -2
v 1.6 2 -2
v 1.6 2.1 -2
v 1.6 2.4 -2
v 1.6 2.5 -2
v 1.6 2.6 -2
v 1.6 2.7 -2
v 1.6 3.1 -2
v 1.7 2.1 -2
v 1.7 2.2 -2
v 1.7 2.3 -2
v 1.7 2.6 -2
v 1.7 2.7 -2
v 1.7 2.8 -2
v 1.7 3.2 -2
v 1.7 3.3 -2
v 1.7 3.6 -2
v 1.7 3.7 -2
v 1.8 2.2 -2
v 1.8 2.3 -2
v 1.8 2.4 -2
v 1.8 2.6 -2
v 1.8 2.7 -2
v 1.8 2.8 -2
v 1.8 3 -2
v 1.8 3.2 -2
v 1.8 3.3 -2
v 1.8 3.4 -2
v 1.8 3.5 -2
v 1.8 3.6 -2
v 1.8 3.7 -2
v 1.9 2.3 -2
v 1.9 2.4 -2
v 1.9 2.5 -2
v 1.9 2.7 -2
v 1.9 2.8 -2
v 1.9 2.9 -2
v 1.9 3 -2
v 1.9 3.3 -2
v 1.9 3.4 -2
v 1.9 3.5 -2
v 1.9 3.6 -2
v 2 2 -2
v 2 2.4 -2
v 2 2.6 -2
v 2 2.9 -2
v 2 3 -2
v 2 3.3 -2
v 2 3.4 -2
v 2 3.5 -2
v 2 4 -2
v 0 2 -1.9
v 0.2 2 -1.9
v 0.5 2 -1.9
v 0.6 2 -1.9
v 0.8 2 -1.9
v 0.9 2 -1.9
v 1.5 2 -1.9
v 1.6 2 -1.9
v 2 2 -1.9
v 0 2 -2
v 0.2 2 -2
v 0.5 2 -2
v 0.6 2 -2
v 0.8 2 -2
v 0.9 2 -2
v 1.5 2 -2
v 1.6 2 -2
v 2 2 -2
v 0 4 -1.9
v 2 4 -1.9
v 0 4 -2
v 2 4 -2

# faces
f 3/4/1 2/4/1 1/4/1
f 4/4/1 2/4/1 3/4/1
f 5/6/1 4/6/1 3/6/1
f 6/6/1 4/6/1 5/6/1
f 7/7/1 6/7/1 5/7/1
f 8/7/1 6/7/1 7/7/1
f 9/3/1 8/3/1 7/3/1
f 10/3/1 8/3/1 9/3/1
f 11/7/1 10/7/1 9/7/1
f 12/7/1 10/7/1 11/7/1
f 13/8/1 12/8/1 11/8/1
f 14/8/1 12/8/1 13/8/1
f 15/7/1 14/7/1 13/7/1
f 16/7/1 14/7/1 15/7/1
f 17/5/2 18/5/2 19/5/2
f 19/5/2 18/5/2 20/5/2
f 19/4/2 20/4/2 21/4/2
f 21/4/2 20/4/2 22/4/2
f 21/1/2 22/1/2 23/1/2
f 23/1/2 22/1/2 24/1/2
f 23/2/2 24/2/2 25/2/2
f 25/2/2 24/2/2 26/2/2
f 25/1/2 26/1/2 27/1/2
f 27/1/2 26/1/2 28/1/2
f 27/2/2 28/2/2 29/2/2
f 29/2/2 28/2/2 30/2/2
f 29/1/2 30/1/2 31/1/2
f 31/1/2 30/1/2 32/1/2
f 31/7/2 32/7/2 33/7/2
f 33/7/2 32/7/2 34/7/2
f 43/4/3 36/4/3 35/4/3
f 43/6/3 37/6/3 36/6/3
f 44/6/3 37/6/3 43/6/3
f 45/6/3 37/6/3 44/6/3
f 46/7/3 38/7/3 37/7/3
f 46/6/3 37/6/3 45/6/3
f 47/7/3 38/7/3 46/7/3
f 48/3/3 39/3/3 38/3/3
f 48/7/3 38/7/3 47/7/3
f 49/8/3 41/8/3 40/8/3
f 50/8/3 41/8/3 49/8/3
f 51/7/3 42/7/3 41/7/3
f 51/8/3 41/8/3 50/8/3
f 52/7/3 42/7/3 51/7/3
f 53/4/3 43/4/3 35/4/3
f 53/4/3 44/4/3 43/4/3
f 54/4/3 44/4/3 53/4/3
f 55/6/3 45/6/3 44/6/3
f 56/7/3 47/7/3 46/7/3
f 56/6/3 45/6/3 55/6/3
f 56/7/3 46/7/3 45/7/3
f 57/3/3 39/3/3 48/3/3
f 57/3/3 48/3/3 47/3/3
f 58/7/3 40/7/3 39/7/3
f 58/3/3 39/3/3 57/3/3
f 59/8/3 49/8/3 40/8/3
f 59/7/3 40/7/3 58/7/3
f 60/9/3 50/9/3 49/9/3
f 60/8/3 49/8/3 59/8/3
f 61/8/3 52/8/3 51/8/3
f 61/9/3 50/9/3 60/9/3
f 61/8/3 51/8/3 50/8/3
f 62/7/3 42/7/3 52/7/3
f 62/8/3 52/8/3 61/8/3
f 63/7/3 42/7/3 62/7/3
f 64/4/3 44/4/3 54/4/3
f 64/5/3 54/5/3 53/5/3
f 65/6/3 55/6/3 44/6/3
f 65/4/3 44/4/3 64/4/3
f 66/6/3 55/6/3 65/6/3
f 67/7/3 56/7/3 55/7/3
f 67/6/3 55/6/3 66/6/3
f 68/7/3 47/7/3 56/7/3
f 68/7/3 56/7/3 67/7/3
f 69/3/3 57/3/3 47/3/3
f 69/7/3 47/7/3 68/7/3
f 70/8/3 61/8/3 60/8/3
f 70/8/3 63/8/3 62/8/3
f 70/8/3 62/8/3 61/8/3
f 71/8/3 63/8/3 70/8/3
f 72/6/3 66/6/3 65/6/3
f 72/5/3 65/5/3 64/5/3
f 73/6/3 66/6/3 72/6/3
f 74/7/3 67/7/3 66/7/3
f 74/6/3 66/6/3 73/6/3
f 74/7/3 68/7/3 67/7/3
f 75/7/3 68/7/3 74/7/3
f 76/7/3 68/7/3 75/7/3
f 77/3/3 69/3/3 68/3/3
f 77/7/3 68/7/3 76/7/3
f 78/3/3 57/3/3 69/3/3
f 78/3/3 69/3/3 77/3/3
f 79/7/3 59/7/3 58/7/3
f 79/3/3 57/3/3 78/3/3
f 79/7/3 60/7/3 59/7/3
f 79/7/3 58/7/3 57/7/3
f 80/8/3 70/8/3 60/8/3
f 80/7/3 60/7/3 79/7/3
f 81/9/3 71/9/3 70/9/3
f 81/8/3 70/8/3 80/8/3
f 82/8/3 63/8/3 71/8/3
f 82/9/3 71/9/3 81/9/3
f 83/5/3 64/5/3 53/5/3
f 83/5/3 72/5/3 64/5/3
f 84/5/3 72/5/3 83/5/3
f 85/6/3 75/6/3 74/6/3
f 85/6/3 74/6/3 73/6/3
f 86/7/3 76/7/3 75/7/3
f 86/6/3 75/6/3 85/6/3
f 87/3/3 78/3/3 77/3/3
f 87/3/3 77/3/3 76/3/3
f 88/7/3 81/7/3 80/7/3
f 88/3/3 78/3/3 87/3/3
f 88/7/3 80/7/3 79/7/3
f 88/7/3 79/7/3 78/7/3
f 89/7/3 81/7/3 88/7/3
f 90/7/3 81/7/3 89/7/3
f 91/8/3 63/8/3 82/8/3
f 91/8/3 82/8/3 81/8/3
f 92/7/3 42/7/3 63/7/3
f 92/8/3 63/8/3 91/8/3
f 93/4/3 84/4/3 83/4/3
f 94/5/3 72/5/3 84/5/3
f 94/4/3 84/4/3 93/4/3
f 95/4/3 73/4/3 72/4/3
f 95/5/3 72/5/3 94/5/3
f 96/6/3 85/6/3 73/6/3
f 96/4/3 73/4/3 95/4/3
f 97/6/3 85/6/3 96/6/3
f 98/6/3 85/6/3 97/6/3
f 99/7/3 86/7/3 85/7/3
f 99/6/3 85/6/3 98/6/3
f 100/7/3 76/7/3 86/7/3
f 100/7/3 86/7/3 99/7/3
f 100/3/3 87/3/3 76/3/3
f 101/7/3 88/7/3 87/7/3
f 101/3/3 87/3/3 100/3/3
f 101/7/3 89/7/3 88/7/3
f 102/7/3 89/7/3 101/7/3
f 103/8/3 90/8/3 89/8/3
f 103/7/3 89/7/3 102/7/3
f 104/8/3 90/8/3 103/8/3
f 105/7/3 81/7/3 90/7/3
f 105/8/3 90/8/3 104/8/3
f 106/7/3 81/7/3 105/7/3
f 107/8/3 91/8/3 81/8/3
f 108/7/3 92/7/3 91/7/3
f 108/8/3 91/8/3 107/8/3
f 109/5/3 94/5/3 93/5/3
f 109/4/3 95/4/3 94/4/3
f 110/5/3 96/5/3 95/5/3
f 110/4/3 95/4/3 109/4/3
f 111/7/3 99/7/3 98/7/3
f 111/7/3 102/7/3 101/7/3
f 111/6/3 98/6/3 97/6/3
f 111/7/3 100/7/3 99/7/3
f 111/7/3 101/7/3 100/7/3
f 112/7/3 102/7/3 111/7/3
f 113/8/3 103/8/3 102/8/3
f 113/7/3 102/7/3 112/7/3
f 114/9/3 104/9/3 103/9/3
f 114/8/3 103/8/3 113/8/3
f 115/8/3 106/8/3 105/8/3
f 115/9/3 104/9/3 114/9/3
f 115/8/3 105/8/3 104/8/3
f 116/8/3 106/8/3 115/8/3
f 117/7/3 81/7/3 106/7/3
f 117/8/3 107/8/3 81/8/3
f 118/7/3 108/7/3 107/7/3
f 118/8/3 107/8/3 117/8/3
f 119/5/3 110/5/3 109/5/3
f 119/5/3 109/5/3 93/5/3
f 120/5/3 110/5/3 119/5/3
f 121/7/3 113/7/3 112/7/3
f 121/7/3 114/7/3 113/7/3
f 121/6/3 112/6/3 111/6/3
f 122/7/3 114/7/3 121/7/3
f 123/9/3 116/9/3 115/9/3
f 123/8/3 115/8/3 114/8/3
f 124/8/3 106/8/3 116/8/3
f 124/9/3 116/9/3 123/9/3
f 125/4/3 120/4/3 119/4/3
f 126/5/3 110/5/3 120/5/3
f 126/4/3 120/4/3 125/4/3
f 127/5/3 96/5/3 110/5/3
f 127/5/3 110/5/3 126/5/3
f 128/7/3 114/7/3 122/7/3
f 128/6/3 122/6/3 121/6/3
f 129/7/3 114/7/3 128/7/3
f 130/8/3 123/8/3 114/8/3
f 130/7/3 114/7/3 129/7/3
f 130/8/3 124/8/3 123/8/3
f 131/8/3 124/8/3 130/8/3
f 132/8/3 106/8/3 124/8/3
f 132/8/3 124/8/3 131/8/3
f 132/7/3 117/7/3 106/7/3
f 132/7/3 118/7/3 117/7/3
f 133/7/3 118/7/3 132/7/3
f 134/4/3 97/4/3 96/4/3
f 134/5/3 96/5/3 127/5/3
f 135/6/3 129/6/3 128/6/3
f 135/4/3 97/4/3 134/4/3
f 135/6/3 111/6/3 97/6/3
f 135/6/3 128/6/3 121/6/3
f 135/6/3 121/6/3 111/6/3
f 136/6/3 129/6/3 135/6/3
f 137/6/3 129/6/3 136/6/3
f 138/7/3 130/7/3 129/7/3
f 138/6/3 129/6/3 137/6/3
f 139/9/3 131/9/3 130/9/3
f 139/7/3 130/7/3 138/7/3
f 140/8/3 132/8/3 131/8/3
f 140/9/3 131/9/3 139/9/3
f 140/8/3 133/8/3 132/8/3
f 141/8/3 133/8/3 140/8/3
f 142/5/3 126/5/3 125/5/3
f 142/4/3 127/4/3 126/4/3
f 143/5/3 134/5/3 127/5/3
f 143/4/3 127/4/3 142/4/3
f 143/5/3 135/5/3 134/5/3
f 144/5/3 135/5/3 143/5/3
f 145/7/3 138/7/3 137/7/3
f 145/6/3 137/6/3 136/6/3
f 145/7/3 139/7/3 138/7/3
f 146/7/3 139/7/3 145/7/3
f 147/9/3 141/9/3 140/9/3
f 147/8/3 140/8/3 139/8/3
f 148/8/3 133/8/3 141/8/3
f 148/9/3 141/9/3 147/9/3
f 149/8/3 133/8/3 148/8/3
f 150/7/3 118/7/3 133/7/3
f 150/8/3 133/8/3 149/8/3
f 151/7/3 139/7/3 146/7/3
f 151/6/3 146/6/3 145/6/3
f 152/7/3 139/7/3 151/7/3
f 153/9/3 149/9/3 148/9/3
f 153/8/3 148/8/3 147/8/3
f 154/7/3 150/7/3 149/7/3
f 154/9/3 149/9/3 153/9/3
f 155/4/3 144/4/3 143/4/3
f 155/5/3 143/5/3 142/5/3
f 156/5/3 135/5/3 144/5/3
f 156/4/3 144/4/3 155/4/3
f 157/4/3 136/4/3 135/4/3
f 157/5/3 135/5/3 156/5/3
f 158/7/3 139/7/3 152/7/3
f 158/6/3 152/6/3 151/6/3
f 159/7/3 139/7/3 158/7/3
f 160/8/3 147/8/3 139/8/3
f 160/7/3 139/7/3 159/7/3
f 160/8/3 153/8/3 147/8/3
f 161/7/3 154/7/3 153/7/3
f 161/8/3 153/8/3 160/8/3
f 162/5/3 156/5/3 155/5/3
f 162/4/3 157/4/3 156/4/3
f 163/4/3 136/4/3 157/4/3
f 163/4/3 157/4/3 162/4/3
f 164/6/3 159/6/3 158/6/3
f 164/6/3 158/6/3 151/6/3
f 165/7/3 160/7/3 159/7/3
f 165/6/3 159/6/3 164/6/3
f 165/7/3 161/7/3 160/7/3
f 166/5/3 142/5/3 125/5/3
f 166/5/3 155/5/3 142/5/3
f 166/5/3 162/5/3 155/5/3
f 166/5/3 163/5/3 162/5/3
f 167/5/3 163/5/3 166/5/3
f 168/7/3 165/7/3 164/7/3
f 168/6/3 164/6/3 151/6/3
f 169/7/3 161/7/3 165/7/3
f 169/7/3 165/7/3 168/7/3
f 170/4/3 167/4/3 166/4/3
f 171/4/3 167/4/3 170/4/3
f 172/4/3 136/4/3 163/4/3
f 172/5/3 163/5/3 167/5/3
f 173/6/3 168/6/3 151/6/3
f 173/4/3 136/4/3 172/4/3
f 173/6/3 151/6/3 145/6/3
f 173/6/3 145/6/3 136/6/3
f 173/6/3 169/6/3 168/6/3
f 174/6/3 169/6/3 173/6/3
f 175/6/3 169/6/3 174/6/3
f 176/7/3 161/7/3 169/7/3
f 176/6/3 169/6/3 175/6/3
f 177/4/3 167/4/3 171/4/3
f 177/5/3 171/5/3 170/5/3
f 178/5/3 172/5/3 167/5/3
f 178/4/3 167/4/3 177/4/3
f 178/5/3 173/5/3 172/5/3
f 179/5/3 173/5/3 178/5/3
f 180/1/3 175/1/3 174/1/3
f 180/4/3 174/4/3 173/4/3
f 181/7/3 176/7/3 175/7/3
f 181/1/3 175/1/3 180/1/3
f 182/7/3 176/7/3 181/7/3
f 183/7/3 161/7/3 176/7/3
f 183/7/3 176/7/3 182/7/3
f 184/7/3 161/7/3 183/7/3
f 185/7/3 150/7/3 154/7/3
f 185/7/3 161/7/3 184/7/3
f 185/7/3 118/7/3 150/7/3
f 185/7/3 154/7/3 161/7/3
f 186/7/3 108/7/3 118/7/3
f 186/7/3 118/7/3 185/7/3
f 187/4/3 179/4/3 178/4/3
f 187/5/3 178/5/3 177/5/3
f 188/5/3 173/5/3 179/5/3
f 188/4/3 179/4/3 187/4/3
f 189/5/3 173/5/3 188/5/3
f 190/4/3 180/4/3 173/4/3
f 190/2/3 181/2/3 180/2/3
f 191/1/3 182/1/3 181/1/3
f 191/2/3 181/2/3 190/2/3
f 192/7/3 183/7/3 182/7/3
f 192/1/3 182/1/3 191/1/3
f 193/7/3 183/7/3 192/7/3
f 194/1/3 184/1/3 183/1/3
f 194/7/3 183/7/3 193/7/3
f 195/7/3 185/7/3 184/7/3
f 195/1/3 184/1/3 194/1/3
f 196/7/3 185/7/3 195/7/3
f 197/7/3 185/7/3 196/7/3
f 198/1/3 186/1/3 185/1/3
f 198/7/3 185/7/3 197/7/3
f 199/7/3 108/7/3 186/7/3
f 199/1/3 186/1/3 198/1/3
f 200/4/3 189/4/3 188/4/3
f 200/5/3 188/5/3 187/5/3
f 201/5/3 173/5/3 189/5/3
f 201/4/3 189/4/3 200/4/3
f 202/4/3 190/4/3 173/4/3
f 202/5/3 173/5/3 201/5/3
f 203/1/3 191/1/3 190/1/3
f 203/2/3 192/2/3 191/2/3
f 204/1/3 193/1/3 192/1/3
f 204/2/3 192/2/3 203/2/3
f 205/1/3 193/1/3 204/1/3
f 206/7/3 194/7/3 193/7/3
f 206/1/3 193/1/3 205/1/3
f 206/7/3 195/7/3 194/7/3
f 207/1/3 196/1/3 195/1/3
f 207/7/3 195/7/3 206/7/3
f 208/7/3 197/7/3 196/7/3
f 208/1/3 196/1/3 207/1/3
f 209/1/3 198/1/3 197/1/3
f 209/7/3 197/7/3 208/7/3
f 210/7/3 199/7/3 198/7/3
f 210/1/3 198/1/3 209/1/3
f 211/5/3 201/5/3 200/5/3
f 211/5/3 177/5/3 170/5/3
f 211/5/3 200/5/3 187/5/3
f 211/5/3 187/5/3 177/5/3
f 212/4/3 202/4/3 201/4/3
f 212/5/3 201/5/3 211/5/3
f 213/1/3 205/1/3 204/1/3
f 213/4/3 202/4/3 212/4/3
f 213/1/3 203/1/3 190/1/3
f 213/1/3 204/1/3 203/1/3
f 213/4/3 190/4/3 202/4/3
f 214/2/3 206/2/3 205/2/3
f 214/1/3 205/1/3 213/1/3
f 215/1/3 207/1/3 206/1/3
f 215/2/3 206/2/3 214/2/3
f 216/2/3 208/2/3 207/2/3
f 216/1/3 207/1/3 215/1/3
f 217/1/3 209/1/3 208/1/3
f 217/2/3 208/2/3 216/2/3
f 218/7/3 210/7/3 209/7/3
f 218/1/3 209/1/3 217/1/3
f 219/7/3 199/7/3 210/7/3
f 219/7/3 210/7/3 218/7/3
f 219/7/3 92/7/3 108/7/3
f 219/7/3 42/7/3 92/7/3
f 219/7/3 108/7/3 199/7/3
f 220/4/4 221/4/4 228/4/4
f 221/6/4 222/6/4 228/6/4
f 228/6/4 222/6/4 229/6/4
f 229/6/4 222/6/4 230/6/4
f 222/7/4 223/7/4 231/7/4
f 230/6/4 222/6/4 231/6/4
f 231/7/4 223/7/4 232/7/4
f 223/3/4 224/3/4 233/3/4
f 232/7/4 223/7/4 233/7/4
f 225/8/4 226/8/4 234/8/4
f 234/8/4 226/8/4 235/8/4
f 226/7/4 227/7/4 236/7/4
f 235/8/4 226/8/4 236/8/4
f 236/7/4 227/7/4 237/7/4
f 220/4/4 228/4/4 238/4/4
f 228/4/4 229/4/4 238/4/4
f 238/4/4 229/4/4 239/4/4
f 229/6/4 230/6/4 240/6/4
f 231/7/4 232/7/4 241/7/4
f 240/6/4 230/6/4 241/6/4
f 230/7/4 231/7/4 241/7/4
f 233/3/4 224/3/4 242/3/4
f 232/3/4 233/3/4 242/3/4
f 224/7/4 225/7/4 243/7/4
f 242/3/4 224/3/4 243/3/4
f 225/8/4 234/8/4 244/8/4
f 243/7/4 225/7/4 244/7/4
f 234/9/4 235/9/4 245/9/4
f 244/8/4 234/8/4 245/8/4
f 236/8/4 237/8/4 246/8/4
f 245/9/4 235/9/4 246/9/4
f 235/8/4 236/8/4 246/8/4
f 237/7/4 227/7/4 247/7/4
f 246/8/4 237/8/4 247/8/4
f 247/7/4 227/7/4 248/7/4
f 239/4/4 229/4/4 249/4/4
f 238/5/4 239/5/4 249/5/4
f 229/6/4 240/6/4 250/6/4
f 249/4/4 229/4/4 250/4/4
f 250/6/4 240/6/4 251/6/4
f 240/7/4 241/7/4 252/7/4
f 251/6/4 240/6/4 252/6/4
f 241/7/4 232/7/4 253/7/4
f 252/7/4 241/7/4 253/7/4
f 232/3/4 242/3/4 254/3/4
f 253/7/4 232/7/4 254/7/4
f 245/8/4 246/8/4 255/8/4
f 247/8/4 248/8/4 255/8/4
f 246/8/4 247/8/4 255/8/4
f 255/8/4 248/8/4 256/8/4
f 250/6/4 251/6/4 257/6/4
f 249/5/4 250/5/4 257/5/4
f 257/6/4 251/6/4 258/6/4
f 251/7/4 252/7/4 259/7/4
f 258/6/4 251/6/4 259/6/4
f 252/7/4 253/7/4 259/7/4
f 259/7/4 253/7/4 260/7/4
f 260/7/4 253/7/4 261/7/4
f 253/3/4 254/3/4 262/3/4
f 261/7/4 253/7/4 262/7/4
f 254/3/4 242/3/4 263/3/4
f 262/3/4 254/3/4 263/3/4
f 243/7/4 244/7/4 264/7/4
f 263/3/4 242/3/4 264/3/4
f 244/7/4 245/7/4 264/7/4
f 242/7/4 243/7/4 264/7/4
f 245/8/4 255/8/4 265/8/4
f 264/7/4 245/7/4 265/7/4
f 255/9/4 256/9/4 266/9/4
f 265/8/4 255/8/4 266/8/4
f 256/8/4 248/8/4 267/8/4
f 266/9/4 256/9/4 267/9/4
f 238/5/4 249/5/4 268/5/4
f 249/5/4 257/5/4 268/5/4
f 268/5/4 257/5/4 269/5/4
f 259/6/4 260/6/4 270/6/4
f 258/6/4 259/6/4 270/6/4
f 260/7/4 261/7/4 271/7/4
f 270/6/4 260/6/4 271/6/4
f 262/3/4 263/3/4 272/3/4
f 261/3/4 262/3/4 272/3/4
f 265/7/4 266/7/4 273/7/4
f 272/3/4 263/3/4 273/3/4
f 264/7/4 265/7/4 273/7/4
f 263/7/4 264/7/4 273/7/4
f 273/7/4 266/7/4 274/7/4
f 274/7/4 266/7/4 275/7/4
f 267/8/4 248/8/4 276/8/4
f 266/8/4 267/8/4 276/8/4
f 248/7/4 227/7/4 277/7/4
f 276/8/4 248/8/4 277/8/4
f 268/4/4 269/4/4 278/4/4
f 269/5/4 257/5/4 279/5/4
f 278/4/4 269/4/4 279/4/4
f 257/4/4 258/4/4 280/4/4
f 279/5/4 257/5/4 280/5/4
f 258/6/4 270/6/4 281/6/4
f 280/4/4 258/4/4 281/4/4
f 281/6/4 270/6/4 282/6/4
f 282/6/4 270/6/4 283/6/4
f 270/7/4 271/7/4 284/7/4
f 283/6/4 270/6/4 284/6/4
f 271/7/4 261/7/4 285/7/4
f 284/7/4 271/7/4 285/7/4
f 261/3/4 272/3/4 285/3/4
f 272/7/4 273/7/4 286/7/4
f 285/3/4 272/3/4 286/3/4
f 273/7/4 274/7/4 286/7/4
f 286/7/4 274/7/4 287/7/4
f 274/8/4 275/8/4 288/8/4
f 287/7/4 274/7/4 288/7/4
f 288/8/4 275/8/4 289/8/4
f 275/7/4 266/7/4 290/7/4
f 289/8/4 275/8/4 290/8/4
f 290/7/4 266/7/4 291/7/4
f 266/8/4 276/8/4 292/8/4
f 276/7/4 277/7/4 293/7/4
f 292/8/4 276/8/4 293/8/4
f 278/5/4 279/5/4 294/5/4
f 279/4/4 280/4/4 294/4/4
f 280/5/4 281/5/4 295/5/4
f 294/4/4 280/4/4 295/4/4
f 283/7/4 284/7/4 296/7/4
f 286/7/4 287/7/4 296/7/4
f 282/6/4 283/6/4 296/6/4
f 284/7/4 285/7/4 296/7/4
f 285/7/4 286/7/4 296/7/4
f 296/7/4 287/7/4 297/7/4
f 287/8/4 288/8/4 298/8/4
f 297/7/4 287/7/4 298/7/4
f 288/9/4 289/9/4 299/9/4
f 298/8/4 288/8/4 299/8/4
f 290/8/4 291/8/4 300/8/4
f 299/9/4 289/9/4 300/9/4
f 289/8/4 290/8/4 300/8/4
f 300/8/4 291/8/4 301/8/4
f 291/7/4 266/7/4 302/7/4
f 266/8/4 292/8/4 302/8/4
f 292/7/4 293/7/4 303/7/4
f 302/8/4 292/8/4 303/8/4
f 294/5/4 295/5/4 304/5/4
f 278/5/4 294/5/4 304/5/4
f 304/5/4 295/5/4 305/5/4
f 297/7/4 298/7/4 306/7/4
f 298/7/4 299/7/4 306/7/4
f 296/6/4 297/6/4 306/6/4
f 306/7/4 299/7/4 307/7/4
f 300/9/4 301/9/4 308/9/4
f 299/8/4 300/8/4 308/8/4
f 301/8/4 291/8/4 309/8/4
f 308/9/4 301/9/4 309/9/4
f 304/4/4 305/4/4 310/4/4
f 305/5/4 295/5/4 311/5/4
f 310/4/4 305/4/4 311/4/4
f 295/5/4 281/5/4 312/5/4
f 311/5/4 295/5/4 312/5/4
f 307/7/4 299/7/4 313/7/4
f 306/6/4 307/6/4 313/6/4
f 313/7/4 299/7/4 314/7/4
f 299/8/4 308/8/4 315/8/4
f 314/7/4 299/7/4 315/7/4
f 308/8/4 309/8/4 315/8/4
f 315/8/4 309/8/4 316/8/4
f 309/8/4 291/8/4 317/8/4
f 316/8/4 309/8/4 317/8/4
f 291/7/4 302/7/4 317/7/4
f 302/7/4 303/7/4 317/7/4
f 317/7/4 303/7/4 318/7/4
f 281/4/4 282/4/4 319/4/4
f 312/5/4 281/5/4 319/5/4
f 313/6/4 314/6/4 320/6/4
f 319/4/4 282/4/4 320/4/4
f 282/6/4 296/6/4 320/6/4
f 306/6/4 313/6/4 320/6/4
f 296/6/4 306/6/4 320/6/4
f 320/6/4 314/6/4 321/6/4
f 321/6/4 314/6/4 322/6/4
f 314/7/4 315/7/4 323/7/4
f 322/6/4 314/6/4 323/6/4
f 315/9/4 316/9/4 324/9/4
f 323/7/4 315/7/4 324/7/4
f 316/8/4 317/8/4 325/8/4
f 324/9/4 316/9/4 325/9/4
f 317/8/4 318/8/4 325/8/4
f 325/8/4 318/8/4 326/8/4
f 310/5/4 311/5/4 327/5/4
f 311/4/4 312/4/4 327/4/4
f 312/5/4 319/5/4 328/5/4
f 327/4/4 312/4/4 328/4/4
f 319/5/4 320/5/4 328/5/4
f 328/5/4 320/5/4 329/5/4
f 322/7/4 323/7/4 330/7/4
f 321/6/4 322/6/4 330/6/4
f 323/7/4 324/7/4 330/7/4
f 330/7/4 324/7/4 331/7/4
f 325/9/4 326/9/4 332/9/4
f 324/8/4 325/8/4 332/8/4
f 326/8/4 318/8/4 333/8/4
f 332/9/4 326/9/4 333/9/4
f 333/8/4 318/8/4 334/8/4
f 318/7/4 303/7/4 335/7/4
f 334/8/4 318/8/4 335/8/4
f 331/7/4 324/7/4 336/7/4
f 330/6/4 331/6/4 336/6/4
f 336/7/4 324/7/4 337/7/4
f 333/9/4 334/9/4 338/9/4
f 332/8/4 333/8/4 338/8/4
f 334/7/4 335/7/4 339/7/4
f 338/9/4 334/9/4 339/9/4
f 328/4/4 329/4/4 340/4/4
f 327/5/4 328/5/4 340/5/4
f 329/5/4 320/5/4 341/5/4
f 340/4/4 329/4/4 341/4/4
f 320/4/4 321/4/4 342/4/4
f 341/5/4 320/5/4 342/5/4
f 337/7/4 324/7/4 343/7/4
f 336/6/4 337/6/4 343/6/4
f 343/7/4 324/7/4 344/7/4
f 324/8/4 332/8/4 345/8/4
f 344/7/4 324/7/4 345/7/4
f 332/8/4 338/8/4 345/8/4
f 338/7/4 339/7/4 346/7/4
f 345/8/4 338/8/4 346/8/4
f 340/5/4 341/5/4 347/5/4
f 341/4/4 342/4/4 347/4/4
f 342/4/4 321/4/4 348/4/4
f 347/4/4 342/4/4 348/4/4
f 343/6/4 344/6/4 349/6/4
f 336/6/4 343/6/4 349/6/4
f 344/7/4 345/7/4 350/7/4
f 349/6/4 344/6/4 350/6/4
f 345/7/4 346/7/4 350/7/4
f 310/5/4 327/5/4 351/5/4
f 327/5/4 340/5/4 351/5/4
f 340/5/4 347/5/4 351/5/4
f 347/5/4 348/5/4 351/5/4
f 351/5/4 348/5/4 352/5/4
f 349/7/4 350/7/4 353/7/4
f 336/6/4 349/6/4 353/6/4
f 350/7/4 346/7/4 354/7/4
f 353/7/4 350/7/4 354/7/4
f 351/4/4 352/4/4 355/4/4
f 355/4/4 352/4/4 356/4/4
f 348/4/4 321/4/4 357/4/4
f 352/5/4 348/5/4 357/5/4
f 336/6/4 353/6/4 358/6/4
f 357/4/4 321/4/4 358/4/4
f 330/6/4 336/6/4 358/6/4
f 321/6/4 330/6/4 358/6/4
f 353/6/4 354/6/4 358/6/4
f 358/6/4 354/6/4 359/6/4
f 359/6/4 354/6/4 360/6/4
f 354/7/4 346/7/4 361/7/4
f 360/6/4 354/6/4 361/6/4
f 356/4/4 352/4/4 362/4/4
f 355/5/4 356/5/4 362/5/4
f 352/5/4 357/5/4 363/5/4
f 362/4/4 352/4/4 363/4/4
f 357/5/4 358/5/4 363/5/4
f 363/5/4 358/5/4 364/5/4
f 359/1/4 360/1/4 365/1/4
f 358/4/4 359/4/4 365/4/4
f 360/7/4 361/7/4 366/7/4
f 365/1/4 360/1/4 366/1/4
f 366/7/4 361/7/4 367/7/4
f 361/7/4 346/7/4 368/7/4
f 367/7/4 361/7/4 368/7/4
f 368/7/4 346/7/4 369/7/4
f 339/7/4 335/7/4 370/7/4
f 369/7/4 346/7/4 370/7/4
f 335/7/4 303/7/4 370/7/4
f 346/7/4 339/7/4 370/7/4
f 303/7/4 293/7/4 371/7/4
f 370/7/4 303/7/4 371/7/4
f 363/4/4 364/4/4 372/4/4
f 362/5/4 363/5/4 372/5/4
f 364/5/4 358/5/4 373/5/4
f 372/4/4 364/4/4 373/4/4
f 373/5/4 358/5/4 374/5/4
f 358/4/4 365/4/4 375/4/4
f 365/2/4 366/2/4 375/2/4
f 366/1/4 367/1/4 376/1/4
f 375/2/4 366/2/4 376/2/4
f 367/7/4 368/7/4 377/7/4
f 376/1/4 367/1/4 377/1/4
f 377/7/4 368/7/4 378/7/4
f 368/1/4 369/1/4 379/1/4
f 378/7/4 368/7/4 379/7/4
f 369/7/4 370/7/4 380/7/4
f 379/1/4 369/1/4 380/1/4
f 380/7/4 370/7/4 381/7/4
f 381/7/4 370/7/4 382/7/4
f 370/1/4 371/1/4 383/1/4
f 382/7/4 370/7/4 383/7/4
f 371/7/4 293/7/4 384/7/4
f 383/1/4 371/1/4 384/1/4
f 373/4/4 374/4/4 385/4/4
f 372/5/4 373/5/4 385/5/4
f 374/5/4 358/5/4 386/5/4
f 385/4/4 374/4/4 386/4/4
f 358/4/4 375/4/4 387/4/4
f 386/5/4 358/5/4 387/5/4
f 375/1/4 376/1/4 388/1/4
f 376/2/4 377/2/4 388/2/4
f 377/1/4 378/1/4 389/1/4
f 388/2/4 377/2/4 389/2/4
f 389/1/4 378/1/4 390/1/4
f 378/7/4 379/7/4 391/7/4
f 390/1/4 378/1/4 391/1/4
f 379/7/4 380/7/4 391/7/4
f 380/1/4 381/1/4 392/1/4
f 391/7/4 380/7/4 392/7/4
f 381/7/4 382/7/4 393/7/4
f 392/1/4 381/1/4 393/1/4
f 382/1/4 383/1/4 394/1/4
f 393/7/4 382/7/4 394/7/4
f 383/7/4 384/7/4 395/7/4
f 394/1/4 383/1/4 395/1/4
f 385/5/4 386/5/4 396/5/4
f 355/5/4 362/5/4 396/5/4
f 372/5/4 385/5/4 396/5/4
f 362/5/4 372/5/4 396/5/4
f 386/4/4 387/4/4 397/4/4
f 396/5/4 386/5/4 397/5/4
f 389/1/4 390/1/4 398/1/4
f 397/4/4 387/4/4 398/4/4
f 375/1/4 388/1/4 398/1/4
f 388/1/4 389/1/4 398/1/4
f 387/4/4 375/4/4 398/4/4
f 390/2/4 391/2/4 399/2/4
f 398/1/4 390/1/4 399/1/4
f 391/1/4 392/1/4 400/1/4
f 399/2/4 391/2/4 400/2/4
f 392/2/4 393/2/4 401/2/4
f 400/1/4 392/1/4 401/1/4
f 393/1/4 394/1/4 402/1/4
f 401/2/4 393/2/4 402/2/4
f 394/7/4 395/7/4 403/7/4
f 402/1/4 394/1/4 403/1/4
f 395/7/4 384/7/4 404/7/4
f 403/7/4 395/7/4 404/7/4
f 293/7/4 277/7/4 404/7/4
f 277/7/4 227/7/4 404/7/4
f 384/7/4 293/7/4 404/7/4
f 414/4/5 406/4/5 405/4/5
f 415/5/5 407/5/5 406/5/5
f 415/4/5 406/4/5 414/4/5
f 416/4/5 408/4/5 407/4/5
f 416/5/5 407/5/5 415/5/5
f 417/5/5 409/5/5 408/5/5
f 417/4/5 408/4/5 416/4/5
f 418/4/5 410/4/5 409/4/5
f 418/5/5 409/5/5 417/5/5
f 419/5/5 411/5/5 410/5/5
f 419/4/5 410/4/5 418/4/5
f 420/4/5 412/4/5 411/4/5
f 420/5/5 411/5/5 419/5/5
f 421/5/5 413/5/5 412/5/5
f 421/4/5 412/4/5 420/4/5
f 422/5/5 413/5/5 421/5/5
f 423/7/6 424/7/6 425/7/6
f 425/7/6 424/7/6 426/7/6
