# MagicaVoxel @ Ephtracy

# group
g tapis_moderne

# material
mtllib tapis_moderne.mtl
usemtl palette

# normals
vn -1 0 0
vn 1 0 0
vn 0 0 1
vn 0 0 -1
vn 0 -1 0
vn 0 1 0

# texcoords
vt 0.00195313 0.5
vt 0.0175781 0.5
vt 0.0488281 0.5
vt 0.138672 0.5
vt 0.166016 0.5
vt 0.373047 0.5
vt 0.591797 0.5
vt 0.630859 0.5
vt 0.697266 0.5
vt 0.751953 0.5
vt 0.853516 0.5
vt 0.908203 0.5
vt 0.927734 0.5
vt 0.994141 0.5

# verts
v -10 0 15
v -10 0 10
v -10 0 9
v -10 0 8
v -10 0 7
v -10 0 -0
v -10 0 -1
v -10 0 -2
v -10 0 -3
v -10 0 -8
v -10 0 -9
v -10 0 -15
v -10 1 15
v -10 1 10
v -10 1 9
v -10 1 8
v -10 1 7
v -10 1 -0
v -10 1 -1
v -10 1 -2
v -10 1 -3
v -10 1 -8
v -10 1 -9
v -10 1 -15
v 10 0 15
v 10 0 10
v 10 0 9
v 10 0 5
v 10 0 4
v 10 0 -5
v 10 0 -6
v 10 0 -15
v 10 1 15
v 10 1 10
v 10 1 9
v 10 1 5
v 10 1 4
v 10 1 -5
v 10 1 -6
v 10 1 -15
v -10 0 15
v -10 1 15
v -5 0 15
v -5 1 15
v -4 0 15
v -4 1 15
v 1 0 15
v 1 1 15
v 2 0 15
v 2 1 15
v 10 0 15
v 10 1 15
v -10 0 -15
v -10 1 -15
v -5 0 -15
v -5 1 -15
v -4 0 -15
v -4 1 -15
v 4 0 -15
v 4 1 -15
v 5 0 -15
v 5 1 -15
v 10 0 -15
v 10 1 -15
v -10 0 15
v -5 0 15
v -4 0 15
v 1 0 15
v 2 0 15
v 10 0 15
v -10 0 10
v -5 0 10
v -4 0 10
v 1 0 10
v 2 0 10
v 10 0 10
v -10 0 9
v 0 0 9
v 1 0 9
v 10 0 9
v -10 0 8
v -7 0 8
v -10 0 7
v -8 0 7
v 1 0 5
v 10 0 5
v 1 0 4
v 10 0 4
v -5 0 1
v 0 0 1
v 1 0 1
v 5 0 1
v -10 0 -0
v -8 0 -0
v -7 0 -0
v -5 0 -0
v -4 0 -0
v 4 0 -0
v -10 0 -1
v -5 0 -1
v -10 0 -2
v -5 0 -2
v -10 0 -3
v -5 0 -3
v 5 0 -5
v 10 0 -5
v 5 0 -6
v 10 0 -6
v -10 0 -8
v -5 0 -8
v -10 0 -9
v -5 0 -9
v -4 0 -10
v 4 0 -10
v -4 0 -11
v 4 0 -11
v -10 0 -15
v -5 0 -15
v -4 0 -15
v 4 0 -15
v 5 0 -15
v 10 0 -15
v -10 1 15
v -5 1 15
v -4 1 15
v 1 1 15
v 2 1 15
v 10 1 15
v -10 1 10
v -5 1 10
v -4 1 10
v 1 1 10
v 2 1 10
v 10 1 10
v -10 1 9
v 0 1 9
v 1 1 9
v 10 1 9
v -10 1 8
v -7 1 8
v -10 1 7
v -8 1 7
v 1 1 5
v 10 1 5
v 1 1 4
v 10 1 4
v -5 1 1
v 0 1 1
v 1 1 1
v 5 1 1
v -10 1 -0
v -8 1 -0
v -7 1 -0
v -5 1 -0
v -4 1 -0
v 4 1 -0
v -10 1 -1
v -5 1 -1
v -10 1 -2
v -5 1 -2
v -10 1 -3
v -5 1 -3
v 5 1 -5
v 10 1 -5
v 5 1 -6
v 10 1 -6
v -10 1 -8
v -5 1 -8
v -10 1 -9
v -5 1 -9
v -4 1 -10
v 4 1 -10
v -4 1 -11
v 4 1 -11
v -10 1 -15
v -5 1 -15
v -4 1 -15
v 4 1 -15
v 5 1 -15
v 10 1 -15

# faces
f 13/2/1 2/2/1 1/2/1
f 14/14/1 3/14/1 2/14/1
f 14/2/1 2/2/1 13/2/1
f 15/8/1 4/8/1 3/8/1
f 15/14/1 3/14/1 14/14/1
f 16/14/1 5/14/1 4/14/1
f 16/8/1 4/8/1 15/8/1
f 17/3/1 6/3/1 5/3/1
f 17/14/1 5/14/1 16/14/1
f 18/14/1 7/14/1 6/14/1
f 18/3/1 6/3/1 17/3/1
f 19/9/1 8/9/1 7/9/1
f 19/14/1 7/14/1 18/14/1
f 20/14/1 9/14/1 8/14/1
f 20/9/1 8/9/1 19/9/1
f 21/6/1 10/6/1 9/6/1
f 21/14/1 9/14/1 20/14/1
f 22/14/1 11/14/1 10/14/1
f 22/6/1 10/6/1 21/6/1
f 23/11/1 12/11/1 11/11/1
f 23/14/1 11/14/1 22/14/1
f 24/11/1 12/11/1 23/11/1
f 25/12/2 26/12/2 33/12/2
f 26/14/2 27/14/2 34/14/2
f 33/12/2 26/12/2 34/12/2
f 27/4/2 28/4/2 35/4/2
f 34/14/2 27/14/2 35/14/2
f 28/14/2 29/14/2 36/14/2
f 35/4/2 28/4/2 36/4/2
f 29/5/2 30/5/2 37/5/2
f 36/14/2 29/14/2 37/14/2
f 30/14/2 31/14/2 38/14/2
f 37/5/2 30/5/2 38/5/2
f 31/13/2 32/13/2 39/13/2
f 38/14/2 31/14/2 39/14/2
f 39/13/2 32/13/2 40/13/2
f 43/2/3 42/2/3 41/2/3
f 44/2/3 42/2/3 43/2/3
f 45/14/3 44/14/3 43/14/3
f 46/14/3 44/14/3 45/14/3
f 47/7/3 46/7/3 45/7/3
f 48/7/3 46/7/3 47/7/3
f 49/14/3 48/14/3 47/14/3
f 50/14/3 48/14/3 49/14/3
f 51/12/3 50/12/3 49/12/3
f 52/12/3 50/12/3 51/12/3
f 53/11/4 54/11/4 55/11/4
f 55/11/4 54/11/4 56/11/4
f 55/14/4 56/14/4 57/14/4
f 57/14/4 56/14/4 58/14/4
f 57/1/4 58/1/4 59/1/4
f 59/1/4 58/1/4 60/1/4
f 59/14/4 60/14/4 61/14/4
f 61/14/4 60/14/4 62/14/4
f 61/13/4 62/13/4 63/13/4
f 63/13/4 62/13/4 64/13/4
f 71/2/5 66/2/5 65/2/5
f 72/14/5 67/14/5 66/14/5
f 72/2/5 66/2/5 71/2/5
f 73/7/5 68/7/5 67/7/5
f 73/14/5 67/14/5 72/14/5
f 74/14/5 69/14/5 68/14/5
f 74/7/5 68/7/5 73/7/5
f 75/12/5 70/12/5 69/12/5
f 75/14/5 69/14/5 74/14/5
f 76/12/5 70/12/5 75/12/5
f 77/14/5 74/14/5 73/14/5
f 77/14/5 72/14/5 71/14/5
f 77/14/5 76/14/5 75/14/5
f 77/14/5 75/14/5 74/14/5
f 77/14/5 73/14/5 72/14/5
f 78/14/5 76/14/5 77/14/5
f 79/14/5 76/14/5 78/14/5
f 80/14/5 76/14/5 79/14/5
f 81/8/5 78/8/5 77/8/5
f 82/8/5 78/8/5 81/8/5
f 83/14/5 82/14/5 81/14/5
f 84/14/5 82/14/5 83/14/5
f 85/14/5 79/14/5 78/14/5
f 85/4/5 80/4/5 79/4/5
f 86/4/5 80/4/5 85/4/5
f 87/14/5 85/14/5 78/14/5
f 87/14/5 86/14/5 85/14/5
f 88/14/5 86/14/5 87/14/5
f 89/8/5 78/8/5 82/8/5
f 90/14/5 87/14/5 78/14/5
f 90/8/5 78/8/5 89/8/5
f 91/5/5 88/5/5 87/5/5
f 91/14/5 87/14/5 90/14/5
f 92/5/5 88/5/5 91/5/5
f 93/3/5 84/3/5 83/3/5
f 94/14/5 82/14/5 84/14/5
f 94/3/5 84/3/5 93/3/5
f 95/8/5 89/8/5 82/8/5
f 95/14/5 82/14/5 94/14/5
f 96/14/5 90/14/5 89/14/5
f 96/8/5 89/8/5 95/8/5
f 96/14/5 91/14/5 90/14/5
f 96/14/5 92/14/5 91/14/5
f 97/14/5 92/14/5 96/14/5
f 98/14/5 92/14/5 97/14/5
f 99/14/5 94/14/5 93/14/5
f 99/14/5 95/14/5 94/14/5
f 99/14/5 96/14/5 95/14/5
f 99/14/5 97/14/5 96/14/5
f 100/14/5 97/14/5 99/14/5
f 101/9/5 100/9/5 99/9/5
f 102/14/5 97/14/5 100/14/5
f 102/9/5 100/9/5 101/9/5
f 103/14/5 102/14/5 101/14/5
f 104/14/5 97/14/5 102/14/5
f 104/14/5 102/14/5 103/14/5
f 105/5/5 88/5/5 92/5/5
f 105/14/5 92/14/5 98/14/5
f 106/5/5 88/5/5 105/5/5
f 107/14/5 105/14/5 98/14/5
f 107/14/5 106/14/5 105/14/5
f 108/14/5 106/14/5 107/14/5
f 109/6/5 104/6/5 103/6/5
f 110/14/5 97/14/5 104/14/5
f 110/6/5 104/6/5 109/6/5
f 111/14/5 110/14/5 109/14/5
f 112/14/5 97/14/5 110/14/5
f 112/14/5 110/14/5 111/14/5
f 113/10/5 98/10/5 97/10/5
f 113/14/5 97/14/5 112/14/5
f 114/14/5 107/14/5 98/14/5
f 114/10/5 98/10/5 113/10/5
f 115/14/5 113/14/5 112/14/5
f 115/14/5 114/14/5 113/14/5
f 116/14/5 107/14/5 114/14/5
f 116/14/5 114/14/5 115/14/5
f 117/11/5 112/11/5 111/11/5
f 118/14/5 115/14/5 112/14/5
f 118/11/5 112/11/5 117/11/5
f 119/1/5 116/1/5 115/1/5
f 119/14/5 115/14/5 118/14/5
f 120/14/5 107/14/5 116/14/5
f 120/1/5 116/1/5 119/1/5
f 121/13/5 108/13/5 107/13/5
f 121/14/5 107/14/5 120/14/5
f 122/13/5 108/13/5 121/13/5
f 123/2/6 124/2/6 129/2/6
f 124/14/6 125/14/6 130/14/6
f 129/2/6 124/2/6 130/2/6
f 125/7/6 126/7/6 131/7/6
f 130/14/6 125/14/6 131/14/6
f 126/14/6 127/14/6 132/14/6
f 131/7/6 126/7/6 132/7/6
f 127/12/6 128/12/6 133/12/6
f 132/14/6 127/14/6 133/14/6
f 133/12/6 128/12/6 134/12/6
f 131/14/6 132/14/6 135/14/6
f 129/14/6 130/14/6 135/14/6
f 133/14/6 134/14/6 135/14/6
f 132/14/6 133/14/6 135/14/6
f 130/14/6 131/14/6 135/14/6
f 135/14/6 134/14/6 136/14/6
f 136/14/6 134/14/6 137/14/6
f 137/14/6 134/14/6 138/14/6
f 135/8/6 136/8/6 139/8/6
f 139/8/6 136/8/6 140/8/6
f 139/14/6 140/14/6 141/14/6
f 141/14/6 140/14/6 142/14/6
f 136/14/6 137/14/6 143/14/6
f 137/4/6 138/4/6 143/4/6
f 143/4/6 138/4/6 144/4/6
f 136/14/6 143/14/6 145/14/6
f 143/14/6 144/14/6 145/14/6
f 145/14/6 144/14/6 146/14/6
f 140/8/6 136/8/6 147/8/6
f 136/14/6 145/14/6 148/14/6
f 147/8/6 136/8/6 148/8/6
f 145/5/6 146/5/6 149/5/6
f 148/14/6 145/14/6 149/14/6
f 149/5/6 146/5/6 150/5/6
f 141/3/6 142/3/6 151/3/6
f 142/14/6 140/14/6 152/14/6
f 151/3/6 142/3/6 152/3/6
f 140/8/6 147/8/6 153/8/6
f 152/14/6 140/14/6 153/14/6
f 147/14/6 148/14/6 154/14/6
f 153/8/6 147/8/6 154/8/6
f 148/14/6 149/14/6 154/14/6
f 149/14/6 150/14/6 154/14/6
f 154/14/6 150/14/6 155/14/6
f 155/14/6 150/14/6 156/14/6
f 151/14/6 152/14/6 157/14/6
f 152/14/6 153/14/6 157/14/6
f 153/14/6 154/14/6 157/14/6
f 154/14/6 155/14/6 157/14/6
f 157/14/6 155/14/6 158/14/6
f 157/9/6 158/9/6 159/9/6
f 158/14/6 155/14/6 160/14/6
f 159/9/6 158/9/6 160/9/6
f 159/14/6 160/14/6 161/14/6
f 160/14/6 155/14/6 162/14/6
f 161/14/6 160/14/6 162/14/6
f 150/5/6 146/5/6 163/5/6
f 156/14/6 150/14/6 163/14/6
f 163/5/6 146/5/6 164/5/6
f 156/14/6 163/14/6 165/14/6
f 163/14/6 164/14/6 165/14/6
f 165/14/6 164/14/6 166/14/6
f 161/6/6 162/6/6 167/6/6
f 162/14/6 155/14/6 168/14/6
f 167/6/6 162/6/6 168/6/6
f 167/14/6 168/14/6 169/14/6
f 168/14/6 155/14/6 170/14/6
f 169/14/6 168/14/6 170/14/6
f 155/10/6 156/10/6 171/10/6
f 170/14/6 155/14/6 171/14/6
f 156/14/6 165/14/6 172/14/6
f 171/10/6 156/10/6 172/10/6
f 170/14/6 171/14/6 173/14/6
f 171/14/6 172/14/6 173/14/6
f 172/14/6 165/14/6 174/14/6
f 173/14/6 172/14/6 174/14/6
f 169/11/6 170/11/6 175/11/6
f 170/14/6 173/14/6 176/14/6
f 175/11/6 170/11/6 176/11/6
f 173/1/6 174/1/6 177/1/6
f 176/14/6 173/14/6 177/14/6
f 174/14/6 165/14/6 178/14/6
f 177/1/6 174/1/6 178/1/6
f 165/13/6 166/13/6 179/13/6
f 178/14/6 165/14/6 179/14/6
f 179/13/6 166/13/6 180/13/6
