# MagicaVoxel @ Ephtracy

# group
o 

# material
mtllib perso 2.mtl
usemtl palette

# normals
vn -1 0 0
vn 1 0 0
vn 0 0 1
vn 0 0 -1
vn 0 -1 0
vn 0 1 0

# texcoords
vt 0.0136719 0.5
vt 0.0332031 0.5
vt 0.0605469 0.5
vt 0.224609 0.5
vt 0.275391 0.5
vt 0.634766 0.5
vt 0.873047 0.5
vt 0.966797 0.5
vt 0.978516 0.5
vt 0.994141 0.5

# verts
v -0.6 0.1 0
v -0.6 0.1 -0.1
v -0.6 0.2 0
v -0.6 0.2 -0.1
v -0.3 0.4 0.1
v -0.3 0.4 -0.2
v -0.3 0.5 -0.2
v -0.3 0.5 -0.3
v -0.3 0.6 0.2
v -0.3 0.6 0.1
v -0.3 0.7 0.2
v -0.3 0.7 0.1
v -0.3 0.8 0.1
v -0.3 0.8 -0.3
v -0.2 -0.4 0
v -0.2 -0.4 -0.1
v -0.2 -0.3 0
v -0.2 -0.3 -0.1
v -0.2 -0.2 0.1
v -0.2 -0.2 0
v -0.2 -0.2 -0.1
v -0.2 -0.2 -0.2
v -0.2 0.1 0.1
v -0.2 0.1 0
v -0.2 0.1 -0.1
v -0.2 0.2 0.1
v -0.2 0.2 0
v -0.2 0.2 -0.1
v -0.2 0.2 -0.2
v -0.2 0.4 0.1
v -0.2 0.4 -0.2
v -0.2 0.4 -0.3
v -0.2 0.5 -0.2
v -0.2 0.5 -0.3
v -0.2 0.7 0.2
v -0.2 0.7 0.1
v -0.2 0.8 0.2
v -0.2 0.8 0.1
v 0.1 -0.4 0
v 0.1 -0.4 -0.1
v 0.1 -0.3 0
v 0.1 -0.3 -0.1
v 0.1 -0.2 0
v 0.1 -0.2 -0.1
v -0.1 -0.4 0
v -0.1 -0.4 -0.1
v -0.1 -0.3 0
v -0.1 -0.3 -0.1
v -0.1 -0.2 0
v -0.1 -0.2 -0.1
v 0.2 -0.4 0
v 0.2 -0.4 -0.1
v 0.2 -0.3 0
v 0.2 -0.3 -0.1
v 0.2 -0.2 0.1
v 0.2 -0.2 0
v 0.2 -0.2 -0.1
v 0.2 -0.2 -0.2
v 0.2 0.1 0.1
v 0.2 0.1 0
v 0.2 0.1 -0.1
v 0.2 0.2 0.1
v 0.2 0.2 0
v 0.2 0.2 -0.1
v 0.2 0.2 -0.2
v 0.2 0.4 0.1
v 0.2 0.4 -0.2
v 0.2 0.4 -0.3
v 0.2 0.5 -0.2
v 0.2 0.5 -0.3
v 0.2 0.7 0.2
v 0.2 0.7 0.1
v 0.2 0.8 0.2
v 0.2 0.8 0.1
v 0.3 0.4 0.1
v 0.3 0.4 -0.2
v 0.3 0.5 -0.2
v 0.3 0.5 -0.3
v 0.3 0.6 0.2
v 0.3 0.6 0.1
v 0.3 0.7 0.2
v 0.3 0.7 0.1
v 0.3 0.8 0.1
v 0.3 0.8 -0.3
v 0.6 0.1 0
v 0.6 0.1 -0.1
v 0.6 0.2 0
v 0.6 0.2 -0.1
v -0.3 0.6 0.2
v -0.3 0.7 0.2
v -0.2 0.7 0.2
v -0.2 0.8 0.2
v 0 0.6 0.2
v 0 0.8 0.2
v 0.2 0.7 0.2
v 0.2 0.8 0.2
v 0.3 0.6 0.2
v 0.3 0.7 0.2
v -0.3 0.4 0.1
v -0.3 0.6 0.1
v -0.3 0.7 0.1
v -0.3 0.8 0.1
v -0.2 -0.2 0.1
v -0.2 0.1 0.1
v -0.2 0.2 0.1
v -0.2 0.4 0.1
v -0.2 0.5 0.1
v -0.2 0.6 0.1
v -0.2 0.7 0.1
v -0.2 0.8 0.1
v -0.1 0 0.1
v -0.1 0.1 0.1
v -0.1 0.2 0.1
v -0.1 0.4 0.1
v -0.1 0.5 0.1
v 0 -0.2 0.1
v 0 0 0.1
v 0 0.6 0.1
v 0.1 0 0.1
v 0.1 0.1 0.1
v 0.1 0.2 0.1
v 0.1 0.4 0.1
v 0.1 0.5 0.1
v 0.2 -0.2 0.1
v 0.2 0.1 0.1
v 0.2 0.2 0.1
v 0.2 0.4 0.1
v 0.2 0.5 0.1
v 0.2 0.6 0.1
v 0.2 0.7 0.1
v 0.2 0.8 0.1
v 0.3 0.4 0.1
v 0.3 0.6 0.1
v 0.3 0.7 0.1
v 0.3 0.8 0.1
v -0.6 0.1 0
v -0.6 0.2 0
v -0.5 0.1 0
v -0.5 0.2 0
v -0.4 0.1 0
v -0.4 0.2 0
v -0.2 -0.4 0
v -0.2 -0.3 0
v -0.2 -0.2 0
v -0.2 0.1 0
v -0.2 0.2 0
v -0.1 -0.4 0
v -0.1 -0.3 0
v -0.1 -0.2 0
v 0.1 -0.4 0
v 0.1 -0.3 0
v 0.1 -0.2 0
v 0.2 -0.4 0
v 0.2 -0.3 0
v 0.2 -0.2 0
v 0.2 0.1 0
v 0.2 0.2 0
v 0.4 0.1 0
v 0.4 0.2 0
v 0.5 0.1 0
v 0.5 0.2 0
v 0.6 0.1 0
v 0.6 0.2 0
v -0.6 0.1 -0.1
v -0.6 0.2 -0.1
v -0.5 0.1 -0.1
v -0.5 0.2 -0.1
v -0.4 0.1 -0.1
v -0.4 0.2 -0.1
v -0.2 -0.4 -0.1
v -0.2 -0.3 -0.1
v -0.2 -0.2 -0.1
v -0.2 0.1 -0.1
v -0.2 0.2 -0.1
v -0.1 -0.4 -0.1
v -0.1 -0.3 -0.1
v -0.1 -0.2 -0.1
v 0.1 -0.4 -0.1
v 0.1 -0.3 -0.1
v 0.1 -0.2 -0.1
v 0.2 -0.4 -0.1
v 0.2 -0.3 -0.1
v 0.2 -0.2 -0.1
v 0.2 0.1 -0.1
v 0.2 0.2 -0.1
v 0.4 0.1 -0.1
v 0.4 0.2 -0.1
v 0.5 0.1 -0.1
v 0.5 0.2 -0.1
v 0.6 0.1 -0.1
v 0.6 0.2 -0.1
v -0.3 0.4 -0.2
v -0.3 0.5 -0.2
v -0.2 -0.2 -0.2
v -0.2 0.2 -0.2
v -0.2 0.4 -0.2
v -0.2 0.5 -0.2
v 0.2 -0.2 -0.2
v 0.2 0.2 -0.2
v 0.2 0.4 -0.2
v 0.2 0.5 -0.2
v 0.3 0.4 -0.2
v 0.3 0.5 -0.2
v -0.3 0.5 -0.3
v -0.3 0.8 -0.3
v -0.2 0.4 -0.3
v -0.2 0.5 -0.3
v 0.2 0.4 -0.3
v 0.2 0.5 -0.3
v 0.3 0.5 -0.3
v 0.3 0.8 -0.3
v -0.2 -0.4 0
v -0.1 -0.4 0
v 0.1 -0.4 0
v 0.2 -0.4 0
v -0.2 -0.4 -0.1
v -0.1 -0.4 -0.1
v 0.1 -0.4 -0.1
v 0.2 -0.4 -0.1
v -0.2 -0.2 0.1
v 0 -0.2 0.1
v 0.2 -0.2 0.1
v -0.2 -0.2 0
v -0.1 -0.2 0
v 0 -0.2 0
v 0.1 -0.2 0
v 0.2 -0.2 0
v -0.2 -0.2 -0.1
v -0.1 -0.2 -0.1
v 0.1 -0.2 -0.1
v 0.2 -0.2 -0.1
v -0.2 -0.2 -0.2
v 0.2 -0.2 -0.2
v -0.6 0.1 0
v -0.5 0.1 0
v -0.4 0.1 0
v -0.2 0.1 0
v 0.2 0.1 0
v 0.4 0.1 0
v 0.5 0.1 0
v 0.6 0.1 0
v -0.6 0.1 -0.1
v -0.5 0.1 -0.1
v -0.4 0.1 -0.1
v -0.2 0.1 -0.1
v 0.2 0.1 -0.1
v 0.4 0.1 -0.1
v 0.5 0.1 -0.1
v 0.6 0.1 -0.1
v -0.3 0.4 0.1
v -0.2 0.4 0.1
v 0.2 0.4 0.1
v 0.3 0.4 0.1
v -0.3 0.4 -0.2
v -0.2 0.4 -0.2
v 0.2 0.4 -0.2
v 0.3 0.4 -0.2
v -0.2 0.4 -0.3
v 0.2 0.4 -0.3
v -0.3 0.5 -0.2
v -0.2 0.5 -0.2
v 0.2 0.5 -0.2
v 0.3 0.5 -0.2
v -0.3 0.5 -0.3
v -0.2 0.5 -0.3
v 0.2 0.5 -0.3
v 0.3 0.5 -0.3
v -0.3 0.6 0.2
v 0 0.6 0.2
v 0.3 0.6 0.2
v -0.3 0.6 0.1
v -0.2 0.6 0.1
v 0 0.6 0.1
v 0.2 0.6 0.1
v 0.3 0.6 0.1
v -0.6 0.2 0
v -0.5 0.2 0
v -0.4 0.2 0
v -0.2 0.2 0
v 0.2 0.2 0
v 0.4 0.2 0
v 0.5 0.2 0
v 0.6 0.2 0
v -0.6 0.2 -0.1
v -0.5 0.2 -0.1
v -0.4 0.2 -0.1
v -0.2 0.2 -0.1
v 0.2 0.2 -0.1
v 0.4 0.2 -0.1
v 0.5 0.2 -0.1
v 0.6 0.2 -0.1
v -0.3 0.7 0.2
v -0.2 0.7 0.2
v 0.2 0.7 0.2
v 0.3 0.7 0.2
v -0.3 0.7 0.1
v -0.2 0.7 0.1
v 0.2 0.7 0.1
v 0.3 0.7 0.1
v -0.2 0.8 0.2
v 0 0.8 0.2
v 0.2 0.8 0.2
v -0.3 0.8 0.1
v -0.2 0.8 0.1
v 0 0.8 0.1
v 0.2 0.8 0.1
v 0.3 0.8 0.1
v -0.3 0.8 -0.3
v 0.3 0.8 -0.3

# faces
f 3/2/1 2/2/1 1/2/1
f 4/2/1 2/2/1 3/2/1
f 7/4/1 6/4/1 5/4/1
f 10/4/1 7/4/1 5/4/1
f 10/4/1 8/4/1 7/4/1
f 11/5/1 10/5/1 9/5/1
f 12/4/1 8/4/1 10/4/1
f 12/5/1 10/5/1 11/5/1
f 13/4/1 8/4/1 12/4/1
f 14/4/1 8/4/1 13/4/1
f 17/10/1 16/10/1 15/10/1
f 18/10/1 16/10/1 17/10/1
f 20/9/1 18/9/1 17/9/1
f 21/9/1 18/9/1 20/9/1
f 23/10/1 21/10/1 20/10/1
f 23/10/1 20/10/1 19/10/1
f 24/10/1 21/10/1 23/10/1
f 25/5/1 22/5/1 21/5/1
f 25/10/1 21/10/1 24/10/1
f 26/8/1 24/8/1 23/8/1
f 27/8/1 24/8/1 26/8/1
f 28/5/1 22/5/1 25/5/1
f 29/5/1 22/5/1 28/5/1
f 30/2/1 27/2/1 26/2/1
f 30/2/1 28/2/1 27/2/1
f 30/2/1 29/2/1 28/2/1
f 31/2/1 29/2/1 30/2/1
f 33/4/1 32/4/1 31/4/1
f 34/4/1 32/4/1 33/4/1
f 37/5/1 36/5/1 35/5/1
f 38/5/1 36/5/1 37/5/1
f 41/10/1 40/10/1 39/10/1
f 42/10/1 40/10/1 41/10/1
f 43/9/1 42/9/1 41/9/1
f 44/9/1 42/9/1 43/9/1
f 45/10/2 46/10/2 47/10/2
f 47/10/2 46/10/2 48/10/2
f 47/9/2 48/9/2 49/9/2
f 49/9/2 48/9/2 50/9/2
f 51/10/2 52/10/2 53/10/2
f 53/10/2 52/10/2 54/10/2
f 53/9/2 54/9/2 56/9/2
f 56/9/2 54/9/2 57/9/2
f 56/5/2 57/5/2 59/5/2
f 57/5/2 58/5/2 59/5/2
f 55/5/2 56/5/2 59/5/2
f 59/5/2 58/5/2 60/5/2
f 60/5/2 58/5/2 61/5/2
f 59/8/2 60/8/2 62/8/2
f 62/8/2 60/8/2 63/8/2
f 61/5/2 58/5/2 64/5/2
f 64/5/2 58/5/2 65/5/2
f 62/2/2 63/2/2 66/2/2
f 63/2/2 64/2/2 66/2/2
f 64/2/2 65/2/2 66/2/2
f 66/2/2 65/2/2 67/2/2
f 67/4/2 68/4/2 69/4/2
f 69/4/2 68/4/2 70/4/2
f 71/4/2 72/4/2 73/4/2
f 73/4/2 72/4/2 74/4/2
f 75/4/2 76/4/2 77/4/2
f 75/4/2 77/4/2 80/4/2
f 77/4/2 78/4/2 80/4/2
f 79/4/2 80/4/2 81/4/2
f 80/4/2 78/4/2 82/4/2
f 81/4/2 80/4/2 82/4/2
f 82/4/2 78/4/2 83/4/2
f 83/4/2 78/4/2 84/4/2
f 85/2/2 86/2/2 87/2/2
f 87/2/2 86/2/2 88/2/2
f 91/5/3 90/5/3 89/5/3
f 93/5/3 91/5/3 89/5/3
f 93/5/3 92/5/3 91/5/3
f 94/5/3 92/5/3 93/5/3
f 95/4/3 94/4/3 93/4/3
f 96/4/3 94/4/3 95/4/3
f 97/4/3 95/4/3 93/4/3
f 98/4/3 95/4/3 97/4/3
f 106/4/3 100/4/3 99/4/3
f 107/4/3 100/4/3 106/4/3
f 108/4/3 100/4/3 107/4/3
f 109/4/3 102/4/3 101/4/3
f 110/4/3 102/4/3 109/4/3
f 111/10/3 104/10/3 103/10/3
f 112/8/3 105/8/3 104/8/3
f 112/10/3 104/10/3 111/10/3
f 113/2/3 106/2/3 105/2/3
f 113/8/3 105/8/3 112/8/3
f 114/7/3 107/7/3 106/7/3
f 114/2/3 106/2/3 113/2/3
f 115/3/3 108/3/3 107/3/3
f 115/7/3 107/7/3 114/7/3
f 116/10/3 111/10/3 103/10/3
f 117/8/3 112/8/3 111/8/3
f 117/10/3 111/10/3 116/10/3
f 118/3/3 108/3/3 115/3/3
f 119/8/3 112/8/3 117/8/3
f 119/5/3 117/5/3 116/5/3
f 120/2/3 114/2/3 113/2/3
f 120/8/3 112/8/3 119/8/3
f 120/2/3 113/2/3 112/2/3
f 120/2/3 115/2/3 114/2/3
f 121/2/3 115/2/3 120/2/3
f 122/2/3 115/2/3 121/2/3
f 123/3/3 118/3/3 115/3/3
f 123/2/3 115/2/3 122/2/3
f 124/5/3 119/5/3 116/5/3
f 124/5/3 120/5/3 119/5/3
f 125/8/3 121/8/3 120/8/3
f 125/5/3 120/5/3 124/5/3
f 126/2/3 122/2/3 121/2/3
f 126/8/3 121/8/3 125/8/3
f 127/7/3 123/7/3 122/7/3
f 127/2/3 122/2/3 126/2/3
f 128/3/3 118/3/3 123/3/3
f 128/7/3 123/7/3 127/7/3
f 129/3/3 118/3/3 128/3/3
f 132/4/3 129/4/3 128/4/3
f 132/4/3 128/4/3 127/4/3
f 133/4/3 129/4/3 132/4/3
f 134/4/3 131/4/3 130/4/3
f 135/4/3 131/4/3 134/4/3
f 138/2/3 137/2/3 136/2/3
f 139/2/3 137/2/3 138/2/3
f 140/8/3 139/8/3 138/8/3
f 141/8/3 139/8/3 140/8/3
f 145/10/3 141/10/3 140/10/3
f 146/10/3 141/10/3 145/10/3
f 147/10/3 143/10/3 142/10/3
f 148/9/3 144/9/3 143/9/3
f 148/10/3 143/10/3 147/10/3
f 149/9/3 144/9/3 148/9/3
f 153/10/3 151/10/3 150/10/3
f 154/9/3 152/9/3 151/9/3
f 154/10/3 151/10/3 153/10/3
f 155/9/3 152/9/3 154/9/3
f 158/5/3 157/5/3 156/5/3
f 159/5/3 157/5/3 158/5/3
f 160/8/3 159/8/3 158/8/3
f 161/8/3 159/8/3 160/8/3
f 162/2/3 161/2/3 160/2/3
f 163/2/3 161/2/3 162/2/3
f 164/2/4 165/2/4 166/2/4
f 166/2/4 165/2/4 167/2/4
f 166/8/4 167/8/4 168/8/4
f 168/8/4 167/8/4 169/8/4
f 168/10/4 169/10/4 173/10/4
f 173/10/4 169/10/4 174/10/4
f 170/10/4 171/10/4 175/10/4
f 171/9/4 172/9/4 176/9/4
f 175/10/4 171/10/4 176/10/4
f 176/9/4 172/9/4 177/9/4
f 178/10/4 179/10/4 181/10/4
f 179/9/4 180/9/4 182/9/4
f 181/10/4 179/10/4 182/10/4
f 182/9/4 180/9/4 183/9/4
f 184/5/4 185/5/4 186/5/4
f 186/5/4 185/5/4 187/5/4
f 186/8/4 187/8/4 188/8/4
f 188/8/4 187/8/4 189/8/4
f 188/2/4 189/2/4 190/2/4
f 190/2/4 189/2/4 191/2/4
f 192/4/4 193/4/4 196/4/4
f 196/4/4 193/4/4 197/4/4
f 194/5/4 195/5/4 198/5/4
f 195/2/4 196/2/4 199/2/4
f 198/5/4 195/5/4 199/5/4
f 199/2/4 196/2/4 200/2/4
f 200/4/4 201/4/4 202/4/4
f 202/4/4 201/4/4 203/4/4
f 204/4/4 205/4/4 207/4/4
f 206/4/4 207/4/4 208/4/4
f 207/4/4 205/4/4 209/4/4
f 208/4/4 207/4/4 209/4/4
f 209/4/4 205/4/4 210/4/4
f 210/4/4 205/4/4 211/4/4
f 216/10/5 213/10/5 212/10/5
f 217/10/5 213/10/5 216/10/5
f 218/10/5 215/10/5 214/10/5
f 219/10/5 215/10/5 218/10/5
f 223/10/5 221/10/5 220/10/5
f 224/10/5 221/10/5 223/10/5
f 225/5/5 222/5/5 221/5/5
f 225/10/5 221/10/5 224/10/5
f 226/5/5 222/5/5 225/5/5
f 227/5/5 222/5/5 226/5/5
f 229/9/5 225/9/5 224/9/5
f 229/9/5 226/9/5 225/9/5
f 230/9/5 226/9/5 229/9/5
f 232/5/5 229/5/5 228/5/5
f 232/5/5 231/5/5 230/5/5
f 232/5/5 230/5/5 229/5/5
f 233/5/5 231/5/5 232/5/5
f 242/2/5 235/2/5 234/2/5
f 243/8/5 236/8/5 235/8/5
f 243/2/5 235/2/5 242/2/5
f 244/10/5 237/10/5 236/10/5
f 244/8/5 236/8/5 243/8/5
f 245/10/5 237/10/5 244/10/5
f 246/5/5 239/5/5 238/5/5
f 247/8/5 240/8/5 239/8/5
f 247/5/5 239/5/5 246/5/5
f 248/2/5 241/2/5 240/2/5
f 248/8/5 240/8/5 247/8/5
f 249/2/5 241/2/5 248/2/5
f 254/4/5 251/4/5 250/4/5
f 255/4/5 251/4/5 254/4/5
f 256/4/5 253/4/5 252/4/5
f 257/4/5 253/4/5 256/4/5
f 258/4/5 256/4/5 255/4/5
f 259/4/5 256/4/5 258/4/5
f 264/4/5 261/4/5 260/4/5
f 265/4/5 261/4/5 264/4/5
f 266/4/5 263/4/5 262/4/5
f 267/4/5 263/4/5 266/4/5
f 271/5/5 269/5/5 268/5/5
f 272/5/5 269/5/5 271/5/5
f 273/4/5 270/4/5 269/4/5
f 273/5/5 269/5/5 272/5/5
f 274/4/5 270/4/5 273/4/5
f 275/4/5 270/4/5 274/4/5
f 276/2/6 277/2/6 284/2/6
f 277/8/6 278/8/6 285/8/6
f 284/2/6 277/2/6 285/2/6
f 278/10/6 279/10/6 286/10/6
f 285/8/6 278/8/6 286/8/6
f 286/10/6 279/10/6 287/10/6
f 280/5/6 281/5/6 288/5/6
f 281/8/6 282/8/6 289/8/6
f 288/5/6 281/5/6 289/5/6
f 282/2/6 283/2/6 290/2/6
f 289/8/6 282/8/6 290/8/6
f 290/2/6 283/2/6 291/2/6
f 292/5/6 293/5/6 296/5/6
f 296/5/6 293/5/6 297/5/6
f 294/4/6 295/4/6 298/4/6
f 298/4/6 295/4/6 299/4/6
f 300/5/6 301/5/6 304/5/6
f 301/4/6 302/4/6 305/4/6
f 304/5/6 301/5/6 305/5/6
f 305/4/6 302/4/6 306/4/6
f 303/4/6 304/4/6 308/4/6
f 306/4/6 307/4/6 308/4/6
f 305/4/6 306/4/6 308/4/6
f 304/4/6 305/4/6 308/4/6
f 308/4/6 307/4/6 309/4/6
