# MagicaVoxel @ Ephtracy

# group
o 

# material
mtllib perso 1V2.mtl
usemtl palette

# normals
vn -1 0 0
vn 1 0 0
vn 0 0 1
vn 0 0 -1
vn 0 -1 0
vn 0 1 0

# texcoords
vt 0.0136719 0.5
vt 0.0332031 0.5
vt 0.0605469 0.5
vt 0.634766 0.5
vt 0.693359 0.5
vt 0.837891 0.5
vt 0.962891 0.5
vt 0.966797 0.5
vt 0.994141 0.5

# verts
v -0.6 0.1 0
v -0.6 0.1 -0.1
v -0.6 0.2 0
v -0.6 0.2 -0.1
v -0.3 0.4 0.1
v -0.3 0.4 -0.2
v -0.3 0.5 -0.2
v -0.3 0.5 -0.3
v -0.3 0.6 0.2
v -0.3 0.6 0.1
v -0.3 0.7 0.2
v -0.3 0.7 0.1
v -0.3 0.8 0.1
v -0.3 0.8 -0.3
v -0.2 -0.4 0
v -0.2 -0.4 -0.1
v -0.2 -0.3 0
v -0.2 -0.3 -0.1
v -0.2 -0.2 0.1
v -0.2 -0.2 0
v -0.2 -0.2 -0.1
v -0.2 -0.2 -0.2
v -0.2 0.1 0.1
v -0.2 0.1 0
v -0.2 0.1 -0.1
v -0.2 0.2 0.1
v -0.2 0.2 0
v -0.2 0.2 -0.1
v -0.2 0.2 -0.2
v -0.2 0.4 0.1
v -0.2 0.4 -0.2
v -0.2 0.4 -0.3
v -0.2 0.5 -0.2
v -0.2 0.5 -0.3
v -0.2 0.7 0.2
v -0.2 0.7 0.1
v -0.2 0.8 0.2
v -0.2 0.8 0.1
v 0.1 -0.4 0
v 0.1 -0.4 -0.1
v 0.1 -0.3 0
v 0.1 -0.3 -0.1
v 0.1 -0.2 0
v 0.1 -0.2 -0.1
v -0.1 -0.4 0
v -0.1 -0.4 -0.1
v -0.1 -0.3 0
v -0.1 -0.3 -0.1
v -0.1 -0.2 0
v -0.1 -0.2 -0.1
v 0.2 -0.4 0
v 0.2 -0.4 -0.1
v 0.2 -0.3 0
v 0.2 -0.3 -0.1
v 0.2 -0.2 0.1
v 0.2 -0.2 0
v 0.2 -0.2 -0.1
v 0.2 -0.2 -0.2
v 0.2 0.1 0.1
v 0.2 0.1 0
v 0.2 0.1 -0.1
v 0.2 0.2 0.1
v 0.2 0.2 0
v 0.2 0.2 -0.1
v 0.2 0.2 -0.2
v 0.2 0.4 0.1
v 0.2 0.4 -0.2
v 0.2 0.4 -0.3
v 0.2 0.5 -0.2
v 0.2 0.5 -0.3
v 0.2 0.7 0.2
v 0.2 0.7 0.1
v 0.2 0.8 0.2
v 0.2 0.8 0.1
v 0.3 0.4 0.1
v 0.3 0.4 -0.2
v 0.3 0.5 -0.2
v 0.3 0.5 -0.3
v 0.3 0.6 0.2
v 0.3 0.6 0.1
v 0.3 0.7 0.2
v 0.3 0.7 0.1
v 0.3 0.8 0.1
v 0.3 0.8 -0.3
v 0.6 0.1 0
v 0.6 0.1 -0.1
v 0.6 0.2 0
v 0.6 0.2 -0.1
v -0.3 0.6 0.2
v -0.3 0.7 0.2
v -0.2 0.7 0.2
v -0.2 0.8 0.2
v 0 0.6 0.2
v 0 0.8 0.2
v 0.2 0.7 0.2
v 0.2 0.8 0.2
v 0.3 0.6 0.2
v 0.3 0.7 0.2
v -0.3 0.4 0.1
v -0.3 0.6 0.1
v -0.3 0.7 0.1
v -0.3 0.8 0.1
v -0.2 -0.2 0.1
v -0.2 0.1 0.1
v -0.2 0.2 0.1
v -0.2 0.4 0.1
v -0.2 0.5 0.1
v -0.2 0.6 0.1
v -0.2 0.7 0.1
v -0.2 0.8 0.1
v -0.1 0 0.1
v -0.1 0.1 0.1
v -0.1 0.2 0.1
v -0.1 0.4 0.1
v -0.1 0.5 0.1
v 0 -0.2 0.1
v 0 0 0.1
v 0 0.6 0.1
v 0.1 0 0.1
v 0.1 0.1 0.1
v 0.1 0.2 0.1
v 0.1 0.4 0.1
v 0.1 0.5 0.1
v 0.2 -0.2 0.1
v 0.2 0.1 0.1
v 0.2 0.2 0.1
v 0.2 0.4 0.1
v 0.2 0.5 0.1
v 0.2 0.6 0.1
v 0.2 0.7 0.1
v 0.2 0.8 0.1
v 0.3 0.4 0.1
v 0.3 0.6 0.1
v 0.3 0.7 0.1
v 0.3 0.8 0.1
v -0.6 0.1 0
v -0.6 0.2 0
v -0.5 0.1 0
v -0.5 0.2 0
v -0.4 0.1 0
v -0.4 0.2 0
v -0.2 -0.4 0
v -0.2 -0.3 0
v -0.2 -0.2 0
v -0.2 0.1 0
v -0.2 0.2 0
v -0.1 -0.4 0
v -0.1 -0.3 0
v -0.1 -0.2 0
v 0.1 -0.4 0
v 0.1 -0.3 0
v 0.1 -0.2 0
v 0.2 -0.4 0
v 0.2 -0.3 0
v 0.2 -0.2 0
v 0.2 0.1 0
v 0.2 0.2 0
v 0.4 0.1 0
v 0.4 0.2 0
v 0.5 0.1 0
v 0.5 0.2 0
v 0.6 0.1 0
v 0.6 0.2 0
v -0.6 0.1 -0.1
v -0.6 0.2 -0.1
v -0.5 0.1 -0.1
v -0.5 0.2 -0.1
v -0.4 0.1 -0.1
v -0.4 0.2 -0.1
v -0.2 -0.4 -0.1
v -0.2 -0.3 -0.1
v -0.2 -0.2 -0.1
v -0.2 0.1 -0.1
v -0.2 0.2 -0.1
v -0.1 -0.4 -0.1
v -0.1 -0.3 -0.1
v -0.1 -0.2 -0.1
v 0.1 -0.4 -0.1
v 0.1 -0.3 -0.1
v 0.1 -0.2 -0.1
v 0.2 -0.4 -0.1
v 0.2 -0.3 -0.1
v 0.2 -0.2 -0.1
v 0.2 0.1 -0.1
v 0.2 0.2 -0.1
v 0.4 0.1 -0.1
v 0.4 0.2 -0.1
v 0.5 0.1 -0.1
v 0.5 0.2 -0.1
v 0.6 0.1 -0.1
v 0.6 0.2 -0.1
v -0.3 0.4 -0.2
v -0.3 0.5 -0.2
v -0.2 -0.2 -0.2
v -0.2 0.2 -0.2
v -0.2 0.4 -0.2
v -0.2 0.5 -0.2
v 0 -0.2 -0.2
v 0 0.2 -0.2
v 0.2 -0.2 -0.2
v 0.2 0.2 -0.2
v 0.2 0.4 -0.2
v 0.2 0.5 -0.2
v 0.3 0.4 -0.2
v 0.3 0.5 -0.2
v -0.3 0.5 -0.3
v -0.3 0.8 -0.3
v -0.2 0.4 -0.3
v -0.2 0.5 -0.3
v 0.2 0.4 -0.3
v 0.2 0.5 -0.3
v 0.3 0.5 -0.3
v 0.3 0.8 -0.3
v -0.2 -0.4 0
v -0.1 -0.4 0
v 0.1 -0.4 0
v 0.2 -0.4 0
v -0.2 -0.4 -0.1
v -0.1 -0.4 -0.1
v 0.1 -0.4 -0.1
v 0.2 -0.4 -0.1
v -0.2 -0.2 0.1
v 0 -0.2 0.1
v 0.2 -0.2 0.1
v -0.2 -0.2 0
v -0.1 -0.2 0
v 0 -0.2 0
v 0.1 -0.2 0
v 0.2 -0.2 0
v -0.2 -0.2 -0.1
v -0.1 -0.2 -0.1
v 0 -0.2 -0.1
v 0.1 -0.2 -0.1
v 0.2 -0.2 -0.1
v -0.2 -0.2 -0.2
v 0 -0.2 -0.2
v 0.2 -0.2 -0.2
v -0.6 0.1 0
v -0.5 0.1 0
v -0.4 0.1 0
v -0.2 0.1 0
v 0.2 0.1 0
v 0.4 0.1 0
v 0.5 0.1 0
v 0.6 0.1 0
v -0.6 0.1 -0.1
v -0.5 0.1 -0.1
v -0.4 0.1 -0.1
v -0.2 0.1 -0.1
v 0.2 0.1 -0.1
v 0.4 0.1 -0.1
v 0.5 0.1 -0.1
v 0.6 0.1 -0.1
v -0.3 0.4 0.1
v -0.2 0.4 0.1
v 0.2 0.4 0.1
v 0.3 0.4 0.1
v -0.3 0.4 -0.2
v -0.2 0.4 -0.2
v 0.2 0.4 -0.2
v 0.3 0.4 -0.2
v -0.2 0.4 -0.3
v 0.2 0.4 -0.3
v -0.3 0.5 -0.2
v -0.2 0.5 -0.2
v 0.2 0.5 -0.2
v 0.3 0.5 -0.2
v -0.3 0.5 -0.3
v -0.2 0.5 -0.3
v 0.2 0.5 -0.3
v 0.3 0.5 -0.3
v -0.3 0.6 0.2
v 0 0.6 0.2
v 0.3 0.6 0.2
v -0.3 0.6 0.1
v -0.2 0.6 0.1
v 0 0.6 0.1
v 0.2 0.6 0.1
v 0.3 0.6 0.1
v -0.6 0.2 0
v -0.5 0.2 0
v -0.4 0.2 0
v -0.2 0.2 0
v 0.2 0.2 0
v 0.4 0.2 0
v 0.5 0.2 0
v 0.6 0.2 0
v -0.6 0.2 -0.1
v -0.5 0.2 -0.1
v -0.4 0.2 -0.1
v -0.2 0.2 -0.1
v 0.2 0.2 -0.1
v 0.4 0.2 -0.1
v 0.5 0.2 -0.1
v 0.6 0.2 -0.1
v -0.3 0.7 0.2
v -0.2 0.7 0.2
v 0.2 0.7 0.2
v 0.3 0.7 0.2
v -0.3 0.7 0.1
v -0.2 0.7 0.1
v 0.2 0.7 0.1
v 0.3 0.7 0.1
v -0.2 0.8 0.2
v 0 0.8 0.2
v 0.2 0.8 0.2
v -0.3 0.8 0.1
v -0.2 0.8 0.1
v 0 0.8 0.1
v 0.2 0.8 0.1
v 0.3 0.8 0.1
v -0.3 0.8 -0.3
v 0.3 0.8 -0.3

# faces
f 3/2/1 2/2/1 1/2/1
f 4/2/1 2/2/1 3/2/1
f 7/9/1 6/9/1 5/9/1
f 10/9/1 7/9/1 5/9/1
f 10/9/1 8/9/1 7/9/1
f 11/7/1 10/7/1 9/7/1
f 12/9/1 8/9/1 10/9/1
f 12/7/1 10/7/1 11/7/1
f 13/9/1 8/9/1 12/9/1
f 14/9/1 8/9/1 13/9/1
f 17/9/1 16/9/1 15/9/1
f 18/9/1 16/9/1 17/9/1
f 20/5/1 18/5/1 17/5/1
f 21/5/1 18/5/1 20/5/1
f 23/9/1 21/9/1 20/9/1
f 23/9/1 22/9/1 21/9/1
f 23/9/1 20/9/1 19/9/1
f 24/9/1 22/9/1 23/9/1
f 25/9/1 22/9/1 24/9/1
f 26/8/1 24/8/1 23/8/1
f 27/8/1 24/8/1 26/8/1
f 28/9/1 22/9/1 25/9/1
f 29/9/1 22/9/1 28/9/1
f 30/2/1 27/2/1 26/2/1
f 30/2/1 28/2/1 27/2/1
f 30/2/1 29/2/1 28/2/1
f 31/2/1 29/2/1 30/2/1
f 33/9/1 32/9/1 31/9/1
f 34/9/1 32/9/1 33/9/1
f 37/7/1 36/7/1 35/7/1
f 38/7/1 36/7/1 37/7/1
f 41/9/1 40/9/1 39/9/1
f 42/9/1 40/9/1 41/9/1
f 43/5/1 42/5/1 41/5/1
f 44/5/1 42/5/1 43/5/1
f 45/9/2 46/9/2 47/9/2
f 47/9/2 46/9/2 48/9/2
f 47/5/2 48/5/2 49/5/2
f 49/5/2 48/5/2 50/5/2
f 51/9/2 52/9/2 53/9/2
f 53/9/2 52/9/2 54/9/2
f 53/5/2 54/5/2 56/5/2
f 56/5/2 54/5/2 57/5/2
f 56/7/2 57/7/2 59/7/2
f 57/7/2 58/7/2 59/7/2
f 55/7/2 56/7/2 59/7/2
f 59/7/2 58/7/2 60/7/2
f 60/7/2 58/7/2 61/7/2
f 59/8/2 60/8/2 62/8/2
f 62/8/2 60/8/2 63/8/2
f 61/7/2 58/7/2 64/7/2
f 64/7/2 58/7/2 65/7/2
f 62/2/2 63/2/2 66/2/2
f 63/2/2 64/2/2 66/2/2
f 64/2/2 65/2/2 66/2/2
f 66/2/2 65/2/2 67/2/2
f 67/9/2 68/9/2 69/9/2
f 69/9/2 68/9/2 70/9/2
f 71/9/2 72/9/2 73/9/2
f 73/9/2 72/9/2 74/9/2
f 75/9/2 76/9/2 77/9/2
f 75/9/2 77/9/2 80/9/2
f 77/9/2 78/9/2 80/9/2
f 79/9/2 80/9/2 81/9/2
f 80/9/2 78/9/2 82/9/2
f 81/9/2 80/9/2 82/9/2
f 82/9/2 78/9/2 83/9/2
f 83/9/2 78/9/2 84/9/2
f 85/2/2 86/2/2 87/2/2
f 87/2/2 86/2/2 88/2/2
f 91/7/3 90/7/3 89/7/3
f 93/7/3 91/7/3 89/7/3
f 93/7/3 92/7/3 91/7/3
f 94/7/3 92/7/3 93/7/3
f 95/9/3 94/9/3 93/9/3
f 96/9/3 94/9/3 95/9/3
f 97/9/3 95/9/3 93/9/3
f 98/9/3 95/9/3 97/9/3
f 106/9/3 100/9/3 99/9/3
f 107/9/3 100/9/3 106/9/3
f 108/9/3 100/9/3 107/9/3
f 109/9/3 102/9/3 101/9/3
f 110/9/3 102/9/3 109/9/3
f 111/9/3 104/9/3 103/9/3
f 112/8/3 105/8/3 104/8/3
f 112/9/3 104/9/3 111/9/3
f 113/2/3 106/2/3 105/2/3
f 113/8/3 105/8/3 112/8/3
f 114/6/3 107/6/3 106/6/3
f 114/2/3 106/2/3 113/2/3
f 115/3/3 108/3/3 107/3/3
f 115/6/3 107/6/3 114/6/3
f 116/9/3 111/9/3 103/9/3
f 117/8/3 112/8/3 111/8/3
f 117/9/3 111/9/3 116/9/3
f 118/3/3 108/3/3 115/3/3
f 119/8/3 112/8/3 117/8/3
f 119/7/3 117/7/3 116/7/3
f 120/2/3 114/2/3 113/2/3
f 120/8/3 112/8/3 119/8/3
f 120/2/3 113/2/3 112/2/3
f 120/2/3 115/2/3 114/2/3
f 121/2/3 115/2/3 120/2/3
f 122/2/3 115/2/3 121/2/3
f 123/3/3 118/3/3 115/3/3
f 123/2/3 115/2/3 122/2/3
f 124/7/3 119/7/3 116/7/3
f 124/7/3 120/7/3 119/7/3
f 125/8/3 121/8/3 120/8/3
f 125/7/3 120/7/3 124/7/3
f 126/2/3 122/2/3 121/2/3
f 126/8/3 121/8/3 125/8/3
f 127/6/3 123/6/3 122/6/3
f 127/2/3 122/2/3 126/2/3
f 128/3/3 118/3/3 123/3/3
f 128/6/3 123/6/3 127/6/3
f 129/3/3 118/3/3 128/3/3
f 132/9/3 129/9/3 128/9/3
f 132/9/3 128/9/3 127/9/3
f 133/9/3 129/9/3 132/9/3
f 134/9/3 131/9/3 130/9/3
f 135/9/3 131/9/3 134/9/3
f 138/2/3 137/2/3 136/2/3
f 139/2/3 137/2/3 138/2/3
f 140/8/3 139/8/3 138/8/3
f 141/8/3 139/8/3 140/8/3
f 145/9/3 141/9/3 140/9/3
f 146/9/3 141/9/3 145/9/3
f 147/9/3 143/9/3 142/9/3
f 148/5/3 144/5/3 143/5/3
f 148/9/3 143/9/3 147/9/3
f 149/5/3 144/5/3 148/5/3
f 153/9/3 151/9/3 150/9/3
f 154/5/3 152/5/3 151/5/3
f 154/9/3 151/9/3 153/9/3
f 155/5/3 152/5/3 154/5/3
f 158/7/3 157/7/3 156/7/3
f 159/7/3 157/7/3 158/7/3
f 160/8/3 159/8/3 158/8/3
f 161/8/3 159/8/3 160/8/3
f 162/2/3 161/2/3 160/2/3
f 163/2/3 161/2/3 162/2/3
f 164/2/4 165/2/4 166/2/4
f 166/2/4 165/2/4 167/2/4
f 166/8/4 167/8/4 168/8/4
f 168/8/4 167/8/4 169/8/4
f 168/9/4 169/9/4 173/9/4
f 173/9/4 169/9/4 174/9/4
f 170/9/4 171/9/4 175/9/4
f 171/5/4 172/5/4 176/5/4
f 175/9/4 171/9/4 176/9/4
f 176/5/4 172/5/4 177/5/4
f 178/9/4 179/9/4 181/9/4
f 179/5/4 180/5/4 182/5/4
f 181/9/4 179/9/4 182/9/4
f 182/5/4 180/5/4 183/5/4
f 184/7/4 185/7/4 186/7/4
f 186/7/4 185/7/4 187/7/4
f 186/8/4 187/8/4 188/8/4
f 188/8/4 187/8/4 189/8/4
f 188/2/4 189/2/4 190/2/4
f 190/2/4 189/2/4 191/2/4
f 192/9/4 193/9/4 196/9/4
f 196/9/4 193/9/4 197/9/4
f 194/9/4 195/9/4 198/9/4
f 195/2/4 196/2/4 199/2/4
f 198/9/4 195/9/4 199/9/4
f 198/7/4 199/7/4 200/7/4
f 199/2/4 196/2/4 201/2/4
f 200/7/4 199/7/4 201/7/4
f 201/2/4 196/2/4 202/2/4
f 202/9/4 203/9/4 204/9/4
f 204/9/4 203/9/4 205/9/4
f 206/9/4 207/9/4 209/9/4
f 208/9/4 209/9/4 210/9/4
f 209/9/4 207/9/4 211/9/4
f 210/9/4 209/9/4 211/9/4
f 211/9/4 207/9/4 212/9/4
f 212/9/4 207/9/4 213/9/4
f 218/9/5 215/9/5 214/9/5
f 219/9/5 215/9/5 218/9/5
f 220/9/5 217/9/5 216/9/5
f 221/9/5 217/9/5 220/9/5
f 225/9/5 223/9/5 222/9/5
f 226/9/5 223/9/5 225/9/5
f 227/7/5 224/7/5 223/7/5
f 227/9/5 223/9/5 226/9/5
f 228/7/5 224/7/5 227/7/5
f 229/7/5 224/7/5 228/7/5
f 231/5/5 227/5/5 226/5/5
f 231/5/5 228/5/5 227/5/5
f 232/5/5 228/5/5 231/5/5
f 233/5/5 228/5/5 232/5/5
f 235/9/5 231/9/5 230/9/5
f 235/9/5 232/9/5 231/9/5
f 236/7/5 234/7/5 233/7/5
f 236/9/5 232/9/5 235/9/5
f 236/7/5 233/7/5 232/7/5
f 237/7/5 234/7/5 236/7/5
f 246/2/5 239/2/5 238/2/5
f 247/8/5 240/8/5 239/8/5
f 247/2/5 239/2/5 246/2/5
f 248/9/5 241/9/5 240/9/5
f 248/8/5 240/8/5 247/8/5
f 249/9/5 241/9/5 248/9/5
f 250/7/5 243/7/5 242/7/5
f 251/8/5 244/8/5 243/8/5
f 251/7/5 243/7/5 250/7/5
f 252/2/5 245/2/5 244/2/5
f 252/8/5 244/8/5 251/8/5
f 253/2/5 245/2/5 252/2/5
f 258/9/5 255/9/5 254/9/5
f 259/9/5 255/9/5 258/9/5
f 260/9/5 257/9/5 256/9/5
f 261/9/5 257/9/5 260/9/5
f 262/9/5 260/9/5 259/9/5
f 263/9/5 260/9/5 262/9/5
f 268/9/5 265/9/5 264/9/5
f 269/9/5 265/9/5 268/9/5
f 270/9/5 267/9/5 266/9/5
f 271/9/5 267/9/5 270/9/5
f 275/7/5 273/7/5 272/7/5
f 276/7/5 273/7/5 275/7/5
f 277/9/5 274/9/5 273/9/5
f 277/7/5 273/7/5 276/7/5
f 278/9/5 274/9/5 277/9/5
f 279/9/5 274/9/5 278/9/5
f 280/2/6 281/2/6 288/2/6
f 281/8/6 282/8/6 289/8/6
f 288/2/6 281/2/6 289/2/6
f 282/9/6 283/9/6 290/9/6
f 289/8/6 282/8/6 290/8/6
f 290/9/6 283/9/6 291/9/6
f 284/7/6 285/7/6 292/7/6
f 285/8/6 286/8/6 293/8/6
f 292/7/6 285/7/6 293/7/6
f 286/2/6 287/2/6 294/2/6
f 293/8/6 286/8/6 294/8/6
f 294/2/6 287/2/6 295/2/6
f 296/7/6 297/7/6 300/7/6
f 300/7/6 297/7/6 301/7/6
f 298/9/6 299/9/6 302/9/6
f 302/9/6 299/9/6 303/9/6
f 304/7/6 305/7/6 308/7/6
f 305/9/6 306/9/6 309/9/6
f 308/7/6 305/7/6 309/7/6
f 309/9/6 306/9/6 310/9/6
f 307/9/6 308/9/6 312/9/6
f 310/9/6 311/9/6 312/9/6
f 309/9/6 310/9/6 312/9/6
f 308/9/6 309/9/6 312/9/6
f 312/9/6 311/9/6 313/9/6
