# MagicaVoxel @ Ephtracy

# group
o 

# material
mtllib chara_Skin2test.mtl
usemtl palette

# normals
vn -1 0 0
vn 1 0 0
vn 0 0 1
vn 0 0 -1
vn 0 -1 0
vn 0 1 0

# texcoords
vt 0.00195313 0.5
vt 0.00976563 0.5
vt 0.0136719 0.5
vt 0.0332031 0.5
vt 0.0605469 0.5
vt 0.634766 0.5
vt 0.853516 0.5
vt 0.958984 0.5
vt 0.970703 0.5
vt 0.974609 0.5
vt 0.990234 0.5
vt 0.994141 0.5

# verts
v -0.6 0 0
v -0.6 0 -0.1
v -0.6 0.1 0
v -0.6 0.1 -0.1
v -0.4 0.3 -0.2
v -0.4 0.3 -0.3
v -0.4 0.4 0
v -0.4 0.4 -0.1
v -0.4 0.5 -0.1
v -0.4 0.5 -0.2
v -0.4 0.6 0.1
v -0.4 0.6 0
v -0.4 0.6 -0.2
v -0.4 0.6 -0.3
v -0.4 0.7 0.1
v -0.4 0.7 0
v -0.4 0.7 -0.2
v -0.3 0.1 -0.1
v -0.3 0.1 -0.2
v -0.3 0.2 0.1
v -0.3 0.2 0
v -0.3 0.2 -0.1
v -0.3 0.2 -0.2
v -0.3 0.2 -0.3
v -0.3 0.3 0.1
v -0.3 0.3 0
v -0.3 0.3 -0.1
v -0.3 0.3 -0.2
v -0.3 0.3 -0.3
v -0.3 0.3 -0.4
v -0.3 0.4 0.1
v -0.3 0.4 0
v -0.3 0.4 -0.1
v -0.3 0.4 -0.3
v -0.3 0.4 -0.4
v -0.3 0.5 -0.1
v -0.3 0.5 -0.2
v -0.3 0.6 0.2
v -0.3 0.6 0.1
v -0.3 0.6 0
v -0.3 0.6 -0.2
v -0.3 0.6 -0.3
v -0.3 0.7 0.2
v -0.3 0.7 0.1
v -0.3 0.7 0
v -0.3 0.7 -0.2
v -0.3 0.8 0.1
v -0.3 0.8 0
v -0.3 0.8 -0.2
v -0.3 0.8 -0.3
v -0.3 0.9 0
v -0.3 0.9 -0.2
v -0.2 -0.4 0
v -0.2 -0.4 -0.1
v -0.2 -0.3 0
v -0.2 -0.3 -0.1
v -0.2 -0.2 0.1
v -0.2 -0.2 0
v -0.2 -0.2 -0.1
v -0.2 -0.2 -0.2
v -0.2 0 0
v -0.2 0 -0.1
v -0.2 0.1 0
v -0.2 0.1 -0.1
v -0.2 0.1 -0.2
v -0.2 0.1 -0.3
v -0.2 0.2 0.1
v -0.2 0.2 0
v -0.2 0.2 -0.1
v -0.2 0.2 -0.2
v -0.2 0.2 -0.3
v -0.2 0.2 -0.4
v -0.2 0.3 0.1
v -0.2 0.3 0
v -0.2 0.3 -0.3
v -0.2 0.3 -0.4
v -0.2 0.4 0.1
v -0.2 0.4 0
v -0.2 0.4 -0.3
v -0.2 0.4 -0.4
v -0.2 0.7 0.2
v -0.2 0.7 0.1
v -0.2 0.8 0.2
v -0.2 0.8 0.1
v -0.2 0.8 0
v -0.2 0.8 -0.2
v -0.2 0.8 -0.3
v -0.2 0.8 -0.4
v -0.2 0.9 0.1
v -0.2 0.9 0
v -0.2 0.9 -0.2
v -0.2 0.9 -0.3
v -0.2 1 0
v -0.2 1 -0.2
v 0.1 -0.4 0
v 0.1 -0.4 -0.1
v 0.1 -0.3 0
v 0.1 -0.3 -0.1
v 0.1 -0.2 0
v 0.1 -0.2 -0.1
v -0.1 -0.4 0
v -0.1 -0.4 -0.1
v -0.1 -0.3 0
v -0.1 -0.3 -0.1
v -0.1 -0.2 0
v -0.1 -0.2 -0.1
v 0.2 -0.4 0
v 0.2 -0.4 -0.1
v 0.2 -0.3 0
v 0.2 -0.3 -0.1
v 0.2 -0.2 0.1
v 0.2 -0.2 0
v 0.2 -0.2 -0.1
v 0.2 -0.2 -0.2
v 0.2 0 0
v 0.2 0 -0.1
v 0.2 0.1 0
v 0.2 0.1 -0.1
v 0.2 0.1 -0.2
v 0.2 0.1 -0.3
v 0.2 0.2 0.1
v 0.2 0.2 0
v 0.2 0.2 -0.1
v 0.2 0.2 -0.2
v 0.2 0.2 -0.3
v 0.2 0.2 -0.4
v 0.2 0.3 0.1
v 0.2 0.3 0
v 0.2 0.3 -0.3
v 0.2 0.3 -0.4
v 0.2 0.4 0.1
v 0.2 0.4 0
v 0.2 0.4 -0.3
v 0.2 0.4 -0.4
v 0.2 0.7 0.2
v 0.2 0.7 0.1
v 0.2 0.8 0.2
v 0.2 0.8 0.1
v 0.2 0.8 0
v 0.2 0.8 -0.2
v 0.2 0.8 -0.3
v 0.2 0.8 -0.4
v 0.2 0.9 0.1
v 0.2 0.9 0
v 0.2 0.9 -0.2
v 0.2 0.9 -0.3
v 0.2 1 0
v 0.2 1 -0.2
v 0.3 0.1 -0.1
v 0.3 0.1 -0.2
v 0.3 0.2 0.1
v 0.3 0.2 -0.1
v 0.3 0.2 -0.2
v 0.3 0.2 -0.3
v 0.3 0.3 0.1
v 0.3 0.3 0
v 0.3 0.3 -0.1
v 0.3 0.3 -0.2
v 0.3 0.3 -0.3
v 0.3 0.4 0.1
v 0.3 0.4 0
v 0.3 0.4 -0.1
v 0.3 0.6 0.2
v 0.3 0.6 0.1
v 0.3 0.6 0
v 0.3 0.6 -0.1
v 0.3 0.6 -0.2
v 0.3 0.6 -0.3
v 0.3 0.7 0.2
v 0.3 0.7 0.1
v 0.3 0.7 0
v 0.3 0.7 -0.2
v 0.3 0.8 0.1
v 0.3 0.8 0
v 0.3 0.8 -0.2
v 0.3 0.8 -0.3
v 0.3 0.9 0
v 0.3 0.9 -0.2
v 0.4 0.3 -0.2
v 0.4 0.3 -0.3
v 0.4 0.4 0
v 0.4 0.4 -0.1
v 0.4 0.6 0.1
v 0.4 0.6 0
v 0.4 0.6 -0.1
v 0.4 0.6 -0.2
v 0.4 0.6 -0.3
v 0.4 0.7 0.1
v 0.4 0.7 0
v 0.4 0.7 -0.2
v 0.6 0 0
v 0.6 0 -0.1
v 0.6 0.1 0
v 0.6 0.1 -0.1
v -0.3 0.6 0.2
v -0.3 0.7 0.2
v -0.2 0.7 0.2
v -0.2 0.8 0.2
v 0.2 0.7 0.2
v 0.2 0.8 0.2
v 0.3 0.6 0.2
v 0.3 0.7 0.2
v -0.4 0.6 0.1
v -0.4 0.7 0.1
v -0.3 0.2 0.1
v -0.3 0.3 0.1
v -0.3 0.4 0.1
v -0.3 0.6 0.1
v -0.3 0.7 0.1
v -0.3 0.8 0.1
v -0.2 -0.2 0.1
v -0.2 0.2 0.1
v -0.2 0.3 0.1
v -0.2 0.4 0.1
v -0.2 0.5 0.1
v -0.2 0.6 0.1
v -0.2 0.7 0.1
v -0.2 0.8 0.1
v -0.2 0.9 0.1
v -0.1 0.1 0.1
v -0.1 0.2 0.1
v -0.1 0.4 0.1
v -0.1 0.5 0.1
v 0.1 0.1 0.1
v 0.1 0.2 0.1
v 0.1 0.4 0.1
v 0.1 0.5 0.1
v 0.2 -0.2 0.1
v 0.2 0.2 0.1
v 0.2 0.3 0.1
v 0.2 0.4 0.1
v 0.2 0.5 0.1
v 0.2 0.6 0.1
v 0.2 0.7 0.1
v 0.2 0.8 0.1
v 0.2 0.9 0.1
v 0.3 0.2 0.1
v 0.3 0.3 0.1
v 0.3 0.4 0.1
v 0.3 0.6 0.1
v 0.3 0.7 0.1
v 0.3 0.8 0.1
v 0.4 0.6 0.1
v 0.4 0.7 0.1
v -0.6 0 0
v -0.6 0.1 0
v -0.5 0 0
v -0.5 0.1 0
v -0.4 0 0
v -0.4 0.1 0
v -0.4 0.4 0
v -0.4 0.6 0
v -0.3 0.3 0
v -0.3 0.4 0
v -0.3 0.6 0
v -0.3 0.8 0
v -0.3 0.9 0
v -0.2 -0.4 0
v -0.2 -0.3 0
v -0.2 -0.2 0
v -0.2 0 0
v -0.2 0.1 0
v -0.2 0.3 0
v -0.2 0.4 0
v -0.2 0.8 0
v -0.2 0.9 0
v -0.2 1 0
v -0.1 -0.4 0
v -0.1 -0.3 0
v -0.1 -0.2 0
v 0.1 -0.4 0
v 0.1 -0.3 0
v 0.1 -0.2 0
v 0.2 -0.4 0
v 0.2 -0.3 0
v 0.2 -0.2 0
v 0.2 0 0
v 0.2 0.1 0
v 0.2 0.3 0
v 0.2 0.4 0
v 0.2 0.8 0
v 0.2 0.9 0
v 0.2 1 0
v 0.3 0.3 0
v 0.3 0.4 0
v 0.3 0.6 0
v 0.3 0.8 0
v 0.3 0.9 0
v 0.4 0 0
v 0.4 0.1 0
v 0.4 0.4 0
v 0.4 0.6 0
v 0.5 0 0
v 0.5 0.1 0
v 0.6 0 0
v 0.6 0.1 0
v -0.3 0.1 -0.1
v -0.3 0.2 -0.1
v -0.2 0.1 -0.1
v -0.2 0.2 -0.1
v 0.2 0.1 -0.1
v 0.2 0.2 -0.1
v 0.3 0.1 -0.1
v 0.3 0.2 -0.1
v -0.4 0.3 -0.2
v -0.4 0.5 -0.2
v -0.3 0.3 -0.2
v -0.3 0.5 -0.2
v 0.3 0.3 -0.2
v 0.3 0.6 -0.2
v 0.4 0.3 -0.2
v 0.4 0.6 -0.2
v -0.6 0 -0.1
v -0.6 0.1 -0.1
v -0.5 0 -0.1
v -0.5 0.1 -0.1
v -0.4 0 -0.1
v -0.4 0.1 -0.1
v -0.4 0.4 -0.1
v -0.4 0.5 -0.1
v -0.3 0.1 -0.1
v -0.3 0.4 -0.1
v -0.3 0.5 -0.1
v -0.2 -0.4 -0.1
v -0.2 -0.3 -0.1
v -0.2 -0.2 -0.1
v -0.2 0 -0.1
v -0.2 0.1 -0.1
v -0.1 -0.4 -0.1
v -0.1 -0.3 -0.1
v -0.1 -0.2 -0.1
v 0.1 -0.4 -0.1
v 0.1 -0.3 -0.1
v 0.1 -0.2 -0.1
v 0.2 -0.4 -0.1
v 0.2 -0.3 -0.1
v 0.2 -0.2 -0.1
v 0.2 0 -0.1
v 0.2 0.1 -0.1
v 0.3 0.1 -0.1
v 0.3 0.4 -0.1
v 0.3 0.6 -0.1
v 0.4 0 -0.1
v 0.4 0.1 -0.1
v 0.4 0.4 -0.1
v 0.4 0.6 -0.1
v 0.5 0 -0.1
v 0.5 0.1 -0.1
v 0.6 0 -0.1
v 0.6 0.1 -0.1
v -0.4 0.6 -0.2
v -0.4 0.7 -0.2
v -0.3 0.1 -0.2
v -0.3 0.2 -0.2
v -0.3 0.6 -0.2
v -0.3 0.7 -0.2
v -0.3 0.8 -0.2
v -0.3 0.9 -0.2
v -0.2 -0.2 -0.2
v -0.2 0.1 -0.2
v -0.2 0.2 -0.2
v -0.2 0.8 -0.2
v -0.2 0.9 -0.2
v -0.2 1 -0.2
v 0.2 -0.2 -0.2
v 0.2 0.1 -0.2
v 0.2 0.2 -0.2
v 0.2 0.8 -0.2
v 0.2 0.9 -0.2
v 0.2 1 -0.2
v 0.3 0.1 -0.2
v 0.3 0.2 -0.2
v 0.3 0.6 -0.2
v 0.3 0.7 -0.2
v 0.3 0.8 -0.2
v 0.3 0.9 -0.2
v 0.4 0.6 -0.2
v 0.4 0.7 -0.2
v -0.4 0.3 -0.3
v -0.4 0.6 -0.3
v -0.3 0.2 -0.3
v -0.3 0.3 -0.3
v -0.3 0.4 -0.3
v -0.3 0.6 -0.3
v -0.3 0.8 -0.3
v -0.2 0.1 -0.3
v -0.2 0.2 -0.3
v -0.2 0.3 -0.3
v -0.2 0.4 -0.3
v -0.2 0.8 -0.3
v -0.2 0.9 -0.3
v -0.1 0.2 -0.3
v 0.1 0.2 -0.3
v 0.2 0.1 -0.3
v 0.2 0.2 -0.3
v 0.2 0.3 -0.3
v 0.2 0.4 -0.3
v 0.2 0.8 -0.3
v 0.2 0.9 -0.3
v 0.3 0.2 -0.3
v 0.3 0.3 -0.3
v 0.3 0.6 -0.3
v 0.3 0.8 -0.3
v 0.4 0.3 -0.3
v 0.4 0.6 -0.3
v -0.3 0.3 -0.4
v -0.3 0.4 -0.4
v -0.2 0.2 -0.4
v -0.2 0.3 -0.4
v -0.2 0.4 -0.4
v -0.2 0.8 -0.4
v -0.1 0.2 -0.4
v -0.1 0.3 -0.4
v -0.1 0.4 -0.4
v 0.1 0.2 -0.4
v 0.1 0.3 -0.4
v 0.1 0.4 -0.4
v 0.2 0.2 -0.4
v 0.2 0.3 -0.4
v 0.2 0.4 -0.4
v 0.2 0.8 -0.4
v -0.2 -0.4 0
v -0.1 -0.4 0
v 0.1 -0.4 0
v 0.2 -0.4 0
v -0.2 -0.4 -0.1
v -0.1 -0.4 -0.1
v 0.1 -0.4 -0.1
v 0.2 -0.4 -0.1
v -0.2 -0.2 0.1
v 0.2 -0.2 0.1
v -0.2 -0.2 0
v -0.1 -0.2 0
v 0.1 -0.2 0
v 0.2 -0.2 0
v -0.2 -0.2 -0.1
v -0.1 -0.2 -0.1
v 0.1 -0.2 -0.1
v 0.2 -0.2 -0.1
v -0.2 -0.2 -0.2
v 0.2 -0.2 -0.2
v -0.6 0 0
v -0.5 0 0
v -0.4 0 0
v -0.2 0 0
v 0.2 0 0
v 0.4 0 0
v 0.5 0 0
v 0.6 0 0
v -0.6 0 -0.1
v -0.5 0 -0.1
v -0.4 0 -0.1
v -0.2 0 -0.1
v 0.2 0 -0.1
v 0.4 0 -0.1
v 0.5 0 -0.1
v 0.6 0 -0.1
v -0.3 0.1 -0.1
v -0.2 0.1 -0.1
v 0.2 0.1 -0.1
v 0.3 0.1 -0.1
v -0.3 0.1 -0.2
v -0.2 0.1 -0.2
v 0.2 0.1 -0.2
v 0.3 0.1 -0.2
v -0.2 0.1 -0.3
v 0.2 0.1 -0.3
v -0.3 0.2 0.1
v -0.2 0.2 0.1
v 0.2 0.2 0.1
v 0.3 0.2 0.1
v -0.3 0.2 0
v -0.2 0.2 0
v 0.2 0.2 0
v -0.3 0.2 -0.1
v -0.2 0.2 -0.1
v 0.2 0.2 -0.1
v 0.3 0.2 -0.1
v -0.3 0.2 -0.2
v -0.2 0.2 -0.2
v 0.2 0.2 -0.2
v 0.3 0.2 -0.2
v -0.3 0.2 -0.3
v -0.2 0.2 -0.3
v -0.1 0.2 -0.3
v 0.1 0.2 -0.3
v 0.2 0.2 -0.3
v 0.3 0.2 -0.3
v -0.2 0.2 -0.4
v -0.1 0.2 -0.4
v 0.1 0.2 -0.4
v 0.2 0.2 -0.4
v -0.4 0.3 -0.2
v -0.3 0.3 -0.2
v 0.3 0.3 -0.2
v 0.4 0.3 -0.2
v -0.4 0.3 -0.3
v -0.3 0.3 -0.3
v -0.2 0.3 -0.3
v 0.3 0.3 -0.3
v 0.4 0.3 -0.3
v -0.3 0.3 -0.4
v -0.2 0.3 -0.4
v -0.3 0.4 0.1
v -0.2 0.4 0.1
v 0.2 0.4 0.1
v 0.3 0.4 0.1
v -0.4 0.4 0
v -0.3 0.4 0
v -0.2 0.4 0
v 0.2 0.4 0
v 0.3 0.4 0
v 0.4 0.4 0
v -0.4 0.4 -0.1
v -0.3 0.4 -0.1
v 0.3 0.4 -0.1
v 0.4 0.4 -0.1
v -0.4 0.5 -0.1
v -0.3 0.5 -0.1
v -0.4 0.5 -0.2
v -0.3 0.5 -0.2
v -0.3 0.6 0.2
v 0.3 0.6 0.2
v -0.4 0.6 0.1
v -0.3 0.6 0.1
v -0.2 0.6 0.1
v 0.2 0.6 0.1
v 0.3 0.6 0.1
v 0.4 0.6 0.1
v -0.4 0.6 0
v -0.3 0.6 0
v 0.3 0.6 0
v 0.4 0.6 0
v 0.3 0.6 -0.1
v 0.4 0.6 -0.1
v 0.3 0.6 -0.2
v 0.4 0.6 -0.2
v -0.6 0.1 0
v -0.5 0.1 0
v -0.4 0.1 0
v -0.2 0.1 0
v 0.2 0.1 0
v 0.4 0.1 0
v 0.5 0.1 0
v 0.6 0.1 0
v -0.6 0.1 -0.1
v -0.5 0.1 -0.1
v -0.4 0.1 -0.1
v -0.3 0.1 -0.1
v -0.2 0.1 -0.1
v 0.2 0.1 -0.1
v 0.3 0.1 -0.1
v 0.4 0.1 -0.1
v 0.5 0.1 -0.1
v 0.6 0.1 -0.1
v -0.3 0.3 0.1
v -0.2 0.3 0.1
v 0.2 0.3 0.1
v 0.3 0.3 0.1
v -0.3 0.3 0
v -0.2 0.3 0
v 0.2 0.3 0
v 0.3 0.3 0
v -0.3 0.4 -0.3
v -0.2 0.4 -0.3
v -0.3 0.4 -0.4
v -0.2 0.4 -0.4
v -0.4 0.6 -0.2
v -0.3 0.6 -0.2
v 0.3 0.6 -0.2
v 0.4 0.6 -0.2
v -0.4 0.6 -0.3
v -0.3 0.6 -0.3
v 0.3 0.6 -0.3
v 0.4 0.6 -0.3
v -0.3 0.7 0.2
v -0.2 0.7 0.2
v 0.2 0.7 0.2
v 0.3 0.7 0.2
v -0.4 0.7 0.1
v -0.3 0.7 0.1
v -0.2 0.7 0.1
v 0.2 0.7 0.1
v 0.3 0.7 0.1
v 0.4 0.7 0.1
v -0.4 0.7 0
v -0.3 0.7 0
v 0.3 0.7 0
v 0.4 0.7 0
v -0.4 0.7 -0.2
v -0.3 0.7 -0.2
v 0.3 0.7 -0.2
v 0.4 0.7 -0.2
v -0.2 0.8 0.2
v 0.2 0.8 0.2
v -0.3 0.8 0.1
v -0.2 0.8 0.1
v 0.2 0.8 0.1
v 0.3 0.8 0.1
v -0.3 0.8 0
v -0.2 0.8 0
v 0.2 0.8 0
v 0.3 0.8 0
v -0.3 0.8 -0.2
v -0.2 0.8 -0.2
v 0.2 0.8 -0.2
v 0.3 0.8 -0.2
v -0.3 0.8 -0.3
v -0.2 0.8 -0.3
v 0.2 0.8 -0.3
v 0.3 0.8 -0.3
v -0.2 0.8 -0.4
v 0.2 0.8 -0.4
v -0.2 0.9 0.1
v 0.2 0.9 0.1
v -0.3 0.9 0
v -0.2 0.9 0
v 0.2 0.9 0
v 0.3 0.9 0
v -0.3 0.9 -0.2
v -0.2 0.9 -0.2
v 0.2 0.9 -0.2
v 0.3 0.9 -0.2
v -0.2 0.9 -0.3
v 0.2 0.9 -0.3
v -0.2 1 0
v 0.2 1 0
v -0.2 1 -0.2
v 0.2 1 -0.2

# faces
f 3/4/1 2/4/1 1/4/1
f 4/4/1 2/4/1 3/4/1
f 9/12/1 8/12/1 7/12/1
f 10/11/1 6/11/1 5/11/1
f 12/12/1 9/12/1 7/12/1
f 12/12/1 10/12/1 9/12/1
f 13/11/1 6/11/1 10/11/1
f 13/12/1 10/12/1 12/12/1
f 14/11/1 6/11/1 13/11/1
f 15/12/1 12/12/1 11/12/1
f 16/11/1 13/11/1 12/11/1
f 16/12/1 12/12/1 15/12/1
f 17/11/1 13/11/1 16/11/1
f 22/11/1 19/11/1 18/11/1
f 23/11/1 19/11/1 22/11/1
f 25/11/1 21/11/1 20/11/1
f 26/12/1 22/12/1 21/12/1
f 26/11/1 21/11/1 25/11/1
f 26/12/1 23/12/1 22/12/1
f 27/12/1 23/12/1 26/12/1
f 28/11/1 24/11/1 23/11/1
f 28/12/1 23/12/1 27/12/1
f 29/11/1 24/11/1 28/11/1
f 32/12/1 27/12/1 26/12/1
f 33/11/1 28/11/1 27/11/1
f 33/12/1 27/12/1 32/12/1
f 34/12/1 30/12/1 29/12/1
f 35/12/1 30/12/1 34/12/1
f 36/11/1 28/11/1 33/11/1
f 37/11/1 28/11/1 36/11/1
f 39/11/1 32/11/1 31/11/1
f 40/11/1 32/11/1 39/11/1
f 43/12/1 39/12/1 38/12/1
f 44/12/1 39/12/1 43/12/1
f 46/12/1 42/12/1 41/12/1
f 47/12/1 45/12/1 44/12/1
f 47/12/1 46/12/1 45/12/1
f 48/12/1 46/12/1 47/12/1
f 49/12/1 42/12/1 46/12/1
f 49/12/1 46/12/1 48/12/1
f 50/12/1 42/12/1 49/12/1
f 51/12/1 49/12/1 48/12/1
f 52/12/1 49/12/1 51/12/1
f 55/12/1 54/12/1 53/12/1
f 56/12/1 54/12/1 55/12/1
f 58/10/1 56/10/1 55/10/1
f 59/10/1 56/10/1 58/10/1
f 61/6/1 59/6/1 58/6/1
f 61/8/1 58/8/1 57/8/1
f 62/7/1 60/7/1 59/7/1
f 62/6/1 59/6/1 61/6/1
f 63/8/1 61/8/1 57/8/1
f 64/7/1 60/7/1 62/7/1
f 65/7/1 60/7/1 64/7/1
f 67/8/1 63/8/1 57/8/1
f 68/6/1 64/6/1 63/6/1
f 68/8/1 63/8/1 67/8/1
f 69/6/1 64/6/1 68/6/1
f 70/11/1 66/11/1 65/11/1
f 71/11/1 66/11/1 70/11/1
f 75/12/1 72/12/1 71/12/1
f 76/12/1 72/12/1 75/12/1
f 77/4/1 74/4/1 73/4/1
f 78/4/1 74/4/1 77/4/1
f 83/12/1 82/12/1 81/12/1
f 84/12/1 82/12/1 83/12/1
f 87/12/1 80/12/1 79/12/1
f 88/12/1 80/12/1 87/12/1
f 89/12/1 85/12/1 84/12/1
f 90/12/1 85/12/1 89/12/1
f 91/12/1 87/12/1 86/12/1
f 92/12/1 87/12/1 91/12/1
f 93/12/1 91/12/1 90/12/1
f 94/12/1 91/12/1 93/12/1
f 97/12/1 96/12/1 95/12/1
f 98/12/1 96/12/1 97/12/1
f 99/10/1 98/10/1 97/10/1
f 100/10/1 98/10/1 99/10/1
f 101/12/2 102/12/2 103/12/2
f 103/12/2 102/12/2 104/12/2
f 103/10/2 104/10/2 105/10/2
f 105/10/2 104/10/2 106/10/2
f 107/12/2 108/12/2 109/12/2
f 109/12/2 108/12/2 110/12/2
f 109/10/2 110/10/2 112/10/2
f 112/10/2 110/10/2 113/10/2
f 112/6/2 113/6/2 115/6/2
f 111/8/2 112/8/2 115/8/2
f 113/7/2 114/7/2 116/7/2
f 115/6/2 113/6/2 116/6/2
f 111/8/2 115/8/2 117/8/2
f 116/7/2 114/7/2 118/7/2
f 118/7/2 114/7/2 119/7/2
f 111/8/2 117/8/2 121/8/2
f 117/6/2 118/6/2 122/6/2
f 121/8/2 117/8/2 122/8/2
f 122/6/2 118/6/2 123/6/2
f 119/11/2 120/11/2 124/11/2
f 124/11/2 120/11/2 125/11/2
f 125/12/2 126/12/2 129/12/2
f 129/12/2 126/12/2 130/12/2
f 127/4/2 128/4/2 131/4/2
f 131/4/2 128/4/2 132/4/2
f 129/11/2 130/11/2 133/11/2
f 133/11/2 130/11/2 134/11/2
f 135/12/2 136/12/2 137/12/2
f 137/12/2 136/12/2 138/12/2
f 133/12/2 134/12/2 141/12/2
f 141/12/2 134/12/2 142/12/2
f 138/12/2 139/12/2 143/12/2
f 143/12/2 139/12/2 144/12/2
f 140/12/2 141/12/2 145/12/2
f 145/12/2 141/12/2 146/12/2
f 144/12/2 145/12/2 147/12/2
f 147/12/2 145/12/2 148/12/2
f 149/11/2 150/11/2 152/11/2
f 152/11/2 150/11/2 153/11/2
f 151/11/2 152/11/2 155/11/2
f 153/11/2 154/11/2 155/11/2
f 152/11/2 153/11/2 155/11/2
f 155/11/2 154/11/2 156/11/2
f 156/11/2 154/11/2 157/11/2
f 157/11/2 154/11/2 158/11/2
f 158/11/2 154/11/2 159/11/2
f 156/11/2 157/11/2 161/11/2
f 157/12/2 158/12/2 162/12/2
f 161/11/2 157/11/2 162/11/2
f 160/11/2 161/11/2 164/11/2
f 164/11/2 161/11/2 165/11/2
f 162/12/2 158/12/2 166/12/2
f 166/12/2 158/12/2 167/12/2
f 163/12/2 164/12/2 169/12/2
f 169/12/2 164/12/2 170/12/2
f 167/12/2 168/12/2 172/12/2
f 170/12/2 171/12/2 173/12/2
f 171/12/2 172/12/2 173/12/2
f 173/12/2 172/12/2 174/12/2
f 172/12/2 168/12/2 175/12/2
f 174/12/2 172/12/2 175/12/2
f 175/12/2 168/12/2 176/12/2
f 174/12/2 175/12/2 177/12/2
f 177/12/2 175/12/2 178/12/2
f 181/12/2 182/12/2 184/12/2
f 184/12/2 182/12/2 185/12/2
f 179/11/2 180/11/2 186/11/2
f 186/11/2 180/11/2 187/11/2
f 183/12/2 184/12/2 188/12/2
f 184/11/2 185/11/2 189/11/2
f 188/12/2 184/12/2 189/12/2
f 185/11/2 186/11/2 189/11/2
f 189/11/2 186/11/2 190/11/2
f 191/4/2 192/4/2 193/4/2
f 193/4/2 192/4/2 194/4/2
f 197/12/3 196/12/3 195/12/3
f 199/12/3 197/12/3 195/12/3
f 199/12/3 198/12/3 197/12/3
f 200/12/3 198/12/3 199/12/3
f 201/12/3 199/12/3 195/12/3
f 202/12/3 199/12/3 201/12/3
f 208/12/3 204/12/3 203/12/3
f 209/12/3 204/12/3 208/12/3
f 212/11/3 206/11/3 205/11/3
f 213/11/3 206/11/3 212/11/3
f 214/11/3 208/11/3 207/11/3
f 215/11/3 208/11/3 214/11/3
f 216/11/3 208/11/3 215/11/3
f 217/12/3 210/12/3 209/12/3
f 218/12/3 210/12/3 217/12/3
f 220/8/3 212/8/3 211/8/3
f 221/4/3 213/4/3 212/4/3
f 221/8/3 212/8/3 220/8/3
f 221/4/3 214/4/3 213/4/3
f 222/12/3 215/12/3 214/12/3
f 222/4/3 214/4/3 221/4/3
f 223/5/3 216/5/3 215/5/3
f 223/12/3 215/12/3 222/12/3
f 224/4/3 222/4/3 221/4/3
f 224/8/3 220/8/3 211/8/3
f 224/4/3 223/4/3 222/4/3
f 224/4/3 221/4/3 220/4/3
f 225/4/3 223/4/3 224/4/3
f 226/4/3 223/4/3 225/4/3
f 227/5/3 216/5/3 223/5/3
f 227/4/3 223/4/3 226/4/3
f 228/8/3 224/8/3 211/8/3
f 228/8/3 225/8/3 224/8/3
f 229/4/3 226/4/3 225/4/3
f 229/8/3 225/8/3 228/8/3
f 230/4/3 226/4/3 229/4/3
f 231/12/3 227/12/3 226/12/3
f 231/4/3 226/4/3 230/4/3
f 232/5/3 216/5/3 227/5/3
f 232/12/3 227/12/3 231/12/3
f 233/5/3 216/5/3 232/5/3
f 235/12/3 219/12/3 218/12/3
f 236/12/3 219/12/3 235/12/3
f 237/11/3 230/11/3 229/11/3
f 238/11/3 230/11/3 237/11/3
f 239/11/3 233/11/3 232/11/3
f 239/11/3 232/11/3 231/11/3
f 240/11/3 233/11/3 239/11/3
f 241/12/3 235/12/3 234/12/3
f 242/12/3 235/12/3 241/12/3
f 243/12/3 241/12/3 240/12/3
f 244/12/3 241/12/3 243/12/3
f 247/4/3 246/4/3 245/4/3
f 248/4/3 246/4/3 247/4/3
f 249/5/3 248/5/3 247/5/3
f 250/5/3 248/5/3 249/5/3
f 254/12/3 252/12/3 251/12/3
f 255/12/3 252/12/3 254/12/3
f 261/8/3 250/8/3 249/8/3
f 262/8/3 250/8/3 261/8/3
f 263/12/3 254/12/3 253/12/3
f 264/12/3 254/12/3 263/12/3
f 265/12/3 257/12/3 256/12/3
f 266/12/3 257/12/3 265/12/3
f 268/12/3 259/12/3 258/12/3
f 269/10/3 260/10/3 259/10/3
f 269/12/3 259/12/3 268/12/3
f 270/10/3 260/10/3 269/10/3
f 274/12/3 272/12/3 271/12/3
f 275/10/3 273/10/3 272/10/3
f 275/12/3 272/12/3 274/12/3
f 276/10/3 273/10/3 275/10/3
f 282/12/3 267/12/3 266/12/3
f 283/12/3 267/12/3 282/12/3
f 284/11/3 280/11/3 279/11/3
f 285/11/3 280/11/3 284/11/3
f 287/12/3 282/12/3 281/12/3
f 288/12/3 282/12/3 287/12/3
f 289/8/3 278/8/3 277/8/3
f 290/8/3 278/8/3 289/8/3
f 291/12/3 286/12/3 285/12/3
f 292/12/3 286/12/3 291/12/3
f 293/5/3 290/5/3 289/5/3
f 294/5/3 290/5/3 293/5/3
f 295/4/3 294/4/3 293/4/3
f 296/4/3 294/4/3 295/4/3
f 299/11/3 298/11/3 297/11/3
f 300/11/3 298/11/3 299/11/3
f 303/11/3 302/11/3 301/11/3
f 304/11/3 302/11/3 303/11/3
f 307/11/3 306/11/3 305/11/3
f 308/11/3 306/11/3 307/11/3
f 311/11/3 310/11/3 309/11/3
f 312/11/3 310/11/3 311/11/3
f 313/4/4 314/4/4 315/4/4
f 315/4/4 314/4/4 316/4/4
f 315/5/4 316/5/4 317/5/4
f 317/5/4 316/5/4 318/5/4
f 317/8/4 318/8/4 321/8/4
f 319/12/4 320/12/4 322/12/4
f 322/12/4 320/12/4 323/12/4
f 317/8/4 321/8/4 327/8/4
f 327/8/4 321/8/4 328/8/4
f 324/12/4 325/12/4 329/12/4
f 325/10/4 326/10/4 330/10/4
f 329/12/4 325/12/4 330/12/4
f 330/10/4 326/10/4 331/10/4
f 332/12/4 333/12/4 335/12/4
f 333/10/4 334/10/4 336/10/4
f 335/12/4 333/12/4 336/12/4
f 336/10/4 334/10/4 337/10/4
f 338/8/4 339/8/4 340/8/4
f 338/8/4 340/8/4 343/8/4
f 343/8/4 340/8/4 344/8/4
f 341/12/4 342/12/4 345/12/4
f 345/12/4 342/12/4 346/12/4
f 343/5/4 344/5/4 347/5/4
f 347/5/4 344/5/4 348/5/4
f 347/4/4 348/4/4 349/4/4
f 349/4/4 348/4/4 350/4/4
f 351/11/4 352/11/4 355/11/4
f 355/11/4 352/11/4 356/11/4
f 353/11/4 354/11/4 360/11/4
f 360/11/4 354/11/4 361/11/4
f 357/12/4 358/12/4 362/12/4
f 362/12/4 358/12/4 363/12/4
f 359/7/4 360/7/4 365/7/4
f 365/7/4 360/7/4 366/7/4
f 363/12/4 364/12/4 369/12/4
f 369/12/4 364/12/4 370/12/4
f 366/11/4 367/11/4 371/11/4
f 371/11/4 367/11/4 372/11/4
f 368/12/4 369/12/4 375/12/4
f 375/12/4 369/12/4 376/12/4
f 373/11/4 374/11/4 377/11/4
f 377/11/4 374/11/4 378/11/4
f 379/11/4 380/11/4 382/11/4
f 382/11/4 380/11/4 383/11/4
f 383/11/4 380/11/4 384/11/4
f 381/11/4 382/11/4 387/11/4
f 387/11/4 382/11/4 388/11/4
f 383/12/4 384/12/4 389/12/4
f 384/12/4 385/12/4 389/12/4
f 389/12/4 385/12/4 390/12/4
f 386/11/4 387/11/4 392/11/4
f 386/11/4 392/11/4 393/11/4
f 386/11/4 393/11/4 394/11/4
f 394/11/4 393/11/4 395/11/4
f 390/12/4 391/12/4 398/12/4
f 398/12/4 391/12/4 399/12/4
f 395/11/4 396/11/4 400/11/4
f 396/12/4 397/12/4 401/12/4
f 400/11/4 396/11/4 401/11/4
f 397/12/4 398/12/4 401/12/4
f 401/12/4 398/12/4 402/12/4
f 402/12/4 398/12/4 403/12/4
f 401/11/4 402/11/4 404/11/4
f 404/11/4 402/11/4 405/11/4
f 406/12/4 407/12/4 409/12/4
f 409/12/4 407/12/4 410/12/4
f 408/12/4 409/12/4 412/12/4
f 409/11/4 410/11/4 413/11/4
f 412/12/4 409/12/4 413/12/4
f 410/12/4 411/12/4 414/12/4
f 413/11/4 410/11/4 414/11/4
f 412/11/4 413/11/4 415/11/4
f 413/12/4 414/12/4 416/12/4
f 415/11/4 413/11/4 416/11/4
f 414/12/4 411/12/4 417/12/4
f 416/12/4 414/12/4 417/12/4
f 415/12/4 416/12/4 418/12/4
f 416/11/4 417/11/4 419/11/4
f 418/12/4 416/12/4 419/12/4
f 417/12/4 411/12/4 420/12/4
f 419/11/4 417/11/4 420/11/4
f 420/12/4 411/12/4 421/12/4
f 426/12/5 423/12/5 422/12/5
f 427/12/5 423/12/5 426/12/5
f 428/12/5 425/12/5 424/12/5
f 429/12/5 425/12/5 428/12/5
f 432/8/5 431/8/5 430/8/5
f 433/8/5 431/8/5 432/8/5
f 434/8/5 431/8/5 433/8/5
f 435/8/5 431/8/5 434/8/5
f 437/5/5 434/5/5 433/5/5
f 438/5/5 434/5/5 437/5/5
f 440/7/5 437/7/5 436/7/5
f 440/7/5 439/7/5 438/7/5
f 440/7/5 438/7/5 437/7/5
f 441/7/5 439/7/5 440/7/5
f 450/4/5 443/4/5 442/4/5
f 451/5/5 444/5/5 443/5/5
f 451/4/5 443/4/5 450/4/5
f 452/8/5 445/8/5 444/8/5
f 452/5/5 444/5/5 451/5/5
f 453/8/5 445/8/5 452/8/5
f 454/8/5 447/8/5 446/8/5
f 455/5/5 448/5/5 447/5/5
f 455/8/5 447/8/5 454/8/5
f 456/4/5 449/4/5 448/4/5
f 456/5/5 448/5/5 455/5/5
f 457/4/5 449/4/5 456/4/5
f 462/11/5 459/11/5 458/11/5
f 463/11/5 459/11/5 462/11/5
f 464/11/5 461/11/5 460/11/5
f 465/11/5 461/11/5 464/11/5
f 466/11/5 464/11/5 463/11/5
f 467/11/5 464/11/5 466/11/5
f 472/11/5 469/11/5 468/11/5
f 473/11/5 469/11/5 472/11/5
f 474/11/5 471/11/5 470/11/5
f 475/12/5 473/12/5 472/12/5
f 476/12/5 473/12/5 475/12/5
f 477/11/5 471/11/5 474/11/5
f 478/11/5 471/11/5 477/11/5
f 483/11/5 480/11/5 479/11/5
f 484/11/5 480/11/5 483/11/5
f 487/11/5 482/11/5 481/11/5
f 488/11/5 482/11/5 487/11/5
f 489/12/5 485/12/5 484/12/5
f 490/11/5 486/11/5 485/11/5
f 490/12/5 485/12/5 489/12/5
f 491/12/5 487/12/5 486/12/5
f 491/11/5 486/11/5 490/11/5
f 492/12/5 487/12/5 491/12/5
f 497/11/5 494/11/5 493/11/5
f 498/11/5 494/11/5 497/11/5
f 500/11/5 496/11/5 495/11/5
f 501/11/5 496/11/5 500/11/5
f 502/12/5 499/12/5 498/12/5
f 503/12/5 499/12/5 502/12/5
f 509/11/5 505/11/5 504/11/5
f 510/11/5 505/11/5 509/11/5
f 511/11/5 507/11/5 506/11/5
f 512/11/5 507/11/5 511/11/5
f 514/12/5 509/12/5 508/12/5
f 515/12/5 509/12/5 514/12/5
f 516/12/5 513/12/5 512/12/5
f 517/12/5 513/12/5 516/12/5
f 520/12/5 519/12/5 518/12/5
f 521/12/5 519/12/5 520/12/5
f 525/12/5 523/12/5 522/12/5
f 526/12/5 523/12/5 525/12/5
f 527/12/5 523/12/5 526/12/5
f 528/12/5 523/12/5 527/12/5
f 530/12/5 525/12/5 524/12/5
f 531/12/5 525/12/5 530/12/5
f 532/12/5 529/12/5 528/12/5
f 533/12/5 529/12/5 532/12/5
f 536/11/5 535/11/5 534/11/5
f 537/11/5 535/11/5 536/11/5
f 538/4/6 539/4/6 546/4/6
f 539/5/6 540/5/6 547/5/6
f 546/4/6 539/4/6 547/4/6
f 540/8/6 541/8/6 548/8/6
f 547/5/6 540/5/6 548/5/6
f 548/8/6 541/8/6 549/8/6
f 549/8/6 541/8/6 550/8/6
f 542/8/6 543/8/6 551/8/6
f 551/8/6 543/8/6 552/8/6
f 543/5/6 544/5/6 553/5/6
f 552/8/6 543/8/6 553/8/6
f 544/4/6 545/4/6 554/4/6
f 553/5/6 544/5/6 554/5/6
f 554/4/6 545/4/6 555/4/6
f 556/11/6 557/11/6 560/11/6
f 560/11/6 557/11/6 561/11/6
f 558/11/6 559/11/6 562/11/6
f 562/11/6 559/11/6 563/11/6
f 564/12/6 565/12/6 566/12/6
f 566/12/6 565/12/6 567/12/6
f 568/11/6 569/11/6 572/11/6
f 572/11/6 569/11/6 573/11/6
f 570/11/6 571/11/6 574/11/6
f 574/11/6 571/11/6 575/11/6
f 576/12/6 577/12/6 581/12/6
f 581/12/6 577/12/6 582/12/6
f 578/12/6 579/12/6 583/12/6
f 583/12/6 579/12/6 584/12/6
f 580/12/6 581/12/6 586/12/6
f 586/12/6 581/12/6 587/12/6
f 584/12/6 585/12/6 588/12/6
f 588/12/6 585/12/6 589/12/6
f 586/11/6 587/11/6 590/11/6
f 590/11/6 587/11/6 591/11/6
f 588/11/6 589/11/6 592/11/6
f 592/11/6 589/11/6 593/11/6
f 594/12/6 595/12/6 597/12/6
f 597/12/6 595/12/6 598/12/6
f 596/12/6 597/12/6 600/12/6
f 600/12/6 597/12/6 601/12/6
f 598/12/6 599/12/6 602/12/6
f 602/12/6 599/12/6 603/12/6
f 604/12/6 605/12/6 608/12/6
f 608/12/6 605/12/6 609/12/6
f 606/12/6 607/12/6 610/12/6
f 610/12/6 607/12/6 611/12/6
f 609/12/6 610/12/6 612/12/6
f 612/12/6 610/12/6 613/12/6
f 614/12/6 615/12/6 617/12/6
f 617/12/6 615/12/6 618/12/6
f 616/12/6 617/12/6 620/12/6
f 620/12/6 617/12/6 621/12/6
f 618/12/6 619/12/6 622/12/6
f 622/12/6 619/12/6 623/12/6
f 621/12/6 622/12/6 624/12/6
f 624/12/6 622/12/6 625/12/6
f 626/12/6 627/12/6 628/12/6
f 628/12/6 627/12/6 629/12/6
