# MagicaVoxel @ Ephtracy

# group
o 

# material
mtllib chara_Skin5.mtl
usemtl palette

# normals
vn -1 0 0
vn 1 0 0
vn 0 0 1
vn 0 0 -1
vn 0 -1 0
vn 0 1 0

# texcoords
vt 0.00976563 0.5
vt 0.0136719 0.5
vt 0.0332031 0.5
vt 0.0605469 0.5
vt 0.634766 0.5
vt 0.958984 0.5
vt 0.994141 0.5

# verts
v -0.6 0 0
v -0.6 0 -0.1
v -0.6 0.1 0
v -0.6 0.1 -0.1
v -0.2 -0.4 0
v -0.2 -0.4 -0.1
v -0.2 -0.3 0
v -0.2 -0.3 -0.1
v -0.2 -0.2 0.1
v -0.2 -0.2 0
v -0.2 -0.2 -0.1
v -0.2 -0.2 -0.2
v -0.2 0 0
v -0.2 0 -0.1
v -0.2 0.1 0
v -0.2 0.1 -0.1
v -0.2 0.2 0.1
v -0.2 0.2 -0.2
v -0.2 0.4 0.1
v -0.2 0.4 0
v -0.2 0.4 -0.1
v -0.2 0.4 -0.2
v -0.2 0.5 0.1
v -0.2 0.5 0
v -0.2 0.5 -0.1
v -0.2 0.6 0.2
v -0.2 0.6 0.1
v -0.2 0.6 0
v -0.2 0.7 0.2
v -0.2 0.7 0.1
v -0.2 0.8 0.1
v -0.2 0.8 -0.2
v 0.1 -0.4 0
v 0.1 -0.4 -0.1
v 0.1 -0.3 0
v 0.1 -0.3 -0.1
v 0.1 -0.2 0
v 0.1 -0.2 -0.1
v -0.1 -0.4 0
v -0.1 -0.4 -0.1
v -0.1 -0.3 0
v -0.1 -0.3 -0.1
v -0.1 -0.2 0
v -0.1 -0.2 -0.1
v 0.2 -0.4 0
v 0.2 -0.4 -0.1
v 0.2 -0.3 0
v 0.2 -0.3 -0.1
v 0.2 -0.2 0.1
v 0.2 -0.2 0
v 0.2 -0.2 -0.1
v 0.2 -0.2 -0.2
v 0.2 0 0
v 0.2 0 -0.1
v 0.2 0.1 0
v 0.2 0.1 -0.1
v 0.2 0.2 0.1
v 0.2 0.2 -0.2
v 0.2 0.4 0.1
v 0.2 0.4 0
v 0.2 0.4 -0.1
v 0.2 0.4 -0.2
v 0.2 0.5 0.1
v 0.2 0.5 0
v 0.2 0.5 -0.1
v 0.2 0.6 0.2
v 0.2 0.6 0.1
v 0.2 0.6 0
v 0.2 0.7 0.2
v 0.2 0.7 0.1
v 0.2 0.8 0.1
v 0.2 0.8 -0.2
v 0.6 0 0
v 0.6 0 -0.1
v 0.6 0.1 0
v 0.6 0.1 -0.1
v -0.2 0.6 0.2
v -0.2 0.7 0.2
v 0.2 0.6 0.2
v 0.2 0.7 0.2
v -0.2 -0.2 0.1
v -0.2 0.2 0.1
v -0.2 0.4 0.1
v -0.2 0.5 0.1
v -0.2 0.6 0.1
v -0.2 0.7 0.1
v -0.2 0.8 0.1
v -0.1 0.1 0.1
v -0.1 0.2 0.1
v -0.1 0.3 0.1
v -0.1 0.4 0.1
v -0.1 0.5 0.1
v 0.1 0.1 0.1
v 0.1 0.2 0.1
v 0.1 0.3 0.1
v 0.1 0.4 0.1
v 0.1 0.5 0.1
v 0.2 -0.2 0.1
v 0.2 0.2 0.1
v 0.2 0.4 0.1
v 0.2 0.5 0.1
v 0.2 0.6 0.1
v 0.2 0.7 0.1
v 0.2 0.8 0.1
v -0.6 0 0
v -0.6 0.1 0
v -0.5 0 0
v -0.5 0.1 0
v -0.4 0 0
v -0.4 0.1 0
v -0.2 -0.4 0
v -0.2 -0.3 0
v -0.2 -0.2 0
v -0.2 0 0
v -0.2 0.1 0
v -0.1 -0.4 0
v -0.1 -0.3 0
v -0.1 -0.2 0
v 0.1 -0.4 0
v 0.1 -0.3 0
v 0.1 -0.2 0
v 0.2 -0.4 0
v 0.2 -0.3 0
v 0.2 -0.2 0
v 0.2 0 0
v 0.2 0.1 0
v 0.4 0 0
v 0.4 0.1 0
v 0.5 0 0
v 0.5 0.1 0
v 0.6 0 0
v 0.6 0.1 0
v -0.6 0 -0.1
v -0.6 0.1 -0.1
v -0.5 0 -0.1
v -0.5 0.1 -0.1
v -0.4 0 -0.1
v -0.4 0.1 -0.1
v -0.2 -0.4 -0.1
v -0.2 -0.3 -0.1
v -0.2 -0.2 -0.1
v -0.2 0 -0.1
v -0.2 0.1 -0.1
v -0.1 -0.4 -0.1
v -0.1 -0.3 -0.1
v -0.1 -0.2 -0.1
v 0.1 -0.4 -0.1
v 0.1 -0.3 -0.1
v 0.1 -0.2 -0.1
v 0.2 -0.4 -0.1
v 0.2 -0.3 -0.1
v 0.2 -0.2 -0.1
v 0.2 0 -0.1
v 0.2 0.1 -0.1
v 0.4 0 -0.1
v 0.4 0.1 -0.1
v 0.5 0 -0.1
v 0.5 0.1 -0.1
v 0.6 0 -0.1
v 0.6 0.1 -0.1
v -0.2 -0.2 -0.2
v -0.2 0.2 -0.2
v -0.2 0.4 -0.2
v -0.2 0.8 -0.2
v 0.2 -0.2 -0.2
v 0.2 0.2 -0.2
v 0.2 0.4 -0.2
v 0.2 0.8 -0.2
v -0.2 -0.4 0
v -0.1 -0.4 0
v 0.1 -0.4 0
v 0.2 -0.4 0
v -0.2 -0.4 -0.1
v -0.1 -0.4 -0.1
v 0.1 -0.4 -0.1
v 0.2 -0.4 -0.1
v -0.2 -0.2 0.1
v 0.2 -0.2 0.1
v -0.2 -0.2 0
v -0.1 -0.2 0
v 0.1 -0.2 0
v 0.2 -0.2 0
v -0.2 -0.2 -0.1
v -0.1 -0.2 -0.1
v 0.1 -0.2 -0.1
v 0.2 -0.2 -0.1
v -0.2 -0.2 -0.2
v 0.2 -0.2 -0.2
v -0.6 0 0
v -0.5 0 0
v -0.4 0 0
v -0.2 0 0
v 0.2 0 0
v 0.4 0 0
v 0.5 0 0
v 0.6 0 0
v -0.6 0 -0.1
v -0.5 0 -0.1
v -0.4 0 -0.1
v -0.2 0 -0.1
v 0.2 0 -0.1
v 0.4 0 -0.1
v 0.5 0 -0.1
v 0.6 0 -0.1
v -0.2 0.6 0.2
v 0.2 0.6 0.2
v -0.2 0.6 0.1
v 0.2 0.6 0.1
v -0.6 0.1 0
v -0.5 0.1 0
v -0.4 0.1 0
v -0.2 0.1 0
v 0.2 0.1 0
v 0.4 0.1 0
v 0.5 0.1 0
v 0.6 0.1 0
v -0.6 0.1 -0.1
v -0.5 0.1 -0.1
v -0.4 0.1 -0.1
v -0.2 0.1 -0.1
v 0.2 0.1 -0.1
v 0.4 0.1 -0.1
v 0.5 0.1 -0.1
v 0.6 0.1 -0.1
v -0.2 0.7 0.2
v 0.2 0.7 0.2
v -0.2 0.7 0.1
v 0.2 0.7 0.1
v -0.2 0.8 0.1
v 0.2 0.8 0.1
v -0.2 0.8 -0.2
v 0.2 0.8 -0.2

# faces
f 3/3/1 2/3/1 1/3/1
f 4/3/1 2/3/1 3/3/1
f 7/7/1 6/7/1 5/7/1
f 8/7/1 6/7/1 7/7/1
f 10/6/1 8/6/1 7/6/1
f 11/6/1 8/6/1 10/6/1
f 13/7/1 11/7/1 10/7/1
f 13/7/1 12/7/1 11/7/1
f 13/7/1 10/7/1 9/7/1
f 14/7/1 12/7/1 13/7/1
f 15/7/1 13/7/1 9/7/1
f 16/7/1 12/7/1 14/7/1
f 17/7/1 15/7/1 9/7/1
f 17/7/1 16/7/1 15/7/1
f 18/7/1 12/7/1 16/7/1
f 18/7/1 16/7/1 17/7/1
f 19/3/1 18/3/1 17/3/1
f 20/3/1 18/3/1 19/3/1
f 21/3/1 18/3/1 20/3/1
f 22/3/1 18/3/1 21/3/1
f 23/7/1 20/7/1 19/7/1
f 24/4/1 21/4/1 20/4/1
f 24/7/1 20/7/1 23/7/1
f 25/1/1 22/1/1 21/1/1
f 25/4/1 21/4/1 24/4/1
f 27/4/1 24/4/1 23/4/1
f 28/1/1 25/1/1 24/1/1
f 28/4/1 24/4/1 27/4/1
f 29/1/1 27/1/1 26/1/1
f 29/1/1 28/1/1 27/1/1
f 30/1/1 28/1/1 29/1/1
f 31/1/1 28/1/1 30/1/1
f 32/1/1 22/1/1 25/1/1
f 32/1/1 28/1/1 31/1/1
f 32/1/1 25/1/1 28/1/1
f 35/7/1 34/7/1 33/7/1
f 36/7/1 34/7/1 35/7/1
f 37/6/1 36/6/1 35/6/1
f 38/6/1 36/6/1 37/6/1
f 39/7/2 40/7/2 41/7/2
f 41/7/2 40/7/2 42/7/2
f 41/6/2 42/6/2 43/6/2
f 43/6/2 42/6/2 44/6/2
f 45/7/2 46/7/2 47/7/2
f 47/7/2 46/7/2 48/7/2
f 47/6/2 48/6/2 50/6/2
f 50/6/2 48/6/2 51/6/2
f 50/7/2 51/7/2 53/7/2
f 51/7/2 52/7/2 53/7/2
f 49/7/2 50/7/2 53/7/2
f 53/7/2 52/7/2 54/7/2
f 49/7/2 53/7/2 55/7/2
f 54/7/2 52/7/2 56/7/2
f 49/7/2 55/7/2 57/7/2
f 55/7/2 56/7/2 57/7/2
f 56/7/2 52/7/2 58/7/2
f 57/7/2 56/7/2 58/7/2
f 57/3/2 58/3/2 59/3/2
f 59/3/2 58/3/2 60/3/2
f 60/3/2 58/3/2 61/3/2
f 61/3/2 58/3/2 62/3/2
f 59/7/2 60/7/2 63/7/2
f 60/4/2 61/4/2 64/4/2
f 63/7/2 60/7/2 64/7/2
f 61/1/2 62/1/2 65/1/2
f 64/4/2 61/4/2 65/4/2
f 63/4/2 64/4/2 67/4/2
f 64/1/2 65/1/2 68/1/2
f 67/4/2 64/4/2 68/4/2
f 66/1/2 67/1/2 69/1/2
f 67/1/2 68/1/2 69/1/2
f 69/1/2 68/1/2 70/1/2
f 70/1/2 68/1/2 71/1/2
f 65/1/2 62/1/2 72/1/2
f 71/1/2 68/1/2 72/1/2
f 68/1/2 65/1/2 72/1/2
f 73/3/2 74/3/2 75/3/2
f 75/3/2 74/3/2 76/3/2
f 79/1/3 78/1/3 77/1/3
f 80/1/3 78/1/3 79/1/3
f 88/7/3 82/7/3 81/7/3
f 89/3/3 83/3/3 82/3/3
f 89/7/3 82/7/3 88/7/3
f 90/3/3 83/3/3 89/3/3
f 91/7/3 84/7/3 83/7/3
f 91/3/3 83/3/3 90/3/3
f 92/4/3 85/4/3 84/4/3
f 92/7/3 84/7/3 91/7/3
f 93/7/3 88/7/3 81/7/3
f 93/3/3 89/3/3 88/3/3
f 94/6/3 90/6/3 89/6/3
f 94/3/3 89/3/3 93/3/3
f 95/3/3 91/3/3 90/3/3
f 95/6/3 90/6/3 94/6/3
f 95/3/3 92/3/3 91/3/3
f 96/3/3 92/3/3 95/3/3
f 97/4/3 85/4/3 92/4/3
f 97/3/3 92/3/3 96/3/3
f 98/7/3 93/7/3 81/7/3
f 98/7/3 94/7/3 93/7/3
f 99/3/3 96/3/3 95/3/3
f 99/7/3 94/7/3 98/7/3
f 99/3/3 95/3/3 94/3/3
f 100/7/3 97/7/3 96/7/3
f 100/3/3 96/3/3 99/3/3
f 101/4/3 85/4/3 97/4/3
f 101/7/3 97/7/3 100/7/3
f 102/4/3 85/4/3 101/4/3
f 103/1/3 87/1/3 86/1/3
f 104/1/3 87/1/3 103/1/3
f 107/3/3 106/3/3 105/3/3
f 108/3/3 106/3/3 107/3/3
f 109/4/3 108/4/3 107/4/3
f 110/4/3 108/4/3 109/4/3
f 114/7/3 110/7/3 109/7/3
f 115/7/3 110/7/3 114/7/3
f 116/7/3 112/7/3 111/7/3
f 117/6/3 113/6/3 112/6/3
f 117/7/3 112/7/3 116/7/3
f 118/6/3 113/6/3 117/6/3
f 122/7/3 120/7/3 119/7/3
f 123/6/3 121/6/3 120/6/3
f 123/7/3 120/7/3 122/7/3
f 124/6/3 121/6/3 123/6/3
f 127/7/3 126/7/3 125/7/3
f 128/7/3 126/7/3 127/7/3
f 129/4/3 128/4/3 127/4/3
f 130/4/3 128/4/3 129/4/3
f 131/3/3 130/3/3 129/3/3
f 132/3/3 130/3/3 131/3/3
f 133/3/4 134/3/4 135/3/4
f 135/3/4 134/3/4 136/3/4
f 135/4/4 136/4/4 137/4/4
f 137/4/4 136/4/4 138/4/4
f 137/7/4 138/7/4 142/7/4
f 142/7/4 138/7/4 143/7/4
f 139/7/4 140/7/4 144/7/4
f 140/6/4 141/6/4 145/6/4
f 144/7/4 140/7/4 145/7/4
f 145/6/4 141/6/4 146/6/4
f 147/7/4 148/7/4 150/7/4
f 148/6/4 149/6/4 151/6/4
f 150/7/4 148/7/4 151/7/4
f 151/6/4 149/6/4 152/6/4
f 153/7/4 154/7/4 155/7/4
f 155/7/4 154/7/4 156/7/4
f 155/4/4 156/4/4 157/4/4
f 157/4/4 156/4/4 158/4/4
f 157/3/4 158/3/4 159/3/4
f 159/3/4 158/3/4 160/3/4
f 161/7/4 162/7/4 165/7/4
f 162/3/4 163/3/4 166/3/4
f 165/7/4 162/7/4 166/7/4
f 163/1/4 164/1/4 167/1/4
f 166/3/4 163/3/4 167/3/4
f 167/1/4 164/1/4 168/1/4
f 173/7/5 170/7/5 169/7/5
f 174/7/5 170/7/5 173/7/5
f 175/7/5 172/7/5 171/7/5
f 176/7/5 172/7/5 175/7/5
f 179/7/5 178/7/5 177/7/5
f 180/7/5 178/7/5 179/7/5
f 181/7/5 178/7/5 180/7/5
f 182/7/5 178/7/5 181/7/5
f 184/4/5 181/4/5 180/4/5
f 185/4/5 181/4/5 184/4/5
f 187/7/5 184/7/5 183/7/5
f 187/7/5 186/7/5 185/7/5
f 187/7/5 185/7/5 184/7/5
f 188/7/5 186/7/5 187/7/5
f 197/3/5 190/3/5 189/3/5
f 198/4/5 191/4/5 190/4/5
f 198/3/5 190/3/5 197/3/5
f 199/7/5 192/7/5 191/7/5
f 199/4/5 191/4/5 198/4/5
f 200/7/5 192/7/5 199/7/5
f 201/7/5 194/7/5 193/7/5
f 202/4/5 195/4/5 194/4/5
f 202/7/5 194/7/5 201/7/5
f 203/3/5 196/3/5 195/3/5
f 203/4/5 195/4/5 202/4/5
f 204/3/5 196/3/5 203/3/5
f 207/1/5 206/1/5 205/1/5
f 208/1/5 206/1/5 207/1/5
f 209/3/6 210/3/6 217/3/6
f 210/4/6 211/4/6 218/4/6
f 217/3/6 210/3/6 218/3/6
f 211/7/6 212/7/6 219/7/6
f 218/4/6 211/4/6 219/4/6
f 219/7/6 212/7/6 220/7/6
f 213/7/6 214/7/6 221/7/6
f 214/4/6 215/4/6 222/4/6
f 221/7/6 214/7/6 222/7/6
f 215/3/6 216/3/6 223/3/6
f 222/4/6 215/4/6 223/4/6
f 223/3/6 216/3/6 224/3/6
f 225/1/6 226/1/6 227/1/6
f 227/1/6 226/1/6 228/1/6
f 229/1/6 230/1/6 231/1/6
f 231/1/6 230/1/6 232/1/6
