# MagicaVoxel @ Ephtracy

# group
o 

# material
mtllib PNJ1.mtl
usemtl palette

# normals
vn -1 0 0
vn 1 0 0
vn 0 0 1
vn 0 0 -1
vn 0 -1 0
vn 0 1 0

# texcoords
vt 0.00195313 0.5
vt 0.00976563 0.5
vt 0.0136719 0.5
vt 0.0332031 0.5
vt 0.0371094 0.5
vt 0.0605469 0.5
vt 0.634766 0.5
vt 0.853516 0.5
vt 0.994141 0.5

# verts
v -0.6 0 0
v -0.6 0 -0.1
v -0.6 0.1 0
v -0.6 0.1 -0.1
v -0.4 0.4 0
v -0.4 0.4 -0.1
v -0.4 0.4 -0.2
v -0.4 0.4 -0.3
v -0.4 0.5 0
v -0.4 0.5 -0.1
v -0.4 0.5 -0.2
v -0.4 0.6 0.1
v -0.4 0.6 0
v -0.4 0.6 -0.2
v -0.4 0.6 -0.3
v -0.4 0.7 0.1
v -0.4 0.7 -0.2
v -0.3 0.1 0
v -0.3 0.1 -0.1
v -0.3 0.1 -0.2
v -0.3 0.2 0.1
v -0.3 0.2 0
v -0.3 0.2 -0.1
v -0.3 0.2 -0.2
v -0.3 0.2 -0.3
v -0.3 0.3 0.1
v -0.3 0.3 0
v -0.3 0.4 0.1
v -0.3 0.4 0
v -0.3 0.4 -0.1
v -0.3 0.4 -0.2
v -0.3 0.4 -0.3
v -0.3 0.5 0
v -0.3 0.5 -0.1
v -0.3 0.5 -0.2
v -0.3 0.6 0.2
v -0.3 0.6 0.1
v -0.3 0.6 0
v -0.3 0.6 -0.2
v -0.3 0.6 -0.3
v -0.3 0.7 0.2
v -0.3 0.7 0.1
v -0.3 0.7 -0.2
v -0.3 0.8 0.1
v -0.3 0.8 0
v -0.3 0.8 -0.2
v -0.3 0.8 -0.3
v -0.3 0.9 0
v -0.3 0.9 -0.2
v -0.2 -0.4 0
v -0.2 -0.4 -0.1
v -0.2 -0.3 0
v -0.2 -0.3 -0.1
v -0.2 -0.2 0.1
v -0.2 -0.2 0
v -0.2 -0.2 -0.1
v -0.2 -0.2 -0.2
v -0.2 0 0
v -0.2 0 -0.1
v -0.2 0.1 0
v -0.2 0.1 -0.1
v -0.2 0.1 -0.2
v -0.2 0.1 -0.3
v -0.2 0.2 0.1
v -0.2 0.2 0
v -0.2 0.2 -0.2
v -0.2 0.2 -0.3
v -0.2 0.2 -0.4
v -0.2 0.3 0.1
v -0.2 0.3 0
v -0.2 0.3 -0.3
v -0.2 0.3 -0.4
v -0.2 0.4 0.1
v -0.2 0.4 0
v -0.2 0.4 -0.3
v -0.2 0.4 -0.4
v -0.2 0.7 0.2
v -0.2 0.7 0.1
v -0.2 0.8 0.2
v -0.2 0.8 0.1
v -0.2 0.8 0
v -0.2 0.8 -0.2
v -0.2 0.8 -0.3
v -0.2 0.8 -0.4
v -0.2 0.9 0.1
v -0.2 0.9 0
v -0.2 0.9 -0.2
v -0.2 0.9 -0.3
v -0.2 1 0
v -0.2 1 -0.2
v 0.1 -0.4 0
v 0.1 -0.4 -0.1
v 0.1 -0.3 0
v 0.1 -0.3 -0.1
v 0.1 -0.2 0
v 0.1 -0.2 -0.1
v -0.1 -0.4 0
v -0.1 -0.4 -0.1
v -0.1 -0.3 0
v -0.1 -0.3 -0.1
v -0.1 -0.2 0
v -0.1 -0.2 -0.1
v 0.2 -0.4 0
v 0.2 -0.4 -0.1
v 0.2 -0.3 0
v 0.2 -0.3 -0.1
v 0.2 -0.2 0.1
v 0.2 -0.2 0
v 0.2 -0.2 -0.1
v 0.2 -0.2 -0.2
v 0.2 0 0
v 0.2 0 -0.1
v 0.2 0.1 0
v 0.2 0.1 -0.1
v 0.2 0.1 -0.2
v 0.2 0.1 -0.3
v 0.2 0.2 0.1
v 0.2 0.2 0
v 0.2 0.2 -0.2
v 0.2 0.2 -0.3
v 0.2 0.2 -0.4
v 0.2 0.3 0.1
v 0.2 0.3 0
v 0.2 0.3 -0.3
v 0.2 0.3 -0.4
v 0.2 0.4 0.1
v 0.2 0.4 0
v 0.2 0.4 -0.3
v 0.2 0.4 -0.4
v 0.2 0.7 0.2
v 0.2 0.7 0.1
v 0.2 0.8 0.2
v 0.2 0.8 0.1
v 0.2 0.8 0
v 0.2 0.8 -0.2
v 0.2 0.8 -0.3
v 0.2 0.8 -0.4
v 0.2 0.9 0.1
v 0.2 0.9 0
v 0.2 0.9 -0.2
v 0.2 0.9 -0.3
v 0.2 1 0
v 0.2 1 -0.2
v 0.3 0.1 0
v 0.3 0.1 -0.1
v 0.3 0.1 -0.2
v 0.3 0.2 0.1
v 0.3 0.2 0
v 0.3 0.2 -0.1
v 0.3 0.2 -0.2
v 0.3 0.2 -0.3
v 0.3 0.3 0.1
v 0.3 0.3 0
v 0.3 0.3 -0.1
v 0.3 0.3 -0.2
v 0.3 0.3 -0.3
v 0.3 0.4 0.1
v 0.3 0.4 0
v 0.3 0.4 -0.1
v 0.3 0.5 0
v 0.3 0.6 0.2
v 0.3 0.6 0.1
v 0.3 0.6 0
v 0.3 0.7 0.2
v 0.3 0.7 0.1
v 0.3 0.7 -0.2
v 0.3 0.8 0.1
v 0.3 0.8 0
v 0.3 0.8 -0.2
v 0.3 0.8 -0.3
v 0.3 0.9 0
v 0.3 0.9 -0.2
v 0.4 0.3 -0.1
v 0.4 0.3 -0.2
v 0.4 0.4 0
v 0.4 0.4 -0.1
v 0.4 0.5 0
v 0.4 0.5 -0.1
v 0.4 0.6 0.1
v 0.4 0.6 0
v 0.4 0.7 0.1
v 0.4 0.7 -0.2
v 0.6 0 0
v 0.6 0 -0.1
v 0.6 0.1 0
v 0.6 0.1 -0.1
v -0.3 0.6 0.2
v -0.3 0.7 0.2
v -0.2 0.7 0.2
v -0.2 0.8 0.2
v 0.2 0.7 0.2
v 0.2 0.8 0.2
v 0.3 0.6 0.2
v 0.3 0.7 0.2
v -0.4 0.6 0.1
v -0.4 0.7 0.1
v -0.3 0.2 0.1
v -0.3 0.3 0.1
v -0.3 0.4 0.1
v -0.3 0.6 0.1
v -0.3 0.7 0.1
v -0.3 0.8 0.1
v -0.2 -0.2 0.1
v -0.2 0.2 0.1
v -0.2 0.3 0.1
v -0.2 0.4 0.1
v -0.2 0.5 0.1
v -0.2 0.6 0.1
v -0.2 0.7 0.1
v -0.2 0.8 0.1
v -0.2 0.9 0.1
v -0.1 0.1 0.1
v -0.1 0.2 0.1
v -0.1 0.4 0.1
v -0.1 0.5 0.1
v 0.1 0.1 0.1
v 0.1 0.2 0.1
v 0.1 0.4 0.1
v 0.1 0.5 0.1
v 0.2 -0.2 0.1
v 0.2 0.2 0.1
v 0.2 0.3 0.1
v 0.2 0.4 0.1
v 0.2 0.5 0.1
v 0.2 0.6 0.1
v 0.2 0.7 0.1
v 0.2 0.8 0.1
v 0.2 0.9 0.1
v 0.3 0.2 0.1
v 0.3 0.3 0.1
v 0.3 0.4 0.1
v 0.3 0.6 0.1
v 0.3 0.7 0.1
v 0.3 0.8 0.1
v 0.4 0.6 0.1
v 0.4 0.7 0.1
v -0.6 0 0
v -0.6 0.1 0
v -0.5 0 0
v -0.5 0.1 0
v -0.4 0 0
v -0.4 0.1 0
v -0.4 0.4 0
v -0.4 0.5 0
v -0.4 0.6 0
v -0.3 0.1 0
v -0.3 0.2 0
v -0.3 0.3 0
v -0.3 0.4 0
v -0.3 0.5 0
v -0.3 0.6 0
v -0.3 0.8 0
v -0.3 0.9 0
v -0.2 -0.4 0
v -0.2 -0.3 0
v -0.2 -0.2 0
v -0.2 0 0
v -0.2 0.1 0
v -0.2 0.2 0
v -0.2 0.3 0
v -0.2 0.4 0
v -0.2 0.8 0
v -0.2 0.9 0
v -0.2 1 0
v -0.1 -0.4 0
v -0.1 -0.3 0
v -0.1 -0.2 0
v 0.1 -0.4 0
v 0.1 -0.3 0
v 0.1 -0.2 0
v 0.2 -0.4 0
v 0.2 -0.3 0
v 0.2 -0.2 0
v 0.2 0 0
v 0.2 0.1 0
v 0.2 0.2 0
v 0.2 0.3 0
v 0.2 0.4 0
v 0.2 0.8 0
v 0.2 0.9 0
v 0.2 1 0
v 0.3 0.1 0
v 0.3 0.2 0
v 0.3 0.3 0
v 0.3 0.4 0
v 0.3 0.5 0
v 0.3 0.6 0
v 0.3 0.8 0
v 0.3 0.9 0
v 0.4 0 0
v 0.4 0.1 0
v 0.4 0.4 0
v 0.4 0.5 0
v 0.4 0.6 0
v 0.5 0 0
v 0.5 0.1 0
v 0.6 0 0
v 0.6 0.1 0
v 0.3 0.3 -0.1
v 0.3 0.4 -0.1
v 0.4 0.3 -0.1
v 0.4 0.4 -0.1
v -0.4 0.4 -0.2
v -0.4 0.5 -0.2
v -0.3 0.4 -0.2
v -0.3 0.5 -0.2
v -0.6 0 -0.1
v -0.6 0.1 -0.1
v -0.5 0 -0.1
v -0.5 0.1 -0.1
v -0.4 0 -0.1
v -0.4 0.1 -0.1
v -0.4 0.4 -0.1
v -0.4 0.5 -0.1
v -0.3 0.1 -0.1
v -0.3 0.4 -0.1
v -0.3 0.5 -0.1
v -0.2 -0.4 -0.1
v -0.2 -0.3 -0.1
v -0.2 -0.2 -0.1
v -0.2 0 -0.1
v -0.2 0.1 -0.1
v -0.1 -0.4 -0.1
v -0.1 -0.3 -0.1
v -0.1 -0.2 -0.1
v 0.1 -0.4 -0.1
v 0.1 -0.3 -0.1
v 0.1 -0.2 -0.1
v 0.2 -0.4 -0.1
v 0.2 -0.3 -0.1
v 0.2 -0.2 -0.1
v 0.2 0 -0.1
v 0.2 0.1 -0.1
v 0.3 0.1 -0.1
v 0.4 0 -0.1
v 0.4 0.1 -0.1
v 0.5 0 -0.1
v 0.5 0.1 -0.1
v 0.6 0 -0.1
v 0.6 0.1 -0.1
v -0.4 0.6 -0.2
v -0.4 0.7 -0.2
v -0.3 0.1 -0.2
v -0.3 0.2 -0.2
v -0.3 0.6 -0.2
v -0.3 0.7 -0.2
v -0.3 0.8 -0.2
v -0.3 0.9 -0.2
v -0.2 -0.2 -0.2
v -0.2 0.1 -0.2
v -0.2 0.2 -0.2
v -0.2 0.8 -0.2
v -0.2 0.9 -0.2
v -0.2 1 -0.2
v 0.2 -0.2 -0.2
v 0.2 0.1 -0.2
v 0.2 0.2 -0.2
v 0.2 0.8 -0.2
v 0.2 0.9 -0.2
v 0.2 1 -0.2
v 0.3 0.1 -0.2
v 0.3 0.2 -0.2
v 0.3 0.3 -0.2
v 0.3 0.7 -0.2
v 0.3 0.8 -0.2
v 0.3 0.9 -0.2
v 0.4 0.3 -0.2
v 0.4 0.7 -0.2
v -0.4 0.4 -0.3
v -0.4 0.6 -0.3
v -0.3 0.2 -0.3
v -0.3 0.4 -0.3
v -0.3 0.6 -0.3
v -0.3 0.8 -0.3
v -0.2 0.1 -0.3
v -0.2 0.2 -0.3
v -0.2 0.3 -0.3
v -0.2 0.4 -0.3
v -0.2 0.8 -0.3
v -0.2 0.9 -0.3
v -0.1 0.2 -0.3
v 0.1 0.2 -0.3
v 0.2 0.1 -0.3
v 0.2 0.2 -0.3
v 0.2 0.3 -0.3
v 0.2 0.4 -0.3
v 0.2 0.8 -0.3
v 0.2 0.9 -0.3
v 0.3 0.2 -0.3
v 0.3 0.3 -0.3
v 0.3 0.8 -0.3
v -0.2 0.2 -0.4
v -0.2 0.3 -0.4
v -0.2 0.4 -0.4
v -0.2 0.8 -0.4
v -0.1 0.2 -0.4
v -0.1 0.3 -0.4
v -0.1 0.4 -0.4
v 0.1 0.2 -0.4
v 0.1 0.3 -0.4
v 0.1 0.4 -0.4
v 0.2 0.2 -0.4
v 0.2 0.3 -0.4
v 0.2 0.4 -0.4
v 0.2 0.8 -0.4
v -0.2 -0.4 0
v -0.1 -0.4 0
v 0.1 -0.4 0
v 0.2 -0.4 0
v -0.2 -0.4 -0.1
v -0.1 -0.4 -0.1
v 0.1 -0.4 -0.1
v 0.2 -0.4 -0.1
v -0.2 -0.2 0.1
v 0.2 -0.2 0.1
v -0.2 -0.2 0
v -0.1 -0.2 0
v 0.1 -0.2 0
v 0.2 -0.2 0
v -0.2 -0.2 -0.1
v -0.1 -0.2 -0.1
v 0.1 -0.2 -0.1
v 0.2 -0.2 -0.1
v -0.2 -0.2 -0.2
v 0.2 -0.2 -0.2
v -0.6 0 0
v -0.5 0 0
v -0.4 0 0
v -0.2 0 0
v 0.2 0 0
v 0.4 0 0
v 0.5 0 0
v 0.6 0 0
v -0.6 0 -0.1
v -0.5 0 -0.1
v -0.4 0 -0.1
v -0.2 0 -0.1
v 0.2 0 -0.1
v 0.4 0 -0.1
v 0.5 0 -0.1
v 0.6 0 -0.1
v -0.3 0.1 -0.1
v -0.2 0.1 -0.1
v 0.2 0.1 -0.1
v 0.3 0.1 -0.1
v -0.3 0.1 -0.2
v -0.2 0.1 -0.2
v 0.2 0.1 -0.2
v 0.3 0.1 -0.2
v -0.2 0.1 -0.3
v 0.2 0.1 -0.3
v -0.3 0.2 0.1
v -0.2 0.2 0.1
v 0.2 0.2 0.1
v 0.3 0.2 0.1
v -0.3 0.2 0
v -0.2 0.2 0
v 0.2 0.2 0
v 0.3 0.2 0
v -0.3 0.2 -0.2
v -0.2 0.2 -0.2
v 0.2 0.2 -0.2
v 0.3 0.2 -0.2
v -0.3 0.2 -0.3
v -0.2 0.2 -0.3
v -0.1 0.2 -0.3
v 0.1 0.2 -0.3
v 0.2 0.2 -0.3
v 0.3 0.2 -0.3
v -0.2 0.2 -0.4
v -0.1 0.2 -0.4
v 0.1 0.2 -0.4
v 0.2 0.2 -0.4
v 0.3 0.3 -0.1
v 0.4 0.3 -0.1
v 0.3 0.3 -0.2
v 0.4 0.3 -0.2
v -0.3 0.4 0.1
v -0.2 0.4 0.1
v 0.2 0.4 0.1
v 0.3 0.4 0.1
v -0.4 0.4 0
v -0.3 0.4 0
v -0.2 0.4 0
v 0.2 0.4 0
v 0.3 0.4 0
v 0.4 0.4 0
v -0.4 0.4 -0.1
v -0.3 0.4 -0.1
v 0.3 0.4 -0.1
v 0.4 0.4 -0.1
v -0.4 0.4 -0.2
v -0.3 0.4 -0.2
v -0.4 0.4 -0.3
v -0.3 0.4 -0.3
v -0.4 0.5 -0.1
v -0.3 0.5 -0.1
v -0.4 0.5 -0.2
v -0.3 0.5 -0.2
v -0.3 0.6 0.2
v 0.3 0.6 0.2
v -0.4 0.6 0.1
v -0.3 0.6 0.1
v -0.2 0.6 0.1
v 0.2 0.6 0.1
v 0.3 0.6 0.1
v 0.4 0.6 0.1
v -0.4 0.6 0
v -0.3 0.6 0
v 0.3 0.6 0
v 0.4 0.6 0
v -0.6 0.1 0
v -0.5 0.1 0
v -0.4 0.1 0
v -0.3 0.1 0
v 0.3 0.1 0
v 0.4 0.1 0
v 0.5 0.1 0
v 0.6 0.1 0
v -0.6 0.1 -0.1
v -0.5 0.1 -0.1
v -0.4 0.1 -0.1
v -0.3 0.1 -0.1
v 0.3 0.1 -0.1
v 0.4 0.1 -0.1
v 0.5 0.1 -0.1
v 0.6 0.1 -0.1
v -0.3 0.3 0.1
v -0.2 0.3 0.1
v 0.2 0.3 0.1
v 0.3 0.3 0.1
v -0.3 0.3 0
v -0.2 0.3 0
v 0.2 0.3 0
v 0.3 0.3 0
v -0.4 0.6 -0.2
v -0.3 0.6 -0.2
v -0.4 0.6 -0.3
v -0.3 0.6 -0.3
v -0.3 0.7 0.2
v -0.2 0.7 0.2
v 0.2 0.7 0.2
v 0.3 0.7 0.2
v -0.4 0.7 0.1
v -0.3 0.7 0.1
v -0.2 0.7 0.1
v 0.2 0.7 0.1
v 0.3 0.7 0.1
v 0.4 0.7 0.1
v -0.4 0.7 -0.2
v -0.3 0.7 -0.2
v 0.3 0.7 -0.2
v 0.4 0.7 -0.2
v -0.2 0.8 0.2
v 0.2 0.8 0.2
v -0.3 0.8 0.1
v -0.2 0.8 0.1
v 0.2 0.8 0.1
v 0.3 0.8 0.1
v -0.3 0.8 0
v -0.2 0.8 0
v 0.2 0.8 0
v 0.3 0.8 0
v -0.3 0.8 -0.2
v -0.2 0.8 -0.2
v 0.2 0.8 -0.2
v 0.3 0.8 -0.2
v -0.3 0.8 -0.3
v -0.2 0.8 -0.3
v 0.2 0.8 -0.3
v 0.3 0.8 -0.3
v -0.2 0.8 -0.4
v 0.2 0.8 -0.4
v -0.2 0.9 0.1
v 0.2 0.9 0.1
v -0.3 0.9 0
v -0.2 0.9 0
v 0.2 0.9 0
v 0.3 0.9 0
v -0.3 0.9 -0.2
v -0.2 0.9 -0.2
v 0.2 0.9 -0.2
v 0.3 0.9 -0.2
v -0.2 0.9 -0.3
v 0.2 0.9 -0.3
v -0.2 1 0
v 0.2 1 0
v -0.2 1 -0.2
v 0.2 1 -0.2

# faces
f 3/4/1 2/4/1 1/4/1
f 4/4/1 2/4/1 3/4/1
f 9/6/1 6/6/1 5/6/1
f 10/6/1 6/6/1 9/6/1
f 11/3/1 8/3/1 7/3/1
f 13/3/1 10/3/1 9/3/1
f 13/3/1 11/3/1 10/3/1
f 14/3/1 8/3/1 11/3/1
f 14/3/1 11/3/1 13/3/1
f 15/3/1 8/3/1 14/3/1
f 16/3/1 13/3/1 12/3/1
f 16/3/1 14/3/1 13/3/1
f 17/3/1 14/3/1 16/3/1
f 22/5/1 19/5/1 18/5/1
f 23/2/1 20/2/1 19/2/1
f 23/5/1 19/5/1 22/5/1
f 24/2/1 20/2/1 23/2/1
f 26/3/1 22/3/1 21/3/1
f 27/2/1 25/2/1 24/2/1
f 27/3/1 22/3/1 26/3/1
f 27/2/1 23/2/1 22/2/1
f 27/2/1 24/2/1 23/2/1
f 29/2/1 25/2/1 27/2/1
f 30/2/1 25/2/1 29/2/1
f 31/2/1 25/2/1 30/2/1
f 32/2/1 25/2/1 31/2/1
f 33/3/1 29/3/1 28/3/1
f 34/3/1 31/3/1 30/3/1
f 35/3/1 31/3/1 34/3/1
f 37/3/1 33/3/1 28/3/1
f 38/3/1 33/3/1 37/3/1
f 41/3/1 37/3/1 36/3/1
f 42/3/1 37/3/1 41/3/1
f 43/3/1 40/3/1 39/3/1
f 44/3/1 43/3/1 42/3/1
f 45/3/1 43/3/1 44/3/1
f 46/3/1 40/3/1 43/3/1
f 46/3/1 43/3/1 45/3/1
f 47/3/1 40/3/1 46/3/1
f 48/3/1 46/3/1 45/3/1
f 49/3/1 46/3/1 48/3/1
f 52/9/1 51/9/1 50/9/1
f 53/9/1 51/9/1 52/9/1
f 55/8/1 53/8/1 52/8/1
f 56/8/1 53/8/1 55/8/1
f 58/8/1 56/8/1 55/8/1
f 58/8/1 57/8/1 56/8/1
f 58/8/1 55/8/1 54/8/1
f 59/8/1 57/8/1 58/8/1
f 60/8/1 58/8/1 54/8/1
f 61/8/1 57/8/1 59/8/1
f 62/8/1 57/8/1 61/8/1
f 64/8/1 60/8/1 54/8/1
f 65/8/1 60/8/1 64/8/1
f 66/2/1 63/2/1 62/2/1
f 67/2/1 63/2/1 66/2/1
f 71/3/1 68/3/1 67/3/1
f 72/3/1 68/3/1 71/3/1
f 73/4/1 70/4/1 69/4/1
f 74/4/1 70/4/1 73/4/1
f 75/2/1 72/2/1 71/2/1
f 76/2/1 72/2/1 75/2/1
f 79/3/1 78/3/1 77/3/1
f 80/3/1 78/3/1 79/3/1
f 83/3/1 76/3/1 75/3/1
f 84/3/1 76/3/1 83/3/1
f 85/3/1 81/3/1 80/3/1
f 86/3/1 81/3/1 85/3/1
f 87/3/1 83/3/1 82/3/1
f 88/3/1 83/3/1 87/3/1
f 89/3/1 87/3/1 86/3/1
f 90/3/1 87/3/1 89/3/1
f 93/9/1 92/9/1 91/9/1
f 94/9/1 92/9/1 93/9/1
f 95/8/1 94/8/1 93/8/1
f 96/8/1 94/8/1 95/8/1
f 97/9/2 98/9/2 99/9/2
f 99/9/2 98/9/2 100/9/2
f 99/8/2 100/8/2 101/8/2
f 101/8/2 100/8/2 102/8/2
f 103/9/2 104/9/2 105/9/2
f 105/9/2 104/9/2 106/9/2
f 105/8/2 106/8/2 108/8/2
f 108/8/2 106/8/2 109/8/2
f 108/8/2 109/8/2 111/8/2
f 109/8/2 110/8/2 111/8/2
f 107/8/2 108/8/2 111/8/2
f 111/8/2 110/8/2 112/8/2
f 107/8/2 111/8/2 113/8/2
f 112/8/2 110/8/2 114/8/2
f 114/8/2 110/8/2 115/8/2
f 107/8/2 113/8/2 117/8/2
f 117/8/2 113/8/2 118/8/2
f 115/2/2 116/2/2 119/2/2
f 119/2/2 116/2/2 120/2/2
f 120/3/2 121/3/2 124/3/2
f 124/3/2 121/3/2 125/3/2
f 122/4/2 123/4/2 126/4/2
f 126/4/2 123/4/2 127/4/2
f 124/2/2 125/2/2 128/2/2
f 128/2/2 125/2/2 129/2/2
f 130/3/2 131/3/2 132/3/2
f 132/3/2 131/3/2 133/3/2
f 128/3/2 129/3/2 136/3/2
f 136/3/2 129/3/2 137/3/2
f 133/3/2 134/3/2 138/3/2
f 138/3/2 134/3/2 139/3/2
f 135/3/2 136/3/2 140/3/2
f 140/3/2 136/3/2 141/3/2
f 139/3/2 140/3/2 142/3/2
f 142/3/2 140/3/2 143/3/2
f 144/5/2 145/5/2 148/5/2
f 145/2/2 146/2/2 149/2/2
f 148/5/2 145/5/2 149/5/2
f 149/2/2 146/2/2 150/2/2
f 147/3/2 148/3/2 152/3/2
f 150/2/2 151/2/2 153/2/2
f 152/3/2 148/3/2 153/3/2
f 148/2/2 149/2/2 153/2/2
f 149/2/2 150/2/2 153/2/2
f 153/2/2 151/2/2 154/2/2
f 154/2/2 151/2/2 155/2/2
f 155/2/2 151/2/2 156/2/2
f 153/3/2 154/3/2 158/3/2
f 158/3/2 154/3/2 159/3/2
f 157/3/2 158/3/2 160/3/2
f 157/3/2 160/3/2 162/3/2
f 162/3/2 160/3/2 163/3/2
f 161/3/2 162/3/2 164/3/2
f 164/3/2 162/3/2 165/3/2
f 155/3/2 156/3/2 166/3/2
f 165/3/2 166/3/2 167/3/2
f 167/3/2 166/3/2 168/3/2
f 166/3/2 156/3/2 169/3/2
f 168/3/2 166/3/2 169/3/2
f 169/3/2 156/3/2 170/3/2
f 168/3/2 169/3/2 171/3/2
f 171/3/2 169/3/2 172/3/2
f 173/3/2 174/3/2 176/3/2
f 175/6/2 176/6/2 177/6/2
f 176/3/2 174/3/2 178/3/2
f 177/6/2 176/6/2 178/6/2
f 177/3/2 178/3/2 180/3/2
f 179/3/2 180/3/2 181/3/2
f 178/3/2 174/3/2 182/3/2
f 181/3/2 180/3/2 182/3/2
f 180/3/2 178/3/2 182/3/2
f 183/4/2 184/4/2 185/4/2
f 185/4/2 184/4/2 186/4/2
f 189/3/3 188/3/3 187/3/3
f 191/3/3 189/3/3 187/3/3
f 191/3/3 190/3/3 189/3/3
f 192/3/3 190/3/3 191/3/3
f 193/3/3 191/3/3 187/3/3
f 194/3/3 191/3/3 193/3/3
f 200/3/3 196/3/3 195/3/3
f 201/3/3 196/3/3 200/3/3
f 204/3/3 198/3/3 197/3/3
f 205/3/3 198/3/3 204/3/3
f 206/3/3 200/3/3 199/3/3
f 207/3/3 200/3/3 206/3/3
f 208/3/3 200/3/3 207/3/3
f 209/3/3 202/3/3 201/3/3
f 210/3/3 202/3/3 209/3/3
f 212/8/3 204/8/3 203/8/3
f 213/4/3 205/4/3 204/4/3
f 213/8/3 204/8/3 212/8/3
f 213/4/3 206/4/3 205/4/3
f 214/9/3 207/9/3 206/9/3
f 214/4/3 206/4/3 213/4/3
f 215/6/3 208/6/3 207/6/3
f 215/9/3 207/9/3 214/9/3
f 216/4/3 214/4/3 213/4/3
f 216/8/3 212/8/3 203/8/3
f 216/4/3 215/4/3 214/4/3
f 216/4/3 213/4/3 212/4/3
f 217/4/3 215/4/3 216/4/3
f 218/4/3 215/4/3 217/4/3
f 219/6/3 208/6/3 215/6/3
f 219/4/3 215/4/3 218/4/3
f 220/8/3 216/8/3 203/8/3
f 220/8/3 217/8/3 216/8/3
f 221/4/3 218/4/3 217/4/3
f 221/8/3 217/8/3 220/8/3
f 222/4/3 218/4/3 221/4/3
f 223/9/3 219/9/3 218/9/3
f 223/4/3 218/4/3 222/4/3
f 224/6/3 208/6/3 219/6/3
f 224/9/3 219/9/3 223/9/3
f 225/6/3 208/6/3 224/6/3
f 227/3/3 211/3/3 210/3/3
f 228/3/3 211/3/3 227/3/3
f 229/3/3 222/3/3 221/3/3
f 230/3/3 222/3/3 229/3/3
f 231/3/3 225/3/3 224/3/3
f 231/3/3 224/3/3 223/3/3
f 232/3/3 225/3/3 231/3/3
f 233/3/3 227/3/3 226/3/3
f 234/3/3 227/3/3 233/3/3
f 235/3/3 233/3/3 232/3/3
f 236/3/3 233/3/3 235/3/3
f 239/4/3 238/4/3 237/4/3
f 240/4/3 238/4/3 239/4/3
f 241/6/3 240/6/3 239/6/3
f 242/6/3 240/6/3 241/6/3
f 246/8/3 242/8/3 241/8/3
f 249/6/3 244/6/3 243/6/3
f 250/3/3 245/3/3 244/3/3
f 250/6/3 244/6/3 249/6/3
f 251/3/3 245/3/3 250/3/3
f 257/8/3 246/8/3 241/8/3
f 258/5/3 247/5/3 246/5/3
f 258/8/3 246/8/3 257/8/3
f 259/5/3 247/5/3 258/5/3
f 260/2/3 249/2/3 248/2/3
f 261/2/3 249/2/3 260/2/3
f 262/3/3 253/3/3 252/3/3
f 263/3/3 253/3/3 262/3/3
f 265/9/3 255/9/3 254/9/3
f 266/8/3 256/8/3 255/8/3
f 266/9/3 255/9/3 265/9/3
f 267/8/3 256/8/3 266/8/3
f 271/9/3 269/9/3 268/9/3
f 272/8/3 270/8/3 269/8/3
f 272/9/3 269/9/3 271/9/3
f 273/8/3 270/8/3 272/8/3
f 280/3/3 264/3/3 263/3/3
f 281/3/3 264/3/3 280/3/3
f 282/8/3 275/8/3 274/8/3
f 282/5/3 276/5/3 275/5/3
f 283/5/3 276/5/3 282/5/3
f 284/3/3 278/3/3 277/3/3
f 285/3/3 278/3/3 284/3/3
f 288/3/3 280/3/3 279/3/3
f 289/3/3 280/3/3 288/3/3
f 290/8/3 282/8/3 274/8/3
f 291/8/3 282/8/3 290/8/3
f 292/6/3 286/6/3 285/6/3
f 293/3/3 287/3/3 286/3/3
f 293/6/3 286/6/3 292/6/3
f 294/3/3 287/3/3 293/3/3
f 295/6/3 291/6/3 290/6/3
f 296/6/3 291/6/3 295/6/3
f 297/4/3 296/4/3 295/4/3
f 298/4/3 296/4/3 297/4/3
f 301/3/3 300/3/3 299/3/3
f 302/3/3 300/3/3 301/3/3
f 305/3/3 304/3/3 303/3/3
f 306/3/3 304/3/3 305/3/3
f 307/4/4 308/4/4 309/4/4
f 309/4/4 308/4/4 310/4/4
f 309/6/4 310/6/4 311/6/4
f 311/6/4 310/6/4 312/6/4
f 311/8/4 312/8/4 315/8/4
f 313/6/4 314/6/4 316/6/4
f 316/6/4 314/6/4 317/6/4
f 311/8/4 315/8/4 321/8/4
f 321/8/4 315/8/4 322/8/4
f 318/9/4 319/9/4 323/9/4
f 319/8/4 320/8/4 324/8/4
f 323/9/4 319/9/4 324/9/4
f 324/8/4 320/8/4 325/8/4
f 326/9/4 327/9/4 329/9/4
f 327/8/4 328/8/4 330/8/4
f 329/9/4 327/9/4 330/9/4
f 330/8/4 328/8/4 331/8/4
f 332/8/4 333/8/4 334/8/4
f 332/8/4 334/8/4 335/8/4
f 335/8/4 334/8/4 336/8/4
f 335/6/4 336/6/4 337/6/4
f 337/6/4 336/6/4 338/6/4
f 337/4/4 338/4/4 339/4/4
f 339/4/4 338/4/4 340/4/4
f 341/3/4 342/3/4 345/3/4
f 345/3/4 342/3/4 346/3/4
f 343/2/4 344/2/4 350/2/4
f 350/2/4 344/2/4 351/2/4
f 347/3/4 348/3/4 352/3/4
f 352/3/4 348/3/4 353/3/4
f 349/8/4 350/8/4 355/8/4
f 355/8/4 350/8/4 356/8/4
f 353/3/4 354/3/4 359/3/4
f 359/3/4 354/3/4 360/3/4
f 356/2/4 357/2/4 361/2/4
f 361/2/4 357/2/4 362/2/4
f 358/3/4 359/3/4 365/3/4
f 365/3/4 359/3/4 366/3/4
f 363/3/4 364/3/4 367/3/4
f 367/3/4 364/3/4 368/3/4
f 369/3/4 370/3/4 372/3/4
f 372/3/4 370/3/4 373/3/4
f 371/2/4 372/2/4 376/2/4
f 376/2/4 372/2/4 377/2/4
f 373/3/4 374/3/4 378/3/4
f 377/2/4 372/2/4 378/2/4
f 372/3/4 373/3/4 378/3/4
f 378/3/4 374/3/4 379/3/4
f 375/2/4 376/2/4 381/2/4
f 375/2/4 381/2/4 382/2/4
f 375/2/4 382/2/4 383/2/4
f 383/2/4 382/2/4 384/2/4
f 379/3/4 380/3/4 387/3/4
f 387/3/4 380/3/4 388/3/4
f 384/2/4 385/2/4 389/2/4
f 385/3/4 386/3/4 390/3/4
f 389/2/4 385/2/4 390/2/4
f 386/3/4 387/3/4 390/3/4
f 390/3/4 387/3/4 391/3/4
f 392/3/4 393/3/4 396/3/4
f 393/2/4 394/2/4 397/2/4
f 396/3/4 393/3/4 397/3/4
f 394/3/4 395/3/4 398/3/4
f 397/2/4 394/2/4 398/2/4
f 396/2/4 397/2/4 399/2/4
f 397/3/4 398/3/4 400/3/4
f 399/2/4 397/2/4 400/2/4
f 398/3/4 395/3/4 401/3/4
f 400/3/4 398/3/4 401/3/4
f 399/3/4 400/3/4 402/3/4
f 400/2/4 401/2/4 403/2/4
f 402/3/4 400/3/4 403/3/4
f 401/3/4 395/3/4 404/3/4
f 403/2/4 401/2/4 404/2/4
f 404/3/4 395/3/4 405/3/4
f 410/9/5 407/9/5 406/9/5
f 411/9/5 407/9/5 410/9/5
f 412/9/5 409/9/5 408/9/5
f 413/9/5 409/9/5 412/9/5
f 416/8/5 415/8/5 414/8/5
f 417/8/5 415/8/5 416/8/5
f 418/8/5 415/8/5 417/8/5
f 419/8/5 415/8/5 418/8/5
f 421/6/5 418/6/5 417/6/5
f 422/6/5 418/6/5 421/6/5
f 424/8/5 421/8/5 420/8/5
f 424/8/5 423/8/5 422/8/5
f 424/8/5 422/8/5 421/8/5
f 425/8/5 423/8/5 424/8/5
f 434/4/5 427/4/5 426/4/5
f 435/6/5 428/6/5 427/6/5
f 435/4/5 427/4/5 434/4/5
f 436/8/5 429/8/5 428/8/5
f 436/6/5 428/6/5 435/6/5
f 437/8/5 429/8/5 436/8/5
f 438/8/5 431/8/5 430/8/5
f 439/6/5 432/6/5 431/6/5
f 439/8/5 431/8/5 438/8/5
f 440/4/5 433/4/5 432/4/5
f 440/6/5 432/6/5 439/6/5
f 441/4/5 433/4/5 440/4/5
f 446/2/5 443/2/5 442/2/5
f 447/2/5 443/2/5 446/2/5
f 448/2/5 445/2/5 444/2/5
f 449/2/5 445/2/5 448/2/5
f 450/2/5 448/2/5 447/2/5
f 451/2/5 448/2/5 450/2/5
f 456/3/5 453/3/5 452/3/5
f 457/3/5 453/3/5 456/3/5
f 458/3/5 455/3/5 454/3/5
f 459/3/5 455/3/5 458/3/5
f 464/2/5 461/2/5 460/2/5
f 465/2/5 461/2/5 464/2/5
f 468/2/5 463/2/5 462/2/5
f 469/2/5 463/2/5 468/2/5
f 470/3/5 466/3/5 465/3/5
f 471/2/5 467/2/5 466/2/5
f 471/3/5 466/3/5 470/3/5
f 472/3/5 468/3/5 467/3/5
f 472/2/5 467/2/5 471/2/5
f 473/3/5 468/3/5 472/3/5
f 476/3/5 475/3/5 474/3/5
f 477/3/5 475/3/5 476/3/5
f 483/3/5 479/3/5 478/3/5
f 484/3/5 479/3/5 483/3/5
f 485/3/5 481/3/5 480/3/5
f 486/3/5 481/3/5 485/3/5
f 488/6/5 483/6/5 482/6/5
f 489/6/5 483/6/5 488/6/5
f 490/6/5 487/6/5 486/6/5
f 491/6/5 487/6/5 490/6/5
f 494/3/5 493/3/5 492/3/5
f 495/3/5 493/3/5 494/3/5
f 498/3/5 497/3/5 496/3/5
f 499/3/5 497/3/5 498/3/5
f 503/3/5 501/3/5 500/3/5
f 504/3/5 501/3/5 503/3/5
f 505/3/5 501/3/5 504/3/5
f 506/3/5 501/3/5 505/3/5
f 508/3/5 503/3/5 502/3/5
f 509/3/5 503/3/5 508/3/5
f 510/3/5 507/3/5 506/3/5
f 511/3/5 507/3/5 510/3/5
f 512/4/6 513/4/6 520/4/6
f 513/6/6 514/6/6 521/6/6
f 520/4/6 513/4/6 521/4/6
f 514/8/6 515/8/6 522/8/6
f 521/6/6 514/6/6 522/6/6
f 522/8/6 515/8/6 523/8/6
f 516/8/6 517/8/6 524/8/6
f 517/6/6 518/6/6 525/6/6
f 524/8/6 517/8/6 525/8/6
f 518/4/6 519/4/6 526/4/6
f 525/6/6 518/6/6 526/6/6
f 526/4/6 519/4/6 527/4/6
f 528/3/6 529/3/6 532/3/6
f 532/3/6 529/3/6 533/3/6
f 530/3/6 531/3/6 534/3/6
f 534/3/6 531/3/6 535/3/6
f 536/3/6 537/3/6 538/3/6
f 538/3/6 537/3/6 539/3/6
f 540/3/6 541/3/6 545/3/6
f 545/3/6 541/3/6 546/3/6
f 542/3/6 543/3/6 547/3/6
f 547/3/6 543/3/6 548/3/6
f 544/3/6 545/3/6 550/3/6
f 550/3/6 545/3/6 551/3/6
f 548/3/6 549/3/6 552/3/6
f 552/3/6 549/3/6 553/3/6
f 554/3/6 555/3/6 557/3/6
f 557/3/6 555/3/6 558/3/6
f 556/3/6 557/3/6 560/3/6
f 560/3/6 557/3/6 561/3/6
f 558/3/6 559/3/6 562/3/6
f 562/3/6 559/3/6 563/3/6
f 564/3/6 565/3/6 568/3/6
f 568/3/6 565/3/6 569/3/6
f 566/3/6 567/3/6 570/3/6
f 570/3/6 567/3/6 571/3/6
f 569/3/6 570/3/6 572/3/6
f 572/3/6 570/3/6 573/3/6
f 574/3/6 575/3/6 577/3/6
f 577/3/6 575/3/6 578/3/6
f 576/3/6 577/3/6 580/3/6
f 580/3/6 577/3/6 581/3/6
f 578/3/6 579/3/6 582/3/6
f 582/3/6 579/3/6 583/3/6
f 581/3/6 582/3/6 584/3/6
f 584/3/6 582/3/6 585/3/6
f 586/3/6 587/3/6 588/3/6
f 588/3/6 587/3/6 589/3/6
