# MagicaVoxel @ Ephtracy

# group
o 

# material
mtllib extincteur.mtl
usemtl palette

# normals
vn -1 0 0
vn 1 0 0
vn 0 0 1
vn 0 0 -1
vn 0 -1 0
vn 0 1 0

# texcoords
vt 0.849609 0.5
vt 0.962891 0.5
vt 0.994141 0.5

# verts
v -0.4 1.2 0.1
v -0.4 1.2 -0.2
v -0.4 1.3 0.1
v -0.4 1.3 -0.2
v -0.3 0.3 0.2
v -0.3 0.3 -0.3
v -0.3 0.5 0.2
v -0.3 0.5 0.1
v -0.3 0.6 0.2
v -0.3 0.6 0.1
v -0.3 1 0.2
v -0.3 1 0.1
v -0.3 1.1 0.2
v -0.3 1.1 0.1
v -0.3 1.1 -0.2
v -0.3 1.1 -0.3
v -0.3 1.2 0.1
v -0.3 1.2 -0.2
v -0.2 0.2 2.98023e-008
v -0.2 0.2 -0.1
v -0.2 0.3 2.98023e-008
v -0.2 0.3 -0.1
v -0.1 0.2 0.1
v -0.1 0.2 2.98023e-008
v -0.1 0.2 -0.1
v -0.1 0.2 -0.2
v -0.1 0.3 0.3
v -0.1 0.3 0.2
v -0.1 0.3 0.1
v -0.1 0.3 2.98023e-008
v -0.1 0.3 -0.1
v -0.1 0.3 -0.2
v -0.1 0.3 -0.3
v -0.1 0.3 -0.4
v -0.1 0.6 0.2
v -0.1 0.7 0.3
v -0.1 0.7 0.2
v -0.1 0.8 0.3
v -0.1 0.8 0.2
v -0.1 0.9 0.3
v -0.1 0.9 0.2
v -0.1 1 0.3
v -0.1 1 0.2
v -0.1 1.1 0.3
v -0.1 1.1 0.2
v -0.1 1.1 -0.3
v -0.1 1.1 -0.4
v -0.1 1.2 0.1
v -0.1 1.2 2.98023e-008
v -0.1 1.2 -0.1
v -0.1 1.2 -0.2
v -0.1 1.3 0.1
v -0.1 1.3 2.98023e-008
v -0.1 1.3 -0.1
v -0.1 1.3 -0.2
v 0.1 0.2 0.1
v 0.1 0.2 2.98023e-008
v 0.1 0.2 -0.1
v 0.1 0.2 -0.2
v 0.1 0.3 0.3
v 0.1 0.3 0.2
v 0.1 0.3 0.1
v 0.1 0.3 2.98023e-008
v 0.1 0.3 -0.1
v 0.1 0.3 -0.2
v 0.1 0.3 -0.3
v 0.1 0.3 -0.4
v 0.1 0.6 0.3
v 0.1 0.6 0.2
v 0.1 0.7 0.3
v 0.1 0.7 0.2
v 0.1 0.9 0.3
v 0.1 0.9 0.2
v 0.1 1 0.3
v 0.1 1 0.2
v 0.1 1.1 0.3
v 0.1 1.1 0.2
v 0.1 1.1 -0.3
v 0.1 1.1 -0.4
v 0.2 0.2 2.98023e-008
v 0.2 0.2 -0.1
v 0.2 0.3 2.98023e-008
v 0.2 0.3 -0.1
v 0.2 1.1 0.1
v 0.2 1.1 -0.2
v 0.2 1.2 0.1
v 0.2 1.2 2.98023e-008
v 0.2 1.2 -0.1
v 0.2 1.2 -0.2
v 0.2 1.3 2.98023e-008
v 0.2 1.3 -0.1
v 0.3 0.3 0.2
v 0.3 0.3 -0.3
v 0.3 0.6 0.2
v 0.3 0.6 0.1
v 0.3 0.7 0.2
v 0.3 0.7 0.1
v 0.3 0.8 0.2
v 0.3 0.8 0.1
v 0.3 0.9 0.2
v 0.3 0.9 0.1
v 0.3 1.1 0.2
v 0.3 1.1 -0.3
v -0.1 0.3 0.3
v -0.1 0.7 0.3
v -0.1 0.8 0.3
v -0.1 0.9 0.3
v -0.1 1 0.3
v -0.1 1.1 0.3
v 0 0.6 0.3
v 0 0.7 0.3
v 0 0.8 0.3
v 0.1 0.3 0.3
v 0.1 0.6 0.3
v 0.1 0.7 0.3
v 0.1 0.9 0.3
v 0.1 1 0.3
v 0.1 1.1 0.3
v -0.3 0.3 0.2
v -0.3 0.5 0.2
v -0.3 0.6 0.2
v -0.3 1 0.2
v -0.3 1.1 0.2
v -0.2 0.5 0.2
v -0.2 0.6 0.2
v -0.2 0.7 0.2
v -0.2 0.9 0.2
v -0.2 1 0.2
v -0.2 1.1 0.2
v -0.1 0.3 0.2
v -0.1 0.6 0.2
v -0.1 0.7 0.2
v -0.1 0.8 0.2
v -0.1 0.9 0.2
v -0.1 1 0.2
v -0.1 1.1 0.2
v 0.1 0.3 0.2
v 0.1 0.6 0.2
v 0.1 0.7 0.2
v 0.1 0.9 0.2
v 0.1 1 0.2
v 0.1 1.1 0.2
v 0.2 0.8 0.2
v 0.2 0.9 0.2
v 0.2 1 0.2
v 0.3 0.3 0.2
v 0.3 0.6 0.2
v 0.3 0.7 0.2
v 0.3 0.8 0.2
v 0.3 0.9 0.2
v 0.3 1.1 0.2
v -0.4 1.2 0.1
v -0.4 1.3 0.1
v -0.3 1.1 0.1
v -0.3 1.2 0.1
v -0.2 1.1 0.1
v -0.2 1.2 0.1
v -0.1 0.2 0.1
v -0.1 0.3 0.1
v -0.1 1.2 0.1
v -0.1 1.3 0.1
v 0.1 0.2 0.1
v 0.1 0.3 0.1
v 0.2 1.1 0.1
v 0.2 1.2 0.1
v -0.2 0.2 2.98023e-008
v -0.2 0.3 2.98023e-008
v -0.1 0.2 2.98023e-008
v -0.1 0.3 2.98023e-008
v -0.1 1.2 2.98023e-008
v -0.1 1.3 2.98023e-008
v 0.1 0.2 2.98023e-008
v 0.1 0.3 2.98023e-008
v 0.2 0.2 2.98023e-008
v 0.2 0.3 2.98023e-008
v 0.2 1.2 2.98023e-008
v 0.2 1.3 2.98023e-008
v -0.2 0.2 -0.1
v -0.2 0.3 -0.1
v -0.1 0.2 -0.1
v -0.1 0.3 -0.1
v -0.1 1.2 -0.1
v -0.1 1.3 -0.1
v 0.1 0.2 -0.1
v 0.1 0.3 -0.1
v 0.2 0.2 -0.1
v 0.2 0.3 -0.1
v 0.2 1.2 -0.1
v 0.2 1.3 -0.1
v -0.4 1.2 -0.2
v -0.4 1.3 -0.2
v -0.3 1.1 -0.2
v -0.3 1.2 -0.2
v -0.2 1.1 -0.2
v -0.2 1.2 -0.2
v -0.1 0.2 -0.2
v -0.1 0.3 -0.2
v -0.1 1.2 -0.2
v -0.1 1.3 -0.2
v 0.1 0.2 -0.2
v 0.1 0.3 -0.2
v 0.2 1.1 -0.2
v 0.2 1.2 -0.2
v -0.3 0.3 -0.3
v -0.3 1.1 -0.3
v -0.1 0.3 -0.3
v -0.1 1.1 -0.3
v 0.1 0.3 -0.3
v 0.1 1.1 -0.3
v 0.3 0.3 -0.3
v 0.3 1.1 -0.3
v -0.1 0.3 -0.4
v -0.1 1.1 -0.4
v 0.1 0.3 -0.4
v 0.1 1.1 -0.4
v -0.1 0.2 0.1
v 0.1 0.2 0.1
v -0.2 0.2 2.98023e-008
v -0.1 0.2 2.98023e-008
v 0.1 0.2 2.98023e-008
v 0.2 0.2 2.98023e-008
v -0.2 0.2 -0.1
v -0.1 0.2 -0.1
v 0.1 0.2 -0.1
v 0.2 0.2 -0.1
v -0.1 0.2 -0.2
v 0.1 0.2 -0.2
v -0.1 0.3 0.3
v 0.1 0.3 0.3
v -0.3 0.3 0.2
v -0.1 0.3 0.2
v 0.1 0.3 0.2
v 0.3 0.3 0.2
v -0.1 0.3 0.1
v 0.1 0.3 0.1
v -0.2 0.3 2.98023e-008
v -0.1 0.3 2.98023e-008
v 0.1 0.3 2.98023e-008
v 0.2 0.3 2.98023e-008
v -0.2 0.3 -0.1
v -0.1 0.3 -0.1
v 0.1 0.3 -0.1
v 0.2 0.3 -0.1
v -0.1 0.3 -0.2
v 0.1 0.3 -0.2
v -0.3 0.3 -0.3
v -0.1 0.3 -0.3
v 0.1 0.3 -0.3
v 0.3 0.3 -0.3
v -0.1 0.3 -0.4
v 0.1 0.3 -0.4
v -0.4 1.2 0.1
v -0.3 1.2 0.1
v -0.4 1.2 -0.2
v -0.3 1.2 -0.2
v -0.1 1.1 0.3
v 0.1 1.1 0.3
v -0.3 1.1 0.2
v -0.2 1.1 0.2
v -0.1 1.1 0.2
v 0.1 1.1 0.2
v 0.3 1.1 0.2
v -0.3 1.1 0.1
v -0.2 1.1 0.1
v 0.2 1.1 0.1
v -0.3 1.1 -0.2
v -0.2 1.1 -0.2
v 0.2 1.1 -0.2
v -0.3 1.1 -0.3
v -0.1 1.1 -0.3
v 0.1 1.1 -0.3
v 0.3 1.1 -0.3
v -0.1 1.1 -0.4
v 0.1 1.1 -0.4
v -0.1 1.2 0.1
v 0.2 1.2 0.1
v -0.1 1.2 2.98023e-008
v 0.2 1.2 2.98023e-008
v -0.1 1.2 -0.1
v 0.2 1.2 -0.1
v -0.1 1.2 -0.2
v 0.2 1.2 -0.2
v -0.4 1.3 0.1
v -0.1 1.3 0.1
v -0.1 1.3 2.98023e-008
v 0.2 1.3 2.98023e-008
v -0.1 1.3 -0.1
v 0.2 1.3 -0.1
v -0.4 1.3 -0.2
v -0.1 1.3 -0.2

# faces
f 3/3/1 2/3/1 1/3/1
f 4/3/1 2/3/1 3/3/1
f 7/1/1 6/1/1 5/1/1
f 8/1/1 6/1/1 7/1/1
f 9/2/1 8/2/1 7/2/1
f 10/1/1 6/1/1 8/1/1
f 10/2/1 8/2/1 9/2/1
f 11/1/1 10/1/1 9/1/1
f 12/1/1 6/1/1 10/1/1
f 12/1/1 10/1/1 11/1/1
f 13/2/1 12/2/1 11/2/1
f 14/1/1 6/1/1 12/1/1
f 14/2/1 12/2/1 13/2/1
f 15/1/1 6/1/1 14/1/1
f 16/1/1 6/1/1 15/1/1
f 17/3/1 15/3/1 14/3/1
f 18/3/1 15/3/1 17/3/1
f 21/1/1 20/1/1 19/1/1
f 22/1/1 20/1/1 21/1/1
f 29/1/1 24/1/1 23/1/1
f 30/1/1 24/1/1 29/1/1
f 31/1/1 26/1/1 25/1/1
f 32/1/1 26/1/1 31/1/1
f 35/1/1 28/1/1 27/1/1
f 36/1/1 35/1/1 27/1/1
f 37/1/1 35/1/1 36/1/1
f 38/2/1 37/2/1 36/2/1
f 39/2/1 37/2/1 38/2/1
f 40/1/1 39/1/1 38/1/1
f 41/1/1 39/1/1 40/1/1
f 42/2/1 41/2/1 40/2/1
f 43/2/1 41/2/1 42/2/1
f 44/1/1 43/1/1 42/1/1
f 45/1/1 43/1/1 44/1/1
f 46/1/1 34/1/1 33/1/1
f 47/1/1 34/1/1 46/1/1
f 48/3/2 49/3/2 52/3/2
f 52/3/2 49/3/2 53/3/2
f 50/3/2 51/3/2 54/3/2
f 54/3/2 51/3/2 55/3/2
f 56/1/2 57/1/2 62/1/2
f 62/1/2 57/1/2 63/1/2
f 58/1/2 59/1/2 64/1/2
f 64/1/2 59/1/2 65/1/2
f 60/1/2 61/1/2 68/1/2
f 68/1/2 61/1/2 69/1/2
f 68/2/2 69/2/2 70/2/2
f 70/2/2 69/2/2 71/2/2
f 70/1/2 71/1/2 72/1/2
f 72/1/2 71/1/2 73/1/2
f 72/2/2 73/2/2 74/2/2
f 74/2/2 73/2/2 75/2/2
f 74/1/2 75/1/2 76/1/2
f 76/1/2 75/1/2 77/1/2
f 66/1/2 67/1/2 78/1/2
f 78/1/2 67/1/2 79/1/2
f 80/1/2 81/1/2 82/1/2
f 82/1/2 81/1/2 83/1/2
f 84/1/2 85/1/2 86/1/2
f 86/1/2 85/1/2 87/1/2
f 87/1/2 85/1/2 88/1/2
f 88/1/2 85/1/2 89/1/2
f 87/3/2 88/3/2 90/3/2
f 90/3/2 88/3/2 91/3/2
f 92/1/2 93/1/2 94/1/2
f 94/1/2 93/1/2 95/1/2
f 94/2/2 95/2/2 96/2/2
f 95/1/2 93/1/2 97/1/2
f 96/2/2 95/2/2 97/2/2
f 96/1/2 97/1/2 98/1/2
f 97/1/2 93/1/2 99/1/2
f 98/1/2 97/1/2 99/1/2
f 98/2/2 99/2/2 100/2/2
f 99/1/2 93/1/2 101/1/2
f 100/2/2 99/2/2 101/2/2
f 100/1/2 101/1/2 102/1/2
f 101/1/2 93/1/2 103/1/2
f 102/1/2 101/1/2 103/1/2
f 110/1/3 105/1/3 104/1/3
f 111/2/3 106/2/3 105/2/3
f 111/1/3 105/1/3 110/1/3
f 112/1/3 107/1/3 106/1/3
f 112/2/3 106/2/3 111/2/3
f 113/1/3 110/1/3 104/1/3
f 114/2/3 111/2/3 110/2/3
f 114/1/3 110/1/3 113/1/3
f 115/1/3 112/1/3 111/1/3
f 115/2/3 111/2/3 114/2/3
f 116/1/3 107/1/3 112/1/3
f 116/1/3 112/1/3 115/1/3
f 116/2/3 108/2/3 107/2/3
f 117/1/3 109/1/3 108/1/3
f 117/2/3 108/2/3 116/2/3
f 118/1/3 109/1/3 117/1/3
f 124/1/3 120/1/3 119/1/3
f 124/2/3 121/2/3 120/2/3
f 125/1/3 122/1/3 121/1/3
f 125/2/3 121/2/3 124/2/3
f 126/1/3 122/1/3 125/1/3
f 127/1/3 122/1/3 126/1/3
f 128/2/3 123/2/3 122/2/3
f 128/1/3 122/1/3 127/1/3
f 129/2/3 123/2/3 128/2/3
f 130/1/3 124/1/3 119/1/3
f 130/1/3 125/1/3 124/1/3
f 131/2/3 126/2/3 125/2/3
f 131/1/3 125/1/3 130/1/3
f 132/1/3 127/1/3 126/1/3
f 132/2/3 126/2/3 131/2/3
f 133/1/3 127/1/3 132/1/3
f 134/2/3 128/2/3 127/2/3
f 134/1/3 127/1/3 133/1/3
f 135/1/3 129/1/3 128/1/3
f 135/2/3 128/2/3 134/2/3
f 136/1/3 129/1/3 135/1/3
f 143/1/3 140/1/3 139/1/3
f 144/2/3 141/2/3 140/2/3
f 144/1/3 140/1/3 143/1/3
f 145/1/3 142/1/3 141/1/3
f 145/2/3 141/2/3 144/2/3
f 146/1/3 138/1/3 137/1/3
f 147/2/3 139/2/3 138/2/3
f 147/1/3 138/1/3 146/1/3
f 148/1/3 143/1/3 139/1/3
f 148/2/3 139/2/3 147/2/3
f 149/2/3 144/2/3 143/2/3
f 149/1/3 143/1/3 148/1/3
f 150/1/3 145/1/3 144/1/3
f 150/2/3 144/2/3 149/2/3
f 151/1/3 142/1/3 145/1/3
f 151/1/3 145/1/3 150/1/3
f 155/3/3 153/3/3 152/3/3
f 156/3/3 155/3/3 154/3/3
f 157/3/3 153/3/3 155/3/3
f 157/3/3 155/3/3 156/3/3
f 160/1/3 157/1/3 156/1/3
f 160/3/3 153/3/3 157/3/3
f 161/3/3 153/3/3 160/3/3
f 162/1/3 159/1/3 158/1/3
f 163/1/3 159/1/3 162/1/3
f 164/1/3 160/1/3 156/1/3
f 165/1/3 160/1/3 164/1/3
f 168/1/3 167/1/3 166/1/3
f 169/1/3 167/1/3 168/1/3
f 174/1/3 173/1/3 172/1/3
f 175/1/3 173/1/3 174/1/3
f 176/3/3 171/3/3 170/3/3
f 177/3/3 171/3/3 176/3/3
f 178/1/4 179/1/4 180/1/4
f 180/1/4 179/1/4 181/1/4
f 184/1/4 185/1/4 186/1/4
f 186/1/4 185/1/4 187/1/4
f 182/3/4 183/3/4 188/3/4
f 188/3/4 183/3/4 189/3/4
f 190/3/4 191/3/4 193/3/4
f 192/3/4 193/3/4 194/3/4
f 193/3/4 191/3/4 195/3/4
f 194/3/4 193/3/4 195/3/4
f 194/1/4 195/1/4 198/1/4
f 195/3/4 191/3/4 198/3/4
f 198/3/4 191/3/4 199/3/4
f 196/1/4 197/1/4 200/1/4
f 200/1/4 197/1/4 201/1/4
f 194/1/4 198/1/4 202/1/4
f 202/1/4 198/1/4 203/1/4
f 204/1/4 205/1/4 206/1/4
f 206/1/4 205/1/4 207/1/4
f 208/1/4 209/1/4 210/1/4
f 210/1/4 209/1/4 211/1/4
f 212/1/4 213/1/4 214/1/4
f 214/1/4 213/1/4 215/1/4
f 219/1/5 217/1/5 216/1/5
f 220/1/5 217/1/5 219/1/5
f 222/1/5 219/1/5 218/1/5
f 222/1/5 221/1/5 220/1/5
f 222/1/5 220/1/5 219/1/5
f 223/1/5 221/1/5 222/1/5
f 224/1/5 221/1/5 223/1/5
f 225/1/5 221/1/5 224/1/5
f 226/1/5 224/1/5 223/1/5
f 227/1/5 224/1/5 226/1/5
f 231/1/5 229/1/5 228/1/5
f 232/1/5 229/1/5 231/1/5
f 234/1/5 231/1/5 230/1/5
f 234/1/5 233/1/5 232/1/5
f 234/1/5 232/1/5 231/1/5
f 235/1/5 233/1/5 234/1/5
f 236/1/5 234/1/5 230/1/5
f 237/1/5 234/1/5 236/1/5
f 238/1/5 233/1/5 235/1/5
f 239/1/5 233/1/5 238/1/5
f 240/1/5 236/1/5 230/1/5
f 243/1/5 233/1/5 239/1/5
f 244/1/5 241/1/5 240/1/5
f 245/1/5 243/1/5 242/1/5
f 246/1/5 244/1/5 240/1/5
f 246/1/5 245/1/5 244/1/5
f 246/1/5 240/1/5 230/1/5
f 247/1/5 245/1/5 246/1/5
f 248/1/5 243/1/5 245/1/5
f 248/1/5 245/1/5 247/1/5
f 249/1/5 233/1/5 243/1/5
f 249/1/5 243/1/5 248/1/5
f 250/1/5 248/1/5 247/1/5
f 251/1/5 248/1/5 250/1/5
f 254/3/5 253/3/5 252/3/5
f 255/3/5 253/3/5 254/3/5
f 256/1/6 257/1/6 260/1/6
f 260/1/6 257/1/6 261/1/6
f 258/2/6 259/2/6 263/2/6
f 261/1/6 262/1/6 264/1/6
f 263/2/6 259/2/6 264/2/6
f 259/1/6 260/1/6 264/1/6
f 260/1/6 261/1/6 264/1/6
f 264/1/6 262/1/6 265/1/6
f 265/1/6 262/1/6 268/1/6
f 266/1/6 267/1/6 269/1/6
f 267/1/6 268/1/6 269/1/6
f 269/1/6 268/1/6 270/1/6
f 270/1/6 268/1/6 271/1/6
f 268/1/6 262/1/6 272/1/6
f 271/1/6 268/1/6 272/1/6
f 270/1/6 271/1/6 273/1/6
f 273/1/6 271/1/6 274/1/6
f 275/1/6 276/1/6 277/1/6
f 277/1/6 276/1/6 278/1/6
f 279/1/6 280/1/6 281/1/6
f 281/1/6 280/1/6 282/1/6
f 283/3/6 284/3/6 285/3/6
f 283/3/6 285/3/6 287/3/6
f 285/3/6 286/3/6 287/3/6
f 287/3/6 286/3/6 288/3/6
f 283/3/6 287/3/6 289/3/6
f 289/3/6 287/3/6 290/3/6
